<?xml version="1.0" encoding="utf-8" standalone="no"?>
<!DOCTYPE svg PUBLIC "-//W3C//DTD SVG 1.1//EN"
  "http://www.w3.org/Graphics/SVG/1.1/DTD/svg11.dtd">
<svg xmlns:xlink="http://www.w3.org/1999/xlink" width="543.510078pt" height="310.347584pt" viewBox="0 0 543.510078 310.347584" xmlns="http://www.w3.org/2000/svg" version="1.1">
 <metadata>
  <rdf:RDF xmlns:dc="http://purl.org/dc/elements/1.1/" xmlns:cc="http://creativecommons.org/ns#" xmlns:rdf="http://www.w3.org/1999/02/22-rdf-syntax-ns#">
   <cc:Work>
    <dc:type rdf:resource="http://purl.org/dc/dcmitype/StillImage"/>
    <dc:date>2026-07-31T19:06:41.397792</dc:date>
    <dc:format>image/svg+xml</dc:format>
    <dc:creator>
     <cc:Agent>
      <dc:title>Matplotlib v3.11.1, https://matplotlib.org/</dc:title>
     </cc:Agent>
    </dc:creator>
   </cc:Work>
  </rdf:RDF>
 </metadata>
 <defs>
  <style type="text/css">*{stroke-linejoin: round; stroke-linecap: butt}</style>
 </defs>
 <g id="figure_1">
  <g id="patch_1">
   <path d="M 0 310.347584 
L 543.510078 310.347584 
L 543.510078 0 
L 0 0 
z
" style="fill: #ffffff"/>
  </g>
  <g id="axes_1">
   <g id="patch_2">
    <path d="M 56.430078 283.324342 
L 536.310078 283.324342 
L 536.310078 28.300342 
L 56.430078 28.300342 
z
" style="fill: #ffffff"/>
   </g>
   <g id="matplotlib.axis_1">
    <g id="xtick_1">
     <g id="text_1">
      <!-- 1970 -->
      <g style="fill: #262626" transform="translate(77.521016 300.832643) scale(0.11 -0.11)">
       <defs>
        <path id="ArialMT-14" d="M 2384 0 
L 1822 0 
L 1822 3584 
Q 1619 3391 1289 3197 
Q 959 3003 697 2906 
L 697 3450 
Q 1169 3672 1522 3987 
Q 1875 4303 2022 4600 
L 2384 4600 
L 2384 0 
z
" transform="scale(0.015625)"/>
        <path id="ArialMT-1c" d="M 350 1059 
L 891 1109 
Q 959 728 1153 556 
Q 1347 384 1650 384 
Q 1909 384 2104 503 
Q 2300 622 2425 820 
Q 2550 1019 2634 1356 
Q 2719 1694 2719 2044 
Q 2719 2081 2716 2156 
Q 2547 1888 2255 1720 
Q 1963 1553 1622 1553 
Q 1053 1553 659 1965 
Q 266 2378 266 3053 
Q 266 3750 677 4175 
Q 1088 4600 1706 4600 
Q 2153 4600 2523 4359 
Q 2894 4119 3086 3673 
Q 3278 3228 3278 2384 
Q 3278 1506 3087 986 
Q 2897 466 2520 194 
Q 2144 -78 1638 -78 
Q 1100 -78 759 220 
Q 419 519 350 1059 
z
M 2653 3081 
Q 2653 3566 2395 3850 
Q 2138 4134 1775 4134 
Q 1400 4134 1122 3828 
Q 844 3522 844 3034 
Q 844 2597 1108 2323 
Q 1372 2050 1759 2050 
Q 2150 2050 2401 2323 
Q 2653 2597 2653 3081 
z
" transform="scale(0.015625)"/>
        <path id="ArialMT-1a" d="M 303 3981 
L 303 4522 
L 3269 4522 
L 3269 4084 
Q 2831 3619 2401 2847 
Q 1972 2075 1738 1259 
Q 1569 684 1522 0 
L 944 0 
Q 953 541 1156 1306 
Q 1359 2072 1739 2783 
Q 2119 3494 2547 3981 
L 303 3981 
z
" transform="scale(0.015625)"/>
        <path id="ArialMT-13" d="M 266 2259 
Q 266 3072 433 3567 
Q 600 4063 929 4331 
Q 1259 4600 1759 4600 
Q 2128 4600 2406 4451 
Q 2684 4303 2865 4023 
Q 3047 3744 3150 3342 
Q 3253 2941 3253 2259 
Q 3253 1453 3087 958 
Q 2922 463 2592 192 
Q 2263 -78 1759 -78 
Q 1097 -78 719 397 
Q 266 969 266 2259 
z
M 844 2259 
Q 844 1131 1108 757 
Q 1372 384 1759 384 
Q 2147 384 2411 759 
Q 2675 1134 2675 2259 
Q 2675 3391 2411 3762 
Q 2147 4134 1753 4134 
Q 1366 4134 1134 3806 
Q 844 3388 844 2259 
z
" transform="scale(0.015625)"/>
       </defs>
       <use xlink:href="#ArialMT-14"/>
       <use xlink:href="#ArialMT-1c" transform="translate(55.609375 0)"/>
       <use xlink:href="#ArialMT-1a" transform="translate(111.21875 0)"/>
       <use xlink:href="#ArialMT-13" transform="translate(166.828125 0)"/>
      </g>
     </g>
    </g>
    <g id="xtick_2">
     <g id="text_2">
      <!-- 1980 -->
      <g style="fill: #262626" transform="translate(144.171016 300.832643) scale(0.11 -0.11)">
       <defs>
        <path id="ArialMT-1b" d="M 1131 2484 
Q 781 2613 612 2850 
Q 444 3088 444 3419 
Q 444 3919 803 4259 
Q 1163 4600 1759 4600 
Q 2359 4600 2725 4251 
Q 3091 3903 3091 3403 
Q 3091 3084 2923 2848 
Q 2756 2613 2416 2484 
Q 2838 2347 3058 2040 
Q 3278 1734 3278 1309 
Q 3278 722 2862 322 
Q 2447 -78 1769 -78 
Q 1091 -78 675 323 
Q 259 725 259 1325 
Q 259 1772 486 2073 
Q 713 2375 1131 2484 
z
M 1019 3438 
Q 1019 3113 1228 2906 
Q 1438 2700 1772 2700 
Q 2097 2700 2305 2904 
Q 2513 3109 2513 3406 
Q 2513 3716 2298 3927 
Q 2084 4138 1766 4138 
Q 1444 4138 1231 3931 
Q 1019 3725 1019 3438 
z
M 838 1322 
Q 838 1081 952 856 
Q 1066 631 1291 507 
Q 1516 384 1775 384 
Q 2178 384 2440 643 
Q 2703 903 2703 1303 
Q 2703 1709 2433 1975 
Q 2163 2241 1756 2241 
Q 1359 2241 1098 1978 
Q 838 1716 838 1322 
z
" transform="scale(0.015625)"/>
       </defs>
       <use xlink:href="#ArialMT-14"/>
       <use xlink:href="#ArialMT-1c" transform="translate(55.609375 0)"/>
       <use xlink:href="#ArialMT-1b" transform="translate(111.21875 0)"/>
       <use xlink:href="#ArialMT-13" transform="translate(166.828125 0)"/>
      </g>
     </g>
    </g>
    <g id="xtick_3">
     <g id="text_3">
      <!-- 1990 -->
      <g style="fill: #262626" transform="translate(210.821016 300.832643) scale(0.11 -0.11)">
       <use xlink:href="#ArialMT-14"/>
       <use xlink:href="#ArialMT-1c" transform="translate(55.609375 0)"/>
       <use xlink:href="#ArialMT-1c" transform="translate(111.21875 0)"/>
       <use xlink:href="#ArialMT-13" transform="translate(166.828125 0)"/>
      </g>
     </g>
    </g>
    <g id="xtick_4">
     <g id="text_4">
      <!-- 2000 -->
      <g style="fill: #262626" transform="translate(277.471016 300.832643) scale(0.11 -0.11)">
       <defs>
        <path id="ArialMT-15" d="M 3222 541 
L 3222 0 
L 194 0 
Q 188 203 259 391 
Q 375 700 629 1000 
Q 884 1300 1366 1694 
Q 2113 2306 2375 2664 
Q 2638 3022 2638 3341 
Q 2638 3675 2398 3904 
Q 2159 4134 1775 4134 
Q 1369 4134 1125 3890 
Q 881 3647 878 3216 
L 300 3275 
Q 359 3922 746 4261 
Q 1134 4600 1788 4600 
Q 2447 4600 2831 4234 
Q 3216 3869 3216 3328 
Q 3216 3053 3103 2787 
Q 2991 2522 2730 2228 
Q 2469 1934 1863 1422 
Q 1356 997 1212 845 
Q 1069 694 975 541 
L 3222 541 
z
" transform="scale(0.015625)"/>
       </defs>
       <use xlink:href="#ArialMT-15"/>
       <use xlink:href="#ArialMT-13" transform="translate(55.609375 0)"/>
       <use xlink:href="#ArialMT-13" transform="translate(111.21875 0)"/>
       <use xlink:href="#ArialMT-13" transform="translate(166.828125 0)"/>
      </g>
     </g>
    </g>
    <g id="xtick_5">
     <g id="text_5">
      <!-- 2010 -->
      <g style="fill: #262626" transform="translate(344.121016 300.832643) scale(0.11 -0.11)">
       <use xlink:href="#ArialMT-15"/>
       <use xlink:href="#ArialMT-13" transform="translate(55.609375 0)"/>
       <use xlink:href="#ArialMT-14" transform="translate(111.21875 0)"/>
       <use xlink:href="#ArialMT-13" transform="translate(166.828125 0)"/>
      </g>
     </g>
    </g>
    <g id="xtick_6">
     <g id="text_6">
      <!-- 2020 -->
      <g style="fill: #262626" transform="translate(410.771016 300.832643) scale(0.11 -0.11)">
       <use xlink:href="#ArialMT-15"/>
       <use xlink:href="#ArialMT-13" transform="translate(55.609375 0)"/>
       <use xlink:href="#ArialMT-15" transform="translate(111.21875 0)"/>
       <use xlink:href="#ArialMT-13" transform="translate(166.828125 0)"/>
      </g>
     </g>
    </g>
    <g id="xtick_7">
     <g id="text_7">
      <!-- 2030 -->
      <g style="fill: #262626" transform="translate(477.421016 300.832643) scale(0.11 -0.11)">
       <defs>
        <path id="ArialMT-16" d="M 269 1209 
L 831 1284 
Q 928 806 1161 595 
Q 1394 384 1728 384 
Q 2125 384 2398 659 
Q 2672 934 2672 1341 
Q 2672 1728 2419 1979 
Q 2166 2231 1775 2231 
Q 1616 2231 1378 2169 
L 1441 2663 
Q 1497 2656 1531 2656 
Q 1891 2656 2178 2843 
Q 2466 3031 2466 3422 
Q 2466 3731 2256 3934 
Q 2047 4138 1716 4138 
Q 1388 4138 1169 3931 
Q 950 3725 888 3313 
L 325 3413 
Q 428 3978 793 4289 
Q 1159 4600 1703 4600 
Q 2078 4600 2393 4439 
Q 2709 4278 2876 4000 
Q 3044 3722 3044 3409 
Q 3044 3113 2884 2869 
Q 2725 2625 2413 2481 
Q 2819 2388 3044 2092 
Q 3269 1797 3269 1353 
Q 3269 753 2831 336 
Q 2394 -81 1725 -81 
Q 1122 -81 723 278 
Q 325 638 269 1209 
z
" transform="scale(0.015625)"/>
       </defs>
       <use xlink:href="#ArialMT-15"/>
       <use xlink:href="#ArialMT-13" transform="translate(55.609375 0)"/>
       <use xlink:href="#ArialMT-16" transform="translate(111.21875 0)"/>
       <use xlink:href="#ArialMT-13" transform="translate(166.828125 0)"/>
      </g>
     </g>
    </g>
   </g>
   <g id="matplotlib.axis_2">
    <g id="ytick_1">
     <g id="line2d_1">
      <path d="M 56.430078 283.324342 
L 536.310078 283.324342 
" clip-path="url(#p39b771b021)" style="fill: none; stroke: #ededea; stroke-linecap: round"/>
     </g>
     <g id="text_8">
      <!-- 0 -->
      <g style="fill: #262626" transform="translate(40.813047 287.328492) scale(0.11 -0.11)">
       <use xlink:href="#ArialMT-13"/>
      </g>
     </g>
    </g>
    <g id="ytick_2">
     <g id="line2d_2">
      <path d="M 56.430078 238.429702 
L 536.310078 238.429702 
" clip-path="url(#p39b771b021)" style="fill: none; stroke: #ededea; stroke-linecap: round"/>
     </g>
     <g id="text_9">
      <!-- 500 -->
      <g style="fill: #262626" transform="translate(28.578984 242.433853) scale(0.11 -0.11)">
       <defs>
        <path id="ArialMT-18" d="M 266 1200 
L 856 1250 
Q 922 819 1161 601 
Q 1400 384 1738 384 
Q 2144 384 2425 690 
Q 2706 997 2706 1503 
Q 2706 1984 2436 2262 
Q 2166 2541 1728 2541 
Q 1456 2541 1237 2417 
Q 1019 2294 894 2097 
L 366 2166 
L 809 4519 
L 3088 4519 
L 3088 3981 
L 1259 3981 
L 1013 2750 
Q 1425 3038 1878 3038 
Q 2478 3038 2890 2622 
Q 3303 2206 3303 1553 
Q 3303 931 2941 478 
Q 2500 -78 1738 -78 
Q 1113 -78 717 272 
Q 322 622 266 1200 
z
" transform="scale(0.015625)"/>
       </defs>
       <use xlink:href="#ArialMT-18"/>
       <use xlink:href="#ArialMT-13" transform="translate(55.609375 0)"/>
       <use xlink:href="#ArialMT-13" transform="translate(111.21875 0)"/>
      </g>
     </g>
    </g>
    <g id="ytick_3">
     <g id="line2d_3">
      <path d="M 56.430078 193.535063 
L 536.310078 193.535063 
" clip-path="url(#p39b771b021)" style="fill: none; stroke: #ededea; stroke-linecap: round"/>
     </g>
     <g id="text_10">
      <!-- 1000 -->
      <g style="fill: #262626" transform="translate(22.461953 197.539213) scale(0.11 -0.11)">
       <use xlink:href="#ArialMT-14"/>
       <use xlink:href="#ArialMT-13" transform="translate(55.609375 0)"/>
       <use xlink:href="#ArialMT-13" transform="translate(111.21875 0)"/>
       <use xlink:href="#ArialMT-13" transform="translate(166.828125 0)"/>
      </g>
     </g>
    </g>
    <g id="ytick_4">
     <g id="line2d_4">
      <path d="M 56.430078 148.640423 
L 536.310078 148.640423 
" clip-path="url(#p39b771b021)" style="fill: none; stroke: #ededea; stroke-linecap: round"/>
     </g>
     <g id="text_11">
      <!-- 1500 -->
      <g style="fill: #262626" transform="translate(22.461953 152.644574) scale(0.11 -0.11)">
       <use xlink:href="#ArialMT-14"/>
       <use xlink:href="#ArialMT-18" transform="translate(55.609375 0)"/>
       <use xlink:href="#ArialMT-13" transform="translate(111.21875 0)"/>
       <use xlink:href="#ArialMT-13" transform="translate(166.828125 0)"/>
      </g>
     </g>
    </g>
    <g id="ytick_5">
     <g id="line2d_5">
      <path d="M 56.430078 103.745784 
L 536.310078 103.745784 
" clip-path="url(#p39b771b021)" style="fill: none; stroke: #ededea; stroke-linecap: round"/>
     </g>
     <g id="text_12">
      <!-- 2000 -->
      <g style="fill: #262626" transform="translate(22.461953 107.749934) scale(0.11 -0.11)">
       <use xlink:href="#ArialMT-15"/>
       <use xlink:href="#ArialMT-13" transform="translate(55.609375 0)"/>
       <use xlink:href="#ArialMT-13" transform="translate(111.21875 0)"/>
       <use xlink:href="#ArialMT-13" transform="translate(166.828125 0)"/>
      </g>
     </g>
    </g>
    <g id="ytick_6">
     <g id="line2d_6">
      <path d="M 56.430078 58.851144 
L 536.310078 58.851144 
" clip-path="url(#p39b771b021)" style="fill: none; stroke: #ededea; stroke-linecap: round"/>
     </g>
     <g id="text_13">
      <!-- 2500 -->
      <g style="fill: #262626" transform="translate(22.461953 62.855294) scale(0.11 -0.11)">
       <use xlink:href="#ArialMT-15"/>
       <use xlink:href="#ArialMT-18" transform="translate(55.609375 0)"/>
       <use xlink:href="#ArialMT-13" transform="translate(111.21875 0)"/>
       <use xlink:href="#ArialMT-13" transform="translate(166.828125 0)"/>
      </g>
     </g>
    </g>
    <g id="text_14">
     <!-- TWh per year -->
     <g style="fill: #262626" transform="translate(15.936328 192.152654) rotate(-90) scale(0.12 -0.12)">
      <defs>
       <path id="ArialMT-37" d="M 1659 0 
L 1659 4041 
L 150 4041 
L 150 4581 
L 3781 4581 
L 3781 4041 
L 2266 4041 
L 2266 0 
L 1659 0 
z
" transform="scale(0.015625)"/>
       <path id="ArialMT-3a" d="M 1294 0 
L 78 4581 
L 700 4581 
L 1397 1578 
Q 1509 1106 1591 641 
Q 1766 1375 1797 1488 
L 2669 4581 
L 3400 4581 
L 4056 2263 
Q 4303 1400 4413 641 
Q 4500 1075 4641 1638 
L 5359 4581 
L 5969 4581 
L 4713 0 
L 4128 0 
L 3163 3491 
Q 3041 3928 3019 4028 
Q 2947 3713 2884 3491 
L 1913 0 
L 1294 0 
z
" transform="scale(0.015625)"/>
       <path id="ArialMT-4b" d="M 422 0 
L 422 4581 
L 984 4581 
L 984 2938 
Q 1378 3394 1978 3394 
Q 2347 3394 2619 3248 
Q 2891 3103 3008 2847 
Q 3125 2591 3125 2103 
L 3125 0 
L 2563 0 
L 2563 2103 
Q 2563 2525 2380 2717 
Q 2197 2909 1863 2909 
Q 1613 2909 1392 2779 
Q 1172 2650 1078 2428 
Q 984 2206 984 1816 
L 984 0 
L 422 0 
z
" transform="scale(0.015625)"/>
       <path id="ArialMT-3" transform="scale(0.015625)"/>
       <path id="ArialMT-53" d="M 422 -1272 
L 422 3319 
L 934 3319 
L 934 2888 
Q 1116 3141 1344 3267 
Q 1572 3394 1897 3394 
Q 2322 3394 2647 3175 
Q 2972 2956 3137 2557 
Q 3303 2159 3303 1684 
Q 3303 1175 3120 767 
Q 2938 359 2589 142 
Q 2241 -75 1856 -75 
Q 1575 -75 1351 44 
Q 1128 163 984 344 
L 984 -1272 
L 422 -1272 
z
M 931 1641 
Q 931 1000 1190 694 
Q 1450 388 1819 388 
Q 2194 388 2461 705 
Q 2728 1022 2728 1688 
Q 2728 2322 2467 2637 
Q 2206 2953 1844 2953 
Q 1484 2953 1207 2617 
Q 931 2281 931 1641 
z
" transform="scale(0.015625)"/>
       <path id="ArialMT-48" d="M 2694 1069 
L 3275 997 
Q 3138 488 2766 206 
Q 2394 -75 1816 -75 
Q 1088 -75 661 373 
Q 234 822 234 1631 
Q 234 2469 665 2931 
Q 1097 3394 1784 3394 
Q 2450 3394 2872 2941 
Q 3294 2488 3294 1666 
Q 3294 1616 3291 1516 
L 816 1516 
Q 847 969 1125 678 
Q 1403 388 1819 388 
Q 2128 388 2347 550 
Q 2566 713 2694 1069 
z
M 847 1978 
L 2700 1978 
Q 2663 2397 2488 2606 
Q 2219 2931 1791 2931 
Q 1403 2931 1139 2672 
Q 875 2413 847 1978 
z
" transform="scale(0.015625)"/>
       <path id="ArialMT-55" d="M 416 0 
L 416 3319 
L 922 3319 
L 922 2816 
Q 1116 3169 1280 3281 
Q 1444 3394 1641 3394 
Q 1925 3394 2219 3213 
L 2025 2691 
Q 1819 2813 1613 2813 
Q 1428 2813 1281 2702 
Q 1134 2591 1072 2394 
Q 978 2094 978 1738 
L 978 0 
L 416 0 
z
" transform="scale(0.015625)"/>
       <path id="ArialMT-5c" d="M 397 -1278 
L 334 -750 
Q 519 -800 656 -800 
Q 844 -800 956 -737 
Q 1069 -675 1141 -563 
Q 1194 -478 1313 -144 
Q 1328 -97 1363 -6 
L 103 3319 
L 709 3319 
L 1400 1397 
Q 1534 1031 1641 628 
Q 1738 1016 1872 1384 
L 2581 3319 
L 3144 3319 
L 1881 -56 
Q 1678 -603 1566 -809 
Q 1416 -1088 1222 -1217 
Q 1028 -1347 759 -1347 
Q 597 -1347 397 -1278 
z
" transform="scale(0.015625)"/>
       <path id="ArialMT-44" d="M 2588 409 
Q 2275 144 1986 34 
Q 1697 -75 1366 -75 
Q 819 -75 525 192 
Q 231 459 231 875 
Q 231 1119 342 1320 
Q 453 1522 633 1644 
Q 813 1766 1038 1828 
Q 1203 1872 1538 1913 
Q 2219 1994 2541 2106 
Q 2544 2222 2544 2253 
Q 2544 2597 2384 2738 
Q 2169 2928 1744 2928 
Q 1347 2928 1158 2789 
Q 969 2650 878 2297 
L 328 2372 
Q 403 2725 575 2942 
Q 747 3159 1072 3276 
Q 1397 3394 1825 3394 
Q 2250 3394 2515 3294 
Q 2781 3194 2906 3042 
Q 3031 2891 3081 2659 
Q 3109 2516 3109 2141 
L 3109 1391 
Q 3109 606 3145 398 
Q 3181 191 3288 0 
L 2700 0 
Q 2613 175 2588 409 
z
M 2541 1666 
Q 2234 1541 1622 1453 
Q 1275 1403 1131 1340 
Q 988 1278 909 1158 
Q 831 1038 831 891 
Q 831 666 1001 516 
Q 1172 366 1500 366 
Q 1825 366 2078 508 
Q 2331 650 2450 897 
Q 2541 1088 2541 1459 
L 2541 1666 
z
" transform="scale(0.015625)"/>
      </defs>
      <use xlink:href="#ArialMT-37"/>
      <use xlink:href="#ArialMT-3a" transform="translate(61.078125 0)"/>
      <use xlink:href="#ArialMT-4b" transform="translate(155.46875 0)"/>
      <use xlink:href="#ArialMT-3" transform="translate(211.078125 0)"/>
      <use xlink:href="#ArialMT-53" transform="translate(238.859375 0)"/>
      <use xlink:href="#ArialMT-48" transform="translate(294.46875 0)"/>
      <use xlink:href="#ArialMT-55" transform="translate(350.078125 0)"/>
      <use xlink:href="#ArialMT-3" transform="translate(383.375 0)"/>
      <use xlink:href="#ArialMT-5c" transform="translate(411.15625 0)"/>
      <use xlink:href="#ArialMT-48" transform="translate(461.15625 0)"/>
      <use xlink:href="#ArialMT-44" transform="translate(516.765625 0)"/>
      <use xlink:href="#ArialMT-55" transform="translate(572.375 0)"/>
     </g>
    </g>
   </g>
   <g id="FillBetweenPolyCollection_1">
    <defs>
     <path id="mcb9de136e0" d="M 56.430078 -149.585608 
L 56.430078 -27.023242 
L 63.095078 -27.023242 
L 69.760078 -27.023242 
L 76.425078 -27.023242 
L 83.090078 -27.023242 
L 89.755078 -27.023242 
L 96.420078 -27.023242 
L 103.085078 -27.023242 
L 109.750078 -27.023242 
L 116.415078 -27.023242 
L 123.080078 -27.023242 
L 129.745078 -27.023242 
L 136.410078 -27.023242 
L 143.075078 -27.023242 
L 149.740078 -27.023242 
L 156.405078 -27.023242 
L 163.070078 -27.023242 
L 169.735078 -27.023242 
L 176.400078 -27.023242 
L 183.065078 -27.023242 
L 189.730078 -27.023242 
L 196.395078 -27.023242 
L 203.060078 -27.023242 
L 209.725078 -27.023242 
L 216.390078 -27.023242 
L 223.055078 -27.023242 
L 229.720078 -27.023242 
L 236.385078 -27.023242 
L 243.050078 -27.023242 
L 249.715078 -27.023242 
L 256.380078 -27.023242 
L 263.045078 -27.023242 
L 269.710078 -27.023242 
L 276.375078 -27.023242 
L 283.040078 -27.023242 
L 289.705078 -27.023242 
L 296.370078 -27.023242 
L 303.035078 -27.023242 
L 309.700078 -27.023242 
L 316.365078 -27.023242 
L 323.030078 -27.023242 
L 329.695078 -27.023242 
L 336.360078 -27.023242 
L 343.025078 -27.023242 
L 349.690078 -27.023242 
L 356.355078 -27.023242 
L 363.020078 -27.023242 
L 369.685078 -27.023242 
L 376.350078 -27.023242 
L 383.015078 -27.023242 
L 389.680078 -27.023242 
L 396.345078 -27.023242 
L 403.010078 -27.023242 
L 409.675078 -27.023242 
L 416.340078 -27.023242 
L 423.005078 -27.023242 
L 429.670078 -27.023242 
L 436.335078 -27.023242 
L 443.000078 -27.023242 
L 449.665078 -27.023242 
L 449.665078 -31.243338 
L 449.665078 -31.243338 
L 443.000078 -31.602495 
L 436.335078 -32.32081 
L 429.670078 -32.769756 
L 423.005078 -32.679967 
L 416.340078 -33.218702 
L 409.675078 -35.643013 
L 403.010078 -37.25922 
L 396.345078 -39.683531 
L 389.680078 -51.894873 
L 383.015078 -58.539279 
L 376.350078 -66.081579 
L 369.685078 -67.518207 
L 363.020078 -59.167804 
L 356.355078 -58.898436 
L 349.690078 -58.180122 
L 343.025078 -64.734739 
L 336.360078 -67.697786 
L 329.695078 -70.211885 
L 323.030078 -66.530525 
L 316.365078 -65.902 
L 309.700078 -66.799893 
L 303.035078 -64.285793 
L 296.370078 -67.697786 
L 289.705078 -65.363264 
L 283.040078 -62.849165 
L 276.375078 -67.338629 
L 269.710078 -68.326311 
L 263.045078 -73.35451 
L 256.380078 -76.586924 
L 249.715078 -78.921446 
L 243.050078 -82.602806 
L 236.385078 -90.86342 
L 229.720078 -94.993726 
L 223.055078 -94.814148 
L 216.390078 -94.903937 
L 209.725078 -97.507826 
L 203.060078 -99.662769 
L 196.395078 -97.956773 
L 189.730078 -92.659205 
L 183.065078 -76.407346 
L 176.400078 -96.520144 
L 169.735078 -95.891619 
L 163.070078 -100.83003 
L 156.405078 -101.189187 
L 149.740078 -106.845911 
L 143.075078 -101.278976 
L 136.410078 -103.25434 
L 129.745078 -102.984972 
L 123.080078 -101.727922 
L 116.415078 -101.278976 
L 109.750078 -111.335375 
L 103.085078 -104.870547 
L 96.420078 -115.914629 
L 89.755078 -127.317867 
L 83.090078 -133.333749 
L 76.425078 -136.117216 
L 69.760078 -136.027427 
L 63.095078 -143.659516 
L 56.430078 -149.585608 
z
" style="stroke: #ffffff; stroke-width: 0.7"/>
    </defs>
    <g clip-path="url(#p39b771b021)">
     <use xlink:href="#mcb9de136e0" x="0" y="310.347584" style="fill: #3f3f46; stroke: #ffffff; stroke-width: 0.7"/>
    </g>
   </g>
   <g id="FillBetweenPolyCollection_2">
    <defs>
     <path id="ma7af1eefdb" d="M 56.430078 -229.138909 
L 56.430078 -149.585608 
L 63.095078 -143.659516 
L 69.760078 -136.027427 
L 76.425078 -136.117216 
L 83.090078 -133.333749 
L 89.755078 -127.317867 
L 96.420078 -115.914629 
L 103.085078 -104.870547 
L 109.750078 -111.335375 
L 116.415078 -101.278976 
L 123.080078 -101.727922 
L 129.745078 -102.984972 
L 136.410078 -103.25434 
L 143.075078 -101.278976 
L 149.740078 -106.845911 
L 156.405078 -101.189187 
L 163.070078 -100.83003 
L 169.735078 -95.891619 
L 176.400078 -96.520144 
L 183.065078 -76.407346 
L 189.730078 -92.659205 
L 196.395078 -97.956773 
L 203.060078 -99.662769 
L 209.725078 -97.507826 
L 216.390078 -94.903937 
L 223.055078 -94.814148 
L 229.720078 -94.993726 
L 236.385078 -90.86342 
L 243.050078 -82.602806 
L 249.715078 -78.921446 
L 256.380078 -76.586924 
L 263.045078 -73.35451 
L 269.710078 -68.326311 
L 276.375078 -67.338629 
L 283.040078 -62.849165 
L 289.705078 -65.363264 
L 296.370078 -67.697786 
L 303.035078 -64.285793 
L 309.700078 -66.799893 
L 316.365078 -65.902 
L 323.030078 -66.530525 
L 329.695078 -70.211885 
L 336.360078 -67.697786 
L 343.025078 -64.734739 
L 349.690078 -58.180122 
L 356.355078 -58.898436 
L 363.020078 -59.167804 
L 369.685078 -67.518207 
L 376.350078 -66.081579 
L 383.015078 -58.539279 
L 389.680078 -51.894873 
L 396.345078 -39.683531 
L 403.010078 -37.25922 
L 409.675078 -35.643013 
L 416.340078 -33.218702 
L 423.005078 -32.679967 
L 429.670078 -32.769756 
L 436.335078 -32.32081 
L 443.000078 -31.602495 
L 449.665078 -31.243338 
L 449.665078 -98.046562 
L 449.665078 -98.046562 
L 443.000078 -98.136351 
L 436.335078 -97.866983 
L 429.670078 -93.916255 
L 423.005078 -92.569416 
L 416.340078 -109.180433 
L 409.675078 -113.849475 
L 403.010078 -116.632943 
L 396.345078 -118.15936 
L 389.680078 -128.21576 
L 383.015078 -133.872484 
L 376.350078 -141.504573 
L 369.685078 -143.749305 
L 363.020078 -137.194688 
L 356.355078 -138.990473 
L 349.690078 -139.259841 
L 343.025078 -149.495819 
L 336.360078 -154.254651 
L 329.695078 -159.28285 
L 323.030078 -156.499383 
L 316.365078 -153.356758 
L 309.700078 -151.920129 
L 303.035078 -148.687715 
L 296.370078 -152.818022 
L 289.705078 -150.842658 
L 283.040078 -149.226451 
L 276.375078 -154.883176 
L 269.710078 -156.768751 
L 263.045078 -164.490629 
L 256.380078 -165.478311 
L 249.715078 -168.890303 
L 243.050078 -173.469556 
L 236.385078 -181.281224 
L 229.720078 -184.423848 
L 223.055078 -184.693216 
L 216.390078 -183.615745 
L 209.725078 -184.334059 
L 203.060078 -181.281224 
L 196.395078 -181.819959 
L 189.730078 -176.342813 
L 183.065078 -172.751242 
L 176.400078 -174.906185 
L 169.735078 -177.420285 
L 163.070078 -181.371013 
L 156.405078 -188.194998 
L 149.740078 -208.577165 
L 143.075078 -202.112336 
L 136.410078 -201.573601 
L 129.745078 -200.496129 
L 123.080078 -199.777815 
L 116.415078 -213.425786 
L 109.750078 -232.101956 
L 103.085078 -222.494503 
L 96.420078 -226.804388 
L 89.755078 -237.668891 
L 83.090078 -237.489312 
L 76.425078 -232.999848 
L 69.760078 -227.612492 
L 63.095078 -228.869542 
L 56.430078 -229.138909 
z
" style="stroke: #ffffff; stroke-width: 0.7"/>
    </defs>
    <g clip-path="url(#p39b771b021)">
     <use xlink:href="#ma7af1eefdb" x="0" y="310.347584" style="fill: #2a78d6; stroke: #ffffff; stroke-width: 0.7"/>
    </g>
   </g>
   <g id="FillBetweenPolyCollection_3">
    <defs>
     <path id="m37c8355714" d="M 56.430078 -229.947013 
L 56.430078 -229.138909 
L 63.095078 -228.869542 
L 69.760078 -227.612492 
L 76.425078 -232.999848 
L 83.090078 -237.489312 
L 89.755078 -237.668891 
L 96.420078 -226.804388 
L 103.085078 -222.494503 
L 109.750078 -232.101956 
L 116.415078 -213.425786 
L 123.080078 -199.777815 
L 129.745078 -200.496129 
L 136.410078 -201.573601 
L 143.075078 -202.112336 
L 149.740078 -208.577165 
L 156.405078 -188.194998 
L 163.070078 -181.371013 
L 169.735078 -177.420285 
L 176.400078 -174.906185 
L 183.065078 -172.751242 
L 189.730078 -176.342813 
L 196.395078 -181.819959 
L 203.060078 -181.281224 
L 209.725078 -184.334059 
L 216.390078 -183.615745 
L 223.055078 -184.693216 
L 229.720078 -184.423848 
L 236.385078 -181.281224 
L 243.050078 -173.469556 
L 249.715078 -168.890303 
L 256.380078 -165.478311 
L 263.045078 -164.490629 
L 269.710078 -156.768751 
L 276.375078 -154.883176 
L 283.040078 -149.226451 
L 289.705078 -150.842658 
L 296.370078 -152.818022 
L 303.035078 -148.687715 
L 309.700078 -151.920129 
L 316.365078 -153.356758 
L 323.030078 -156.499383 
L 329.695078 -159.28285 
L 336.360078 -154.254651 
L 343.025078 -149.495819 
L 349.690078 -139.259841 
L 356.355078 -138.990473 
L 363.020078 -137.194688 
L 369.685078 -143.749305 
L 376.350078 -141.504573 
L 383.015078 -133.872484 
L 389.680078 -128.21576 
L 396.345078 -118.15936 
L 403.010078 -116.632943 
L 409.675078 -113.849475 
L 416.340078 -109.180433 
L 423.005078 -92.569416 
L 429.670078 -93.916255 
L 436.335078 -97.866983 
L 443.000078 -98.136351 
L 449.665078 -98.046562 
L 449.665078 -153.626126 
L 449.665078 -153.626126 
L 443.000078 -155.242333 
L 436.335078 -161.168425 
L 429.670078 -163.054 
L 423.005078 -158.564536 
L 416.340078 -179.126281 
L 409.675078 -184.603427 
L 403.010078 -186.848159 
L 396.345078 -189.900994 
L 389.680078 -192.864041 
L 383.015078 -196.814769 
L 376.350078 -210.013793 
L 369.685078 -212.797261 
L 363.020078 -210.732107 
L 356.355078 -227.432913 
L 349.690078 -221.147664 
L 343.025078 -237.309734 
L 336.360078 -239.823834 
L 329.695078 -243.954141 
L 323.030078 -245.749926 
L 316.365078 -244.941823 
L 309.700078 -241.52983 
L 303.035078 -238.028048 
L 296.370078 -243.415405 
L 289.705078 -241.799198 
L 283.040078 -237.130155 
L 276.375078 -237.399523 
L 269.710078 -236.142473 
L 263.045078 -241.709409 
L 256.380078 -231.742799 
L 249.715078 -231.024484 
L 243.050078 -233.807952 
L 236.385078 -234.256898 
L 229.720078 -237.668891 
L 223.055078 -233.987531 
L 216.390078 -230.934695 
L 209.725078 -232.730481 
L 203.060078 -232.101956 
L 196.395078 -231.293852 
L 189.730078 -225.008603 
L 183.065078 -218.005039 
L 176.400078 -219.172299 
L 169.735078 -219.890614 
L 163.070078 -224.020921 
L 156.405078 -230.30617 
L 149.740078 -250.778126 
L 143.075078 -240.631937 
L 136.410078 -238.746362 
L 129.745078 -235.424159 
L 123.080078 -232.730481 
L 116.415078 -244.852033 
L 109.750078 -258.410214 
L 103.085078 -246.827397 
L 96.420078 -243.954141 
L 89.755078 -248.264026 
L 83.090078 -243.056248 
L 76.425078 -235.873105 
L 69.760078 -228.869542 
L 63.095078 -229.587856 
L 56.430078 -229.947013 
z
" style="stroke: #ffffff; stroke-width: 0.7"/>
    </defs>
    <g clip-path="url(#p39b771b021)">
     <use xlink:href="#m37c8355714" x="0" y="310.347584" style="fill: #eb6834; stroke: #ffffff; stroke-width: 0.7"/>
    </g>
   </g>
   <g id="FillBetweenPolyCollection_4">
    <defs>
     <path id="m0ceda5ce46" d="M 56.430078 -233.718163 
L 56.430078 -229.947013 
L 63.095078 -229.587856 
L 69.760078 -228.869542 
L 76.425078 -235.873105 
L 83.090078 -243.056248 
L 89.755078 -248.264026 
L 96.420078 -243.954141 
L 103.085078 -246.827397 
L 109.750078 -258.410214 
L 116.415078 -244.852033 
L 123.080078 -232.730481 
L 129.745078 -235.424159 
L 136.410078 -238.746362 
L 143.075078 -240.631937 
L 149.740078 -250.778126 
L 156.405078 -230.30617 
L 163.070078 -224.020921 
L 169.735078 -219.890614 
L 176.400078 -219.172299 
L 183.065078 -218.005039 
L 189.730078 -225.008603 
L 196.395078 -231.293852 
L 203.060078 -232.101956 
L 209.725078 -232.730481 
L 216.390078 -230.934695 
L 223.055078 -233.987531 
L 229.720078 -237.668891 
L 236.385078 -234.256898 
L 243.050078 -233.807952 
L 249.715078 -231.024484 
L 256.380078 -231.742799 
L 263.045078 -241.709409 
L 269.710078 -236.142473 
L 276.375078 -237.399523 
L 283.040078 -237.130155 
L 289.705078 -241.799198 
L 296.370078 -243.415405 
L 303.035078 -238.028048 
L 309.700078 -241.52983 
L 316.365078 -244.941823 
L 323.030078 -245.749926 
L 329.695078 -243.954141 
L 336.360078 -239.823834 
L 343.025078 -237.309734 
L 349.690078 -221.147664 
L 356.355078 -227.432913 
L 363.020078 -210.732107 
L 369.685078 -212.797261 
L 376.350078 -210.013793 
L 383.015078 -196.814769 
L 389.680078 -192.864041 
L 396.345078 -189.900994 
L 403.010078 -186.848159 
L 409.675078 -184.603427 
L 416.340078 -179.126281 
L 423.005078 -158.564536 
L 429.670078 -163.054 
L 436.335078 -161.168425 
L 443.000078 -155.242333 
L 449.665078 -153.626126 
L 449.665078 -162.515264 
L 449.665078 -162.515264 
L 443.000078 -164.131471 
L 436.335078 -171.583982 
L 429.670078 -173.289978 
L 423.005078 -169.698407 
L 416.340078 -191.606991 
L 409.675078 -199.14929 
L 403.010078 -202.651072 
L 396.345078 -206.063065 
L 389.680078 -208.846532 
L 383.015078 -211.360632 
L 376.350078 -226.265653 
L 369.685078 -229.04912 
L 363.020078 -226.804388 
L 356.355078 -241.978776 
L 349.690078 -237.399523 
L 343.025078 -249.700654 
L 336.360078 -254.908433 
L 329.695078 -262.091575 
L 323.030078 -265.413778 
L 316.365078 -264.426096 
L 309.700078 -263.258836 
L 303.035078 -259.667264 
L 296.370078 -265.772935 
L 289.705078 -262.989468 
L 283.040078 -260.834525 
L 276.375078 -262.181364 
L 269.710078 -260.654946 
L 263.045078 -265.323989 
L 256.380078 -253.920751 
L 249.715078 -253.022858 
L 243.050078 -256.075693 
L 236.385078 -253.382015 
L 229.720078 -255.26759 
L 223.055078 -250.418969 
L 216.390078 -248.802762 
L 209.725078 -248.533394 
L 203.060078 -245.839715 
L 196.395078 -246.019294 
L 189.730078 -240.27278 
L 183.065078 -231.473431 
L 176.400078 -231.653009 
L 169.735078 -230.844906 
L 163.070078 -233.448795 
L 156.405078 -239.554466 
L 149.740078 -260.295789 
L 143.075078 -249.880233 
L 136.410078 -248.712972 
L 129.745078 -244.403087 
L 123.080078 -240.27278 
L 116.415078 -253.202436 
L 109.750078 -265.413778 
L 103.085078 -254.190118 
L 96.420078 -250.867915 
L 89.755078 -254.728854 
L 83.090078 -250.329179 
L 76.425078 -242.427723 
L 69.760078 -234.705845 
L 63.095078 -234.616055 
L 56.430078 -233.718163 
z
" style="stroke: #ffffff; stroke-width: 0.7"/>
    </defs>
    <g clip-path="url(#p39b771b021)">
     <use xlink:href="#m0ceda5ce46" x="0" y="310.347584" style="fill: #4a3aa7; stroke: #ffffff; stroke-width: 0.7"/>
    </g>
   </g>
   <g id="FillBetweenPolyCollection_5">
    <defs>
     <path id="m741e49f3bf" d="M 56.430078 -234.885423 
L 56.430078 -233.718163 
L 63.095078 -234.616055 
L 69.760078 -234.705845 
L 76.425078 -242.427723 
L 83.090078 -250.329179 
L 89.755078 -254.728854 
L 96.420078 -250.867915 
L 103.085078 -254.190118 
L 109.750078 -265.413778 
L 116.415078 -253.202436 
L 123.080078 -240.27278 
L 129.745078 -244.403087 
L 136.410078 -248.712972 
L 143.075078 -249.880233 
L 149.740078 -260.295789 
L 156.405078 -239.554466 
L 163.070078 -233.448795 
L 169.735078 -230.844906 
L 176.400078 -231.653009 
L 183.065078 -231.473431 
L 189.730078 -240.27278 
L 196.395078 -246.019294 
L 203.060078 -245.839715 
L 209.725078 -248.533394 
L 216.390078 -248.802762 
L 223.055078 -250.418969 
L 229.720078 -255.26759 
L 236.385078 -253.382015 
L 243.050078 -256.075693 
L 249.715078 -253.022858 
L 256.380078 -253.920751 
L 263.045078 -265.323989 
L 269.710078 -260.654946 
L 276.375078 -262.181364 
L 283.040078 -260.834525 
L 289.705078 -262.989468 
L 296.370078 -265.772935 
L 303.035078 -259.667264 
L 309.700078 -263.258836 
L 316.365078 -264.426096 
L 323.030078 -265.413778 
L 329.695078 -262.091575 
L 336.360078 -254.908433 
L 343.025078 -249.700654 
L 349.690078 -237.399523 
L 356.355078 -241.978776 
L 363.020078 -226.804388 
L 369.685078 -229.04912 
L 376.350078 -226.265653 
L 383.015078 -211.360632 
L 389.680078 -208.846532 
L 396.345078 -206.063065 
L 403.010078 -202.651072 
L 409.675078 -199.14929 
L 416.340078 -191.606991 
L 423.005078 -169.698407 
L 429.670078 -173.289978 
L 436.335078 -171.583982 
L 443.000078 -164.131471 
L 449.665078 -162.515264 
L 449.665078 -199.14929 
L 449.665078 -199.14929 
L 443.000078 -198.341187 
L 436.335078 -205.703908 
L 429.670078 -204.267279 
L 423.005078 -203.279597 
L 416.340078 -222.225135 
L 409.675078 -227.163545 
L 403.010078 -227.612492 
L 396.345078 -227.432913 
L 389.680078 -230.30617 
L 383.015078 -228.510385 
L 376.350078 -240.452359 
L 369.685078 -239.374887 
L 363.020078 -235.693527 
L 356.355078 -248.712972 
L 349.690078 -243.864351 
L 343.025078 -256.165482 
L 336.360078 -260.385579 
L 329.695078 -267.029985 
L 323.030078 -269.903242 
L 316.365078 -268.197246 
L 309.700078 -266.132092 
L 303.035078 -262.540521 
L 296.370078 -268.287035 
L 289.705078 -265.593357 
L 283.040078 -263.348625 
L 276.375078 -264.426096 
L 269.710078 -262.540521 
L 263.045078 -266.760617 
L 256.380078 -255.626747 
L 249.715078 -254.818643 
L 243.050078 -257.512322 
L 236.385078 -254.998222 
L 229.720078 -256.614429 
L 223.055078 -251.855597 
L 216.390078 -249.970022 
L 209.725078 -249.790444 
L 203.060078 -246.917187 
L 196.395078 -247.186555 
L 189.730078 -241.260462 
L 183.065078 -232.640691 
L 176.400078 -232.82027 
L 169.735078 -232.012166 
L 163.070078 -234.526266 
L 156.405078 -240.542148 
L 149.740078 -261.373261 
L 143.075078 -250.867915 
L 136.410078 -249.700654 
L 129.745078 -245.570348 
L 123.080078 -241.260462 
L 116.415078 -254.190118 
L 109.750078 -266.40146 
L 103.085078 -254.998222 
L 96.420078 -251.676019 
L 89.755078 -255.896115 
L 83.090078 -251.137283 
L 76.425078 -243.325616 
L 69.760078 -235.962895 
L 63.095078 -235.783316 
L 56.430078 -234.885423 
z
" style="stroke: #ffffff; stroke-width: 0.7"/>
    </defs>
    <g clip-path="url(#p39b771b021)">
     <use xlink:href="#m741e49f3bf" x="0" y="310.347584" style="fill: #1baf7a; stroke: #ffffff; stroke-width: 0.7"/>
    </g>
   </g>
   <g id="patch_3">
    <path d="M 56.430078 283.324342 
L 56.430078 28.300342 
" style="fill: none; stroke: #c9c9c4; stroke-width: 1.25; stroke-linejoin: miter; stroke-linecap: square"/>
   </g>
   <g id="patch_4">
    <path d="M 56.430078 283.324342 
L 536.310078 283.324342 
" style="fill: none; stroke: #c9c9c4; stroke-width: 1.25; stroke-linejoin: miter; stroke-linecap: square"/>
   </g>
   <g id="text_15">
    <!-- Coal -->
    <g style="fill: #3f3f46" transform="translate(457.663078 283.67279) scale(0.095 -0.095)">
     <defs>
      <path id="ArialMT-26" d="M 3763 1606 
L 4369 1453 
Q 4178 706 3683 314 
Q 3188 -78 2472 -78 
Q 1731 -78 1267 223 
Q 803 525 561 1097 
Q 319 1669 319 2325 
Q 319 3041 592 3573 
Q 866 4106 1370 4382 
Q 1875 4659 2481 4659 
Q 3169 4659 3637 4309 
Q 4106 3959 4291 3325 
L 3694 3184 
Q 3534 3684 3231 3912 
Q 2928 4141 2469 4141 
Q 1941 4141 1586 3887 
Q 1231 3634 1087 3207 
Q 944 2781 944 2328 
Q 944 1744 1114 1308 
Q 1284 872 1643 656 
Q 2003 441 2422 441 
Q 2931 441 3284 734 
Q 3638 1028 3763 1606 
z
" transform="scale(0.015625)"/>
      <path id="ArialMT-52" d="M 213 1659 
Q 213 2581 725 3025 
Q 1153 3394 1769 3394 
Q 2453 3394 2887 2945 
Q 3322 2497 3322 1706 
Q 3322 1066 3130 698 
Q 2938 331 2570 128 
Q 2203 -75 1769 -75 
Q 1072 -75 642 372 
Q 213 819 213 1659 
z
M 791 1659 
Q 791 1022 1069 705 
Q 1347 388 1769 388 
Q 2188 388 2466 706 
Q 2744 1025 2744 1678 
Q 2744 2294 2464 2611 
Q 2184 2928 1769 2928 
Q 1347 2928 1069 2612 
Q 791 2297 791 1659 
z
" transform="scale(0.015625)"/>
      <path id="ArialMT-4f" d="M 409 0 
L 409 4581 
L 972 4581 
L 972 0 
L 409 0 
z
" transform="scale(0.015625)"/>
     </defs>
     <use xlink:href="#ArialMT-26"/>
     <use xlink:href="#ArialMT-52" transform="translate(72.21875 0)"/>
     <use xlink:href="#ArialMT-44" transform="translate(127.828125 0)"/>
     <use xlink:href="#ArialMT-4f" transform="translate(183.4375 0)"/>
    </g>
   </g>
   <g id="text_16">
    <!-- Oil -->
    <g style="fill: #2a78d6" transform="translate(457.663078 248.16382) scale(0.095 -0.095)">
     <defs>
      <path id="ArialMT-32" d="M 309 2231 
Q 309 3372 921 4017 
Q 1534 4663 2503 4663 
Q 3138 4663 3647 4359 
Q 4156 4056 4423 3514 
Q 4691 2972 4691 2284 
Q 4691 1588 4409 1038 
Q 4128 488 3612 205 
Q 3097 -78 2500 -78 
Q 1853 -78 1343 234 
Q 834 547 571 1087 
Q 309 1628 309 2231 
z
M 934 2222 
Q 934 1394 1379 917 
Q 1825 441 2497 441 
Q 3181 441 3623 922 
Q 4066 1403 4066 2288 
Q 4066 2847 3877 3264 
Q 3688 3681 3323 3911 
Q 2959 4141 2506 4141 
Q 1863 4141 1398 3698 
Q 934 3256 934 2222 
z
" transform="scale(0.015625)"/>
      <path id="ArialMT-4c" d="M 425 3934 
L 425 4581 
L 988 4581 
L 988 3934 
L 425 3934 
z
M 425 0 
L 425 3319 
L 988 3319 
L 988 0 
L 425 0 
z
" transform="scale(0.015625)"/>
     </defs>
     <use xlink:href="#ArialMT-32"/>
     <use xlink:href="#ArialMT-4c" transform="translate(77.78125 0)"/>
     <use xlink:href="#ArialMT-4f" transform="translate(100 0)"/>
    </g>
   </g>
   <g id="text_17">
    <!-- Gas -->
    <g style="fill: #eb6834" transform="translate(457.663078 186.969736) scale(0.095 -0.095)">
     <defs>
      <path id="ArialMT-2a" d="M 2638 1797 
L 2638 2334 
L 4578 2338 
L 4578 638 
Q 4131 281 3656 101 
Q 3181 -78 2681 -78 
Q 2006 -78 1454 211 
Q 903 500 622 1047 
Q 341 1594 341 2269 
Q 341 2938 620 3517 
Q 900 4097 1425 4378 
Q 1950 4659 2634 4659 
Q 3131 4659 3532 4498 
Q 3934 4338 4162 4050 
Q 4391 3763 4509 3300 
L 3963 3150 
Q 3859 3500 3706 3700 
Q 3553 3900 3268 4020 
Q 2984 4141 2638 4141 
Q 2222 4141 1919 4014 
Q 1616 3888 1430 3681 
Q 1244 3475 1141 3228 
Q 966 2803 966 2306 
Q 966 1694 1177 1281 
Q 1388 869 1791 669 
Q 2194 469 2647 469 
Q 3041 469 3416 620 
Q 3791 772 3984 944 
L 3984 1797 
L 2638 1797 
z
" transform="scale(0.015625)"/>
      <path id="ArialMT-56" d="M 197 991 
L 753 1078 
Q 800 744 1014 566 
Q 1228 388 1613 388 
Q 2000 388 2187 545 
Q 2375 703 2375 916 
Q 2375 1106 2209 1216 
Q 2094 1291 1634 1406 
Q 1016 1563 777 1677 
Q 538 1791 414 1992 
Q 291 2194 291 2438 
Q 291 2659 392 2848 
Q 494 3038 669 3163 
Q 800 3259 1026 3326 
Q 1253 3394 1513 3394 
Q 1903 3394 2198 3281 
Q 2494 3169 2634 2976 
Q 2775 2784 2828 2463 
L 2278 2388 
Q 2241 2644 2061 2787 
Q 1881 2931 1553 2931 
Q 1166 2931 1000 2803 
Q 834 2675 834 2503 
Q 834 2394 903 2306 
Q 972 2216 1119 2156 
Q 1203 2125 1616 2013 
Q 2213 1853 2448 1751 
Q 2684 1650 2818 1456 
Q 2953 1263 2953 975 
Q 2953 694 2789 445 
Q 2625 197 2315 61 
Q 2006 -75 1616 -75 
Q 969 -75 630 194 
Q 291 463 197 991 
z
" transform="scale(0.015625)"/>
     </defs>
     <use xlink:href="#ArialMT-2a"/>
     <use xlink:href="#ArialMT-44" transform="translate(77.78125 0)"/>
     <use xlink:href="#ArialMT-56" transform="translate(133.390625 0)"/>
    </g>
   </g>
   <g id="text_18">
    <!-- Nuclear -->
    <g style="fill: #4a3aa7" transform="translate(457.663078 154.735385) scale(0.095 -0.095)">
     <defs>
      <path id="ArialMT-31" d="M 488 0 
L 488 4581 
L 1109 4581 
L 3516 984 
L 3516 4581 
L 4097 4581 
L 4097 0 
L 3475 0 
L 1069 3600 
L 1069 0 
L 488 0 
z
" transform="scale(0.015625)"/>
      <path id="ArialMT-58" d="M 2597 0 
L 2597 488 
Q 2209 -75 1544 -75 
Q 1250 -75 995 37 
Q 741 150 617 320 
Q 494 491 444 738 
Q 409 903 409 1263 
L 409 3319 
L 972 3319 
L 972 1478 
Q 972 1038 1006 884 
Q 1059 663 1231 536 
Q 1403 409 1656 409 
Q 1909 409 2131 539 
Q 2353 669 2445 892 
Q 2538 1116 2538 1541 
L 2538 3319 
L 3100 3319 
L 3100 0 
L 2597 0 
z
" transform="scale(0.015625)"/>
      <path id="ArialMT-46" d="M 2588 1216 
L 3141 1144 
Q 3050 572 2676 248 
Q 2303 -75 1759 -75 
Q 1078 -75 664 370 
Q 250 816 250 1647 
Q 250 2184 428 2587 
Q 606 2991 970 3192 
Q 1334 3394 1763 3394 
Q 2303 3394 2647 3120 
Q 2991 2847 3088 2344 
L 2541 2259 
Q 2463 2594 2264 2762 
Q 2066 2931 1784 2931 
Q 1359 2931 1093 2626 
Q 828 2322 828 1663 
Q 828 994 1084 691 
Q 1341 388 1753 388 
Q 2084 388 2306 591 
Q 2528 794 2588 1216 
z
" transform="scale(0.015625)"/>
     </defs>
     <use xlink:href="#ArialMT-31"/>
     <use xlink:href="#ArialMT-58" transform="translate(72.21875 0)"/>
     <use xlink:href="#ArialMT-46" transform="translate(127.828125 0)"/>
     <use xlink:href="#ArialMT-4f" transform="translate(177.828125 0)"/>
     <use xlink:href="#ArialMT-48" transform="translate(200.046875 0)"/>
     <use xlink:href="#ArialMT-44" transform="translate(255.65625 0)"/>
     <use xlink:href="#ArialMT-55" transform="translate(311.265625 0)"/>
    </g>
   </g>
   <g id="text_19">
    <!-- Renewables -->
    <g style="fill: #1baf7a" transform="translate(457.663078 131.973803) scale(0.095 -0.095)">
     <defs>
      <path id="ArialMT-35" d="M 503 0 
L 503 4581 
L 2534 4581 
Q 3147 4581 3465 4457 
Q 3784 4334 3975 4021 
Q 4166 3709 4166 3331 
Q 4166 2844 3850 2509 
Q 3534 2175 2875 2084 
Q 3116 1969 3241 1856 
Q 3506 1613 3744 1247 
L 4541 0 
L 3778 0 
L 3172 953 
Q 2906 1366 2734 1584 
Q 2563 1803 2427 1890 
Q 2291 1978 2150 2013 
Q 2047 2034 1813 2034 
L 1109 2034 
L 1109 0 
L 503 0 
z
M 1109 2559 
L 2413 2559 
Q 2828 2559 3062 2645 
Q 3297 2731 3419 2920 
Q 3541 3109 3541 3331 
Q 3541 3656 3305 3865 
Q 3069 4075 2559 4075 
L 1109 4075 
L 1109 2559 
z
" transform="scale(0.015625)"/>
      <path id="ArialMT-51" d="M 422 0 
L 422 3319 
L 928 3319 
L 928 2847 
Q 1294 3394 1984 3394 
Q 2284 3394 2536 3286 
Q 2788 3178 2913 3003 
Q 3038 2828 3088 2588 
Q 3119 2431 3119 2041 
L 3119 0 
L 2556 0 
L 2556 2019 
Q 2556 2363 2490 2533 
Q 2425 2703 2258 2804 
Q 2091 2906 1866 2906 
Q 1506 2906 1245 2678 
Q 984 2450 984 1813 
L 984 0 
L 422 0 
z
" transform="scale(0.015625)"/>
      <path id="ArialMT-5a" d="M 1034 0 
L 19 3319 
L 600 3319 
L 1128 1403 
L 1325 691 
Q 1338 744 1497 1375 
L 2025 3319 
L 2603 3319 
L 3100 1394 
L 3266 759 
L 3456 1400 
L 4025 3319 
L 4572 3319 
L 3534 0 
L 2950 0 
L 2422 1988 
L 2294 2553 
L 1622 0 
L 1034 0 
z
" transform="scale(0.015625)"/>
      <path id="ArialMT-45" d="M 941 0 
L 419 0 
L 419 4581 
L 981 4581 
L 981 2947 
Q 1338 3394 1891 3394 
Q 2197 3394 2470 3270 
Q 2744 3147 2920 2923 
Q 3097 2700 3197 2384 
Q 3297 2069 3297 1709 
Q 3297 856 2875 390 
Q 2453 -75 1863 -75 
Q 1275 -75 941 416 
L 941 0 
z
M 934 1684 
Q 934 1088 1097 822 
Q 1363 388 1816 388 
Q 2184 388 2453 708 
Q 2722 1028 2722 1663 
Q 2722 2313 2464 2622 
Q 2206 2931 1841 2931 
Q 1472 2931 1203 2611 
Q 934 2291 934 1684 
z
" transform="scale(0.015625)"/>
     </defs>
     <use xlink:href="#ArialMT-35"/>
     <use xlink:href="#ArialMT-48" transform="translate(72.21875 0)"/>
     <use xlink:href="#ArialMT-51" transform="translate(127.828125 0)"/>
     <use xlink:href="#ArialMT-48" transform="translate(183.4375 0)"/>
     <use xlink:href="#ArialMT-5a" transform="translate(239.046875 0)"/>
     <use xlink:href="#ArialMT-44" transform="translate(311.265625 0)"/>
     <use xlink:href="#ArialMT-45" transform="translate(366.875 0)"/>
     <use xlink:href="#ArialMT-4f" transform="translate(422.484375 0)"/>
     <use xlink:href="#ArialMT-48" transform="translate(444.703125 0)"/>
     <use xlink:href="#ArialMT-56" transform="translate(500.3125 0)"/>
    </g>
   </g>
   <g id="text_20">
    <!-- UK primary energy consumption by source, 1965–2024 -->
    <g style="fill: #262626" transform="translate(56.430078 16.300342) scale(0.125 -0.125)">
     <defs>
      <path id="Arial-BoldMT-38" d="M 459 4581 
L 1384 4581 
L 1384 2100 
Q 1384 1509 1419 1334 
Q 1478 1053 1701 883 
Q 1925 713 2313 713 
Q 2706 713 2906 873 
Q 3106 1034 3147 1268 
Q 3188 1503 3188 2047 
L 3188 4581 
L 4113 4581 
L 4113 2175 
Q 4113 1350 4038 1009 
Q 3963 669 3761 434 
Q 3559 200 3221 61 
Q 2884 -78 2341 -78 
Q 1684 -78 1345 73 
Q 1006 225 809 467 
Q 613 709 550 975 
Q 459 1369 459 2138 
L 459 4581 
z
" transform="scale(0.015625)"/>
      <path id="Arial-BoldMT-2e" d="M 478 0 
L 478 4581 
L 1403 4581 
L 1403 2547 
L 3272 4581 
L 4516 4581 
L 2791 2797 
L 4609 0 
L 3413 0 
L 2153 2150 
L 1403 1384 
L 1403 0 
L 478 0 
z
" transform="scale(0.015625)"/>
      <path id="Arial-BoldMT-3" transform="scale(0.015625)"/>
      <path id="Arial-BoldMT-53" d="M 434 3319 
L 1253 3319 
L 1253 2831 
Q 1413 3081 1684 3237 
Q 1956 3394 2288 3394 
Q 2866 3394 3269 2941 
Q 3672 2488 3672 1678 
Q 3672 847 3265 386 
Q 2859 -75 2281 -75 
Q 2006 -75 1782 34 
Q 1559 144 1313 409 
L 1313 -1263 
L 434 -1263 
L 434 3319 
z
M 1303 1716 
Q 1303 1156 1525 889 
Q 1747 622 2066 622 
Q 2372 622 2575 867 
Q 2778 1113 2778 1672 
Q 2778 2194 2568 2447 
Q 2359 2700 2050 2700 
Q 1728 2700 1515 2451 
Q 1303 2203 1303 1716 
z
" transform="scale(0.015625)"/>
      <path id="Arial-BoldMT-55" d="M 1300 0 
L 422 0 
L 422 3319 
L 1238 3319 
L 1238 2847 
Q 1447 3181 1614 3287 
Q 1781 3394 1994 3394 
Q 2294 3394 2572 3228 
L 2300 2463 
Q 2078 2606 1888 2606 
Q 1703 2606 1575 2504 
Q 1447 2403 1373 2137 
Q 1300 1872 1300 1025 
L 1300 0 
z
" transform="scale(0.015625)"/>
      <path id="Arial-BoldMT-4c" d="M 459 3769 
L 459 4581 
L 1338 4581 
L 1338 3769 
L 459 3769 
z
M 459 0 
L 459 3319 
L 1338 3319 
L 1338 0 
L 459 0 
z
" transform="scale(0.015625)"/>
      <path id="Arial-BoldMT-50" d="M 394 3319 
L 1203 3319 
L 1203 2866 
Q 1638 3394 2238 3394 
Q 2556 3394 2790 3262 
Q 3025 3131 3175 2866 
Q 3394 3131 3647 3262 
Q 3900 3394 4188 3394 
Q 4553 3394 4806 3245 
Q 5059 3097 5184 2809 
Q 5275 2597 5275 2122 
L 5275 0 
L 4397 0 
L 4397 1897 
Q 4397 2391 4306 2534 
Q 4184 2722 3931 2722 
Q 3747 2722 3584 2609 
Q 3422 2497 3350 2280 
Q 3278 2063 3278 1594 
L 3278 0 
L 2400 0 
L 2400 1819 
Q 2400 2303 2353 2443 
Q 2306 2584 2207 2653 
Q 2109 2722 1941 2722 
Q 1738 2722 1575 2612 
Q 1413 2503 1342 2297 
Q 1272 2091 1272 1613 
L 1272 0 
L 394 0 
L 394 3319 
z
" transform="scale(0.015625)"/>
      <path id="Arial-BoldMT-44" d="M 1116 2306 
L 319 2450 
Q 453 2931 781 3162 
Q 1109 3394 1756 3394 
Q 2344 3394 2631 3255 
Q 2919 3116 3036 2902 
Q 3153 2688 3153 2116 
L 3144 1091 
Q 3144 653 3186 445 
Q 3228 238 3344 0 
L 2475 0 
Q 2441 88 2391 259 
Q 2369 338 2359 363 
Q 2134 144 1878 34 
Q 1622 -75 1331 -75 
Q 819 -75 523 203 
Q 228 481 228 906 
Q 228 1188 362 1408 
Q 497 1628 739 1745 
Q 981 1863 1438 1950 
Q 2053 2066 2291 2166 
L 2291 2253 
Q 2291 2506 2166 2614 
Q 2041 2722 1694 2722 
Q 1459 2722 1328 2630 
Q 1197 2538 1116 2306 
z
M 2291 1594 
Q 2122 1538 1756 1459 
Q 1391 1381 1278 1306 
Q 1106 1184 1106 997 
Q 1106 813 1243 678 
Q 1381 544 1594 544 
Q 1831 544 2047 700 
Q 2206 819 2256 991 
Q 2291 1103 2291 1419 
L 2291 1594 
z
" transform="scale(0.015625)"/>
      <path id="Arial-BoldMT-5c" d="M 44 3319 
L 978 3319 
L 1772 963 
L 2547 3319 
L 3456 3319 
L 2284 125 
L 2075 -453 
Q 1959 -744 1854 -897 
Q 1750 -1050 1614 -1145 
Q 1478 -1241 1279 -1294 
Q 1081 -1347 831 -1347 
Q 578 -1347 334 -1294 
L 256 -606 
Q 463 -647 628 -647 
Q 934 -647 1081 -467 
Q 1228 -288 1306 -9 
L 44 3319 
z
" transform="scale(0.015625)"/>
      <path id="Arial-BoldMT-48" d="M 2381 1056 
L 3256 909 
Q 3088 428 2723 176 
Q 2359 -75 1813 -75 
Q 947 -75 531 491 
Q 203 944 203 1634 
Q 203 2459 634 2926 
Q 1066 3394 1725 3394 
Q 2466 3394 2894 2905 
Q 3322 2416 3303 1406 
L 1103 1406 
Q 1113 1016 1316 798 
Q 1519 581 1822 581 
Q 2028 581 2168 693 
Q 2309 806 2381 1056 
z
M 2431 1944 
Q 2422 2325 2234 2523 
Q 2047 2722 1778 2722 
Q 1491 2722 1303 2513 
Q 1116 2303 1119 1944 
L 2431 1944 
z
" transform="scale(0.015625)"/>
      <path id="Arial-BoldMT-51" d="M 3478 0 
L 2600 0 
L 2600 1694 
Q 2600 2231 2544 2389 
Q 2488 2547 2361 2634 
Q 2234 2722 2056 2722 
Q 1828 2722 1647 2597 
Q 1466 2472 1398 2265 
Q 1331 2059 1331 1503 
L 1331 0 
L 453 0 
L 453 3319 
L 1269 3319 
L 1269 2831 
Q 1703 3394 2363 3394 
Q 2653 3394 2893 3289 
Q 3134 3184 3257 3021 
Q 3381 2859 3429 2653 
Q 3478 2447 3478 2063 
L 3478 0 
z
" transform="scale(0.015625)"/>
      <path id="Arial-BoldMT-4a" d="M 378 -219 
L 1381 -341 
Q 1406 -516 1497 -581 
Q 1622 -675 1891 -675 
Q 2234 -675 2406 -572 
Q 2522 -503 2581 -350 
Q 2622 -241 2622 53 
L 2622 538 
Q 2228 0 1628 0 
Q 959 0 569 566 
Q 263 1013 263 1678 
Q 263 2513 664 2953 
Q 1066 3394 1663 3394 
Q 2278 3394 2678 2853 
L 2678 3319 
L 3500 3319 
L 3500 341 
Q 3500 -247 3403 -537 
Q 3306 -828 3131 -993 
Q 2956 -1159 2664 -1253 
Q 2372 -1347 1925 -1347 
Q 1081 -1347 728 -1058 
Q 375 -769 375 -325 
Q 375 -281 378 -219 
z
M 1163 1728 
Q 1163 1200 1367 954 
Q 1572 709 1872 709 
Q 2194 709 2416 961 
Q 2638 1213 2638 1706 
Q 2638 2222 2425 2472 
Q 2213 2722 1888 2722 
Q 1572 2722 1367 2476 
Q 1163 2231 1163 1728 
z
" transform="scale(0.015625)"/>
      <path id="Arial-BoldMT-46" d="M 3353 2338 
L 2488 2181 
Q 2444 2441 2289 2572 
Q 2134 2703 1888 2703 
Q 1559 2703 1364 2476 
Q 1169 2250 1169 1719 
Q 1169 1128 1367 884 
Q 1566 641 1900 641 
Q 2150 641 2309 783 
Q 2469 925 2534 1272 
L 3397 1125 
Q 3263 531 2881 228 
Q 2500 -75 1859 -75 
Q 1131 -75 698 384 
Q 266 844 266 1656 
Q 266 2478 700 2936 
Q 1134 3394 1875 3394 
Q 2481 3394 2839 3133 
Q 3197 2872 3353 2338 
z
" transform="scale(0.015625)"/>
      <path id="Arial-BoldMT-52" d="M 256 1706 
Q 256 2144 472 2553 
Q 688 2963 1083 3178 
Q 1478 3394 1966 3394 
Q 2719 3394 3200 2905 
Q 3681 2416 3681 1669 
Q 3681 916 3195 420 
Q 2709 -75 1972 -75 
Q 1516 -75 1102 131 
Q 688 338 472 736 
Q 256 1134 256 1706 
z
M 1156 1659 
Q 1156 1166 1390 903 
Q 1625 641 1969 641 
Q 2313 641 2545 903 
Q 2778 1166 2778 1666 
Q 2778 2153 2545 2415 
Q 2313 2678 1969 2678 
Q 1625 2678 1390 2415 
Q 1156 2153 1156 1659 
z
" transform="scale(0.015625)"/>
      <path id="Arial-BoldMT-56" d="M 150 947 
L 1031 1081 
Q 1088 825 1259 692 
Q 1431 559 1741 559 
Q 2081 559 2253 684 
Q 2369 772 2369 919 
Q 2369 1019 2306 1084 
Q 2241 1147 2013 1200 
Q 950 1434 666 1628 
Q 272 1897 272 2375 
Q 272 2806 612 3100 
Q 953 3394 1669 3394 
Q 2350 3394 2681 3172 
Q 3013 2950 3138 2516 
L 2309 2363 
Q 2256 2556 2107 2659 
Q 1959 2763 1684 2763 
Q 1338 2763 1188 2666 
Q 1088 2597 1088 2488 
Q 1088 2394 1175 2328 
Q 1294 2241 1995 2081 
Q 2697 1922 2975 1691 
Q 3250 1456 3250 1038 
Q 3250 581 2869 253 
Q 2488 -75 1741 -75 
Q 1063 -75 667 200 
Q 272 475 150 947 
z
" transform="scale(0.015625)"/>
      <path id="Arial-BoldMT-58" d="M 2644 0 
L 2644 497 
Q 2463 231 2167 78 
Q 1872 -75 1544 -75 
Q 1209 -75 943 72 
Q 678 219 559 484 
Q 441 750 441 1219 
L 441 3319 
L 1319 3319 
L 1319 1794 
Q 1319 1094 1367 936 
Q 1416 778 1544 686 
Q 1672 594 1869 594 
Q 2094 594 2272 717 
Q 2450 841 2515 1023 
Q 2581 1206 2581 1919 
L 2581 3319 
L 3459 3319 
L 3459 0 
L 2644 0 
z
" transform="scale(0.015625)"/>
      <path id="Arial-BoldMT-57" d="M 1981 3319 
L 1981 2619 
L 1381 2619 
L 1381 1281 
Q 1381 875 1398 808 
Q 1416 741 1477 697 
Q 1538 653 1625 653 
Q 1747 653 1978 738 
L 2053 56 
Q 1747 -75 1359 -75 
Q 1122 -75 931 4 
Q 741 84 652 211 
Q 563 338 528 553 
Q 500 706 500 1172 
L 500 2619 
L 97 2619 
L 97 3319 
L 500 3319 
L 500 3978 
L 1381 4491 
L 1381 3319 
L 1981 3319 
z
" transform="scale(0.015625)"/>
      <path id="Arial-BoldMT-45" d="M 422 0 
L 422 4581 
L 1300 4581 
L 1300 2931 
Q 1706 3394 2263 3394 
Q 2869 3394 3266 2955 
Q 3663 2516 3663 1694 
Q 3663 844 3258 384 
Q 2853 -75 2275 -75 
Q 1991 -75 1714 67 
Q 1438 209 1238 488 
L 1238 0 
L 422 0 
z
M 1294 1731 
Q 1294 1216 1456 969 
Q 1684 619 2063 619 
Q 2353 619 2558 867 
Q 2763 1116 2763 1650 
Q 2763 2219 2556 2470 
Q 2350 2722 2028 2722 
Q 1713 2722 1503 2476 
Q 1294 2231 1294 1731 
z
" transform="scale(0.015625)"/>
      <path id="Arial-BoldMT-f" d="M 438 878 
L 1316 878 
L 1316 250 
Q 1316 -131 1250 -351 
Q 1184 -572 1001 -747 
Q 819 -922 538 -1022 
L 366 -659 
Q 631 -572 743 -419 
Q 856 -266 863 0 
L 438 0 
L 438 878 
z
" transform="scale(0.015625)"/>
      <path id="Arial-BoldMT-14" d="M 2519 0 
L 1641 0 
L 1641 3309 
Q 1159 2859 506 2644 
L 506 3441 
Q 850 3553 1253 3867 
Q 1656 4181 1806 4600 
L 2519 4600 
L 2519 0 
z
" transform="scale(0.015625)"/>
      <path id="Arial-BoldMT-1c" d="M 291 1059 
L 1141 1153 
Q 1172 894 1303 769 
Q 1434 644 1650 644 
Q 1922 644 2112 894 
Q 2303 1144 2356 1931 
Q 2025 1547 1528 1547 
Q 988 1547 595 1964 
Q 203 2381 203 3050 
Q 203 3747 617 4173 
Q 1031 4600 1672 4600 
Q 2369 4600 2816 4061 
Q 3263 3522 3263 2288 
Q 3263 1031 2797 475 
Q 2331 -81 1584 -81 
Q 1047 -81 715 205 
Q 384 491 291 1059 
z
M 2278 2978 
Q 2278 3403 2083 3637 
Q 1888 3872 1631 3872 
Q 1388 3872 1227 3680 
Q 1066 3488 1066 3050 
Q 1066 2606 1241 2398 
Q 1416 2191 1678 2191 
Q 1931 2191 2104 2391 
Q 2278 2591 2278 2978 
z
" transform="scale(0.015625)"/>
      <path id="Arial-BoldMT-19" d="M 3247 3459 
L 2397 3366 
Q 2366 3628 2234 3753 
Q 2103 3878 1894 3878 
Q 1616 3878 1423 3628 
Q 1231 3378 1181 2588 
Q 1509 2975 1997 2975 
Q 2547 2975 2939 2556 
Q 3331 2138 3331 1475 
Q 3331 772 2918 347 
Q 2506 -78 1859 -78 
Q 1166 -78 719 461 
Q 272 1000 272 2228 
Q 272 3488 737 4044 
Q 1203 4600 1947 4600 
Q 2469 4600 2811 4308 
Q 3153 4016 3247 3459 
z
M 1256 1544 
Q 1256 1116 1453 883 
Q 1650 650 1903 650 
Q 2147 650 2309 840 
Q 2472 1031 2472 1466 
Q 2472 1913 2297 2120 
Q 2122 2328 1859 2328 
Q 1606 2328 1431 2129 
Q 1256 1931 1256 1544 
z
" transform="scale(0.015625)"/>
      <path id="Arial-BoldMT-18" d="M 284 1178 
L 1159 1269 
Q 1197 972 1381 798 
Q 1566 625 1806 625 
Q 2081 625 2272 848 
Q 2463 1072 2463 1522 
Q 2463 1944 2273 2155 
Q 2084 2366 1781 2366 
Q 1403 2366 1103 2031 
L 391 2134 
L 841 4519 
L 3163 4519 
L 3163 3697 
L 1506 3697 
L 1369 2919 
Q 1663 3066 1969 3066 
Q 2553 3066 2959 2641 
Q 3366 2216 3366 1538 
Q 3366 972 3038 528 
Q 2591 -78 1797 -78 
Q 1163 -78 763 262 
Q 363 603 284 1178 
z
" transform="scale(0.015625)"/>
      <path id="Arial-BoldMT-b1" d="M -13 1331 
L -13 1988 
L 3547 1988 
L 3547 1331 
L -13 1331 
z
" transform="scale(0.015625)"/>
      <path id="Arial-BoldMT-15" d="M 3238 816 
L 3238 0 
L 159 0 
Q 209 463 459 877 
Q 709 1291 1447 1975 
Q 2041 2528 2175 2725 
Q 2356 2997 2356 3263 
Q 2356 3556 2198 3714 
Q 2041 3872 1763 3872 
Q 1488 3872 1325 3706 
Q 1163 3541 1138 3156 
L 263 3244 
Q 341 3969 753 4284 
Q 1166 4600 1784 4600 
Q 2463 4600 2850 4234 
Q 3238 3869 3238 3325 
Q 3238 3016 3127 2736 
Q 3016 2456 2775 2150 
Q 2616 1947 2200 1565 
Q 1784 1184 1673 1059 
Q 1563 934 1494 816 
L 3238 816 
z
" transform="scale(0.015625)"/>
      <path id="Arial-BoldMT-13" d="M 1756 4600 
Q 2422 4600 2797 4125 
Q 3244 3563 3244 2259 
Q 3244 959 2794 391 
Q 2422 -78 1756 -78 
Q 1088 -78 678 436 
Q 269 950 269 2269 
Q 269 3563 719 4131 
Q 1091 4600 1756 4600 
z
M 1756 3872 
Q 1597 3872 1472 3770 
Q 1347 3669 1278 3406 
Q 1188 3066 1188 2259 
Q 1188 1453 1269 1151 
Q 1350 850 1473 750 
Q 1597 650 1756 650 
Q 1916 650 2041 751 
Q 2166 853 2234 1116 
Q 2325 1453 2325 2259 
Q 2325 3066 2244 3367 
Q 2163 3669 2039 3770 
Q 1916 3872 1756 3872 
z
" transform="scale(0.015625)"/>
      <path id="Arial-BoldMT-17" d="M 1994 0 
L 1994 922 
L 119 922 
L 119 1691 
L 2106 4600 
L 2844 4600 
L 2844 1694 
L 3413 1694 
L 3413 922 
L 2844 922 
L 2844 0 
L 1994 0 
z
M 1994 1694 
L 1994 3259 
L 941 1694 
L 1994 1694 
z
" transform="scale(0.015625)"/>
     </defs>
     <use xlink:href="#Arial-BoldMT-38"/>
     <use xlink:href="#Arial-BoldMT-2e" transform="translate(72.21875 0)"/>
     <use xlink:href="#Arial-BoldMT-3" transform="translate(144.4375 0)"/>
     <use xlink:href="#Arial-BoldMT-53" transform="translate(172.21875 0)"/>
     <use xlink:href="#Arial-BoldMT-55" transform="translate(233.296875 0)"/>
     <use xlink:href="#Arial-BoldMT-4c" transform="translate(272.21875 0)"/>
     <use xlink:href="#Arial-BoldMT-50" transform="translate(300 0)"/>
     <use xlink:href="#Arial-BoldMT-44" transform="translate(388.921875 0)"/>
     <use xlink:href="#Arial-BoldMT-55" transform="translate(444.53125 0)"/>
     <use xlink:href="#Arial-BoldMT-5c" transform="translate(483.453125 0)"/>
     <use xlink:href="#Arial-BoldMT-3" transform="translate(539.0625 0)"/>
     <use xlink:href="#Arial-BoldMT-48" transform="translate(566.84375 0)"/>
     <use xlink:href="#Arial-BoldMT-51" transform="translate(622.453125 0)"/>
     <use xlink:href="#Arial-BoldMT-48" transform="translate(683.53125 0)"/>
     <use xlink:href="#Arial-BoldMT-55" transform="translate(739.140625 0)"/>
     <use xlink:href="#Arial-BoldMT-4a" transform="translate(778.0625 0)"/>
     <use xlink:href="#Arial-BoldMT-5c" transform="translate(839.140625 0)"/>
     <use xlink:href="#Arial-BoldMT-3" transform="translate(894.75 0)"/>
     <use xlink:href="#Arial-BoldMT-46" transform="translate(922.53125 0)"/>
     <use xlink:href="#Arial-BoldMT-52" transform="translate(978.140625 0)"/>
     <use xlink:href="#Arial-BoldMT-51" transform="translate(1039.21875 0)"/>
     <use xlink:href="#Arial-BoldMT-56" transform="translate(1100.296875 0)"/>
     <use xlink:href="#Arial-BoldMT-58" transform="translate(1155.90625 0)"/>
     <use xlink:href="#Arial-BoldMT-50" transform="translate(1216.984375 0)"/>
     <use xlink:href="#Arial-BoldMT-53" transform="translate(1305.90625 0)"/>
     <use xlink:href="#Arial-BoldMT-57" transform="translate(1366.984375 0)"/>
     <use xlink:href="#Arial-BoldMT-4c" transform="translate(1400.28125 0)"/>
     <use xlink:href="#Arial-BoldMT-52" transform="translate(1428.0625 0)"/>
     <use xlink:href="#Arial-BoldMT-51" transform="translate(1489.140625 0)"/>
     <use xlink:href="#Arial-BoldMT-3" transform="translate(1550.21875 0)"/>
     <use xlink:href="#Arial-BoldMT-45" transform="translate(1578 0)"/>
     <use xlink:href="#Arial-BoldMT-5c" transform="translate(1639.078125 0)"/>
     <use xlink:href="#Arial-BoldMT-3" transform="translate(1694.6875 0)"/>
     <use xlink:href="#Arial-BoldMT-56" transform="translate(1722.46875 0)"/>
     <use xlink:href="#Arial-BoldMT-52" transform="translate(1778.078125 0)"/>
     <use xlink:href="#Arial-BoldMT-58" transform="translate(1839.15625 0)"/>
     <use xlink:href="#Arial-BoldMT-55" transform="translate(1900.234375 0)"/>
     <use xlink:href="#Arial-BoldMT-46" transform="translate(1939.15625 0)"/>
     <use xlink:href="#Arial-BoldMT-48" transform="translate(1994.765625 0)"/>
     <use xlink:href="#Arial-BoldMT-f" transform="translate(2050.375 0)"/>
     <use xlink:href="#Arial-BoldMT-3" transform="translate(2078.15625 0)"/>
     <use xlink:href="#Arial-BoldMT-14" transform="translate(2105.9375 0)"/>
     <use xlink:href="#Arial-BoldMT-1c" transform="translate(2161.546875 0)"/>
     <use xlink:href="#Arial-BoldMT-19" transform="translate(2217.15625 0)"/>
     <use xlink:href="#Arial-BoldMT-18" transform="translate(2272.765625 0)"/>
     <use xlink:href="#Arial-BoldMT-b1" transform="translate(2328.375 0)"/>
     <use xlink:href="#Arial-BoldMT-15" transform="translate(2383.984375 0)"/>
     <use xlink:href="#Arial-BoldMT-13" transform="translate(2439.59375 0)"/>
     <use xlink:href="#Arial-BoldMT-15" transform="translate(2495.203125 0)"/>
     <use xlink:href="#Arial-BoldMT-17" transform="translate(2550.8125 0)"/>
    </g>
   </g>
  </g>
 </g>
 <defs>
  <clipPath id="p39b771b021">
   <rect x="56.430078" y="28.300342" width="479.88" height="255.024"/>
  </clipPath>
 </defs>
</svg>
