<?xml version="1.0" encoding="utf-8" standalone="no"?>
<!DOCTYPE svg PUBLIC "-//W3C//DTD SVG 1.1//EN"
  "http://www.w3.org/Graphics/SVG/1.1/DTD/svg11.dtd">
<svg xmlns:xlink="http://www.w3.org/1999/xlink" width="565.11332pt" height="445.553895pt" viewBox="0 0 565.11332 445.553895" xmlns="http://www.w3.org/2000/svg" version="1.1">
 <metadata>
  <rdf:RDF xmlns:dc="http://purl.org/dc/elements/1.1/" xmlns:cc="http://creativecommons.org/ns#" xmlns:rdf="http://www.w3.org/1999/02/22-rdf-syntax-ns#">
   <cc:Work>
    <dc:type rdf:resource="http://purl.org/dc/dcmitype/StillImage"/>
    <dc:date>2026-08-31T21:25:23.211460</dc:date>
    <dc:format>image/svg+xml</dc:format>
    <dc:creator>
     <cc:Agent>
      <dc:title>Matplotlib v3.11.1, https://matplotlib.org/</dc:title>
     </cc:Agent>
    </dc:creator>
   </cc:Work>
  </rdf:RDF>
 </metadata>
 <defs>
  <style type="text/css">*{stroke-linejoin: round; stroke-linecap: butt}</style>
 </defs>
 <g id="figure_1">
  <g id="patch_1">
   <path d="M 0 445.553895 
L 565.11332 445.553895 
L 565.11332 0 
L 0 0 
z
" style="fill: #ffffff"/>
  </g>
  <g id="axes_1">
   <g id="patch_2">
    <path d="M 43.333945 358.074047 
L 556.693945 358.074047 
L 556.693945 58.698047 
L 43.333945 58.698047 
z
" style="fill: #ffffff"/>
   </g>
   <g id="matplotlib.axis_1">
    <g id="xtick_1">
     <g id="line2d_1"/>
     <g id="text_1">
      <!-- Arbitrage -->
      <g transform="translate(75.782194 369.74349) scale(0.095 -0.095)">
       <defs>
        <path id="DejaVuSans-24" d="M 2188 4044 
L 1331 1722 
L 3047 1722 
L 2188 4044 
z
M 1831 4666 
L 2547 4666 
L 4325 0 
L 3669 0 
L 3244 1197 
L 1141 1197 
L 716 0 
L 50 0 
L 1831 4666 
z
" transform="scale(0.015625)"/>
        <path id="DejaVuSans-55" d="M 2631 2963 
Q 2534 3019 2420 3045 
Q 2306 3072 2169 3072 
Q 1681 3072 1420 2755 
Q 1159 2438 1159 1844 
L 1159 0 
L 581 0 
L 581 3500 
L 1159 3500 
L 1159 2956 
Q 1341 3275 1631 3429 
Q 1922 3584 2338 3584 
Q 2397 3584 2469 3576 
Q 2541 3569 2628 3553 
L 2631 2963 
z
" transform="scale(0.015625)"/>
        <path id="DejaVuSans-45" d="M 3116 1747 
Q 3116 2381 2855 2742 
Q 2594 3103 2138 3103 
Q 1681 3103 1420 2742 
Q 1159 2381 1159 1747 
Q 1159 1113 1420 752 
Q 1681 391 2138 391 
Q 2594 391 2855 752 
Q 3116 1113 3116 1747 
z
M 1159 2969 
Q 1341 3281 1617 3432 
Q 1894 3584 2278 3584 
Q 2916 3584 3314 3078 
Q 3713 2572 3713 1747 
Q 3713 922 3314 415 
Q 2916 -91 2278 -91 
Q 1894 -91 1617 61 
Q 1341 213 1159 525 
L 1159 0 
L 581 0 
L 581 4863 
L 1159 4863 
L 1159 2969 
z
" transform="scale(0.015625)"/>
        <path id="DejaVuSans-4c" d="M 603 3500 
L 1178 3500 
L 1178 0 
L 603 0 
L 603 3500 
z
M 603 4863 
L 1178 4863 
L 1178 4134 
L 603 4134 
L 603 4863 
z
" transform="scale(0.015625)"/>
        <path id="DejaVuSans-57" d="M 1172 4494 
L 1172 3500 
L 2356 3500 
L 2356 3053 
L 1172 3053 
L 1172 1153 
Q 1172 725 1289 603 
Q 1406 481 1766 481 
L 2356 481 
L 2356 0 
L 1766 0 
Q 1100 0 847 248 
Q 594 497 594 1153 
L 594 3053 
L 172 3053 
L 172 3500 
L 594 3500 
L 594 4494 
L 1172 4494 
z
" transform="scale(0.015625)"/>
        <path id="DejaVuSans-44" d="M 2194 1759 
Q 1497 1759 1228 1600 
Q 959 1441 959 1056 
Q 959 750 1161 570 
Q 1363 391 1709 391 
Q 2188 391 2477 730 
Q 2766 1069 2766 1631 
L 2766 1759 
L 2194 1759 
z
M 3341 1997 
L 3341 0 
L 2766 0 
L 2766 531 
Q 2569 213 2275 61 
Q 1981 -91 1556 -91 
Q 1019 -91 701 211 
Q 384 513 384 1019 
Q 384 1609 779 1909 
Q 1175 2209 1959 2209 
L 2766 2209 
L 2766 2266 
Q 2766 2663 2505 2880 
Q 2244 3097 1772 3097 
Q 1472 3097 1187 3025 
Q 903 2953 641 2809 
L 641 3341 
Q 956 3463 1253 3523 
Q 1550 3584 1831 3584 
Q 2591 3584 2966 3190 
Q 3341 2797 3341 1997 
z
" transform="scale(0.015625)"/>
        <path id="DejaVuSans-4a" d="M 2906 1791 
Q 2906 2416 2648 2759 
Q 2391 3103 1925 3103 
Q 1463 3103 1205 2759 
Q 947 2416 947 1791 
Q 947 1169 1205 825 
Q 1463 481 1925 481 
Q 2391 481 2648 825 
Q 2906 1169 2906 1791 
z
M 3481 434 
Q 3481 -459 3084 -895 
Q 2688 -1331 1869 -1331 
Q 1566 -1331 1297 -1286 
Q 1028 -1241 775 -1147 
L 775 -588 
Q 1028 -725 1275 -790 
Q 1522 -856 1778 -856 
Q 2344 -856 2625 -561 
Q 2906 -266 2906 331 
L 2906 616 
Q 2728 306 2450 153 
Q 2172 0 1784 0 
Q 1141 0 747 490 
Q 353 981 353 1791 
Q 353 2603 747 3093 
Q 1141 3584 1784 3584 
Q 2172 3584 2450 3431 
Q 2728 3278 2906 2969 
L 2906 3500 
L 3481 3500 
L 3481 434 
z
" transform="scale(0.015625)"/>
        <path id="DejaVuSans-48" d="M 3597 1894 
L 3597 1613 
L 953 1613 
Q 991 1019 1311 708 
Q 1631 397 2203 397 
Q 2534 397 2845 478 
Q 3156 559 3463 722 
L 3463 178 
Q 3153 47 2828 -22 
Q 2503 -91 2169 -91 
Q 1331 -91 842 396 
Q 353 884 353 1716 
Q 353 2575 817 3079 
Q 1281 3584 2069 3584 
Q 2775 3584 3186 3129 
Q 3597 2675 3597 1894 
z
M 3022 2063 
Q 3016 2534 2758 2815 
Q 2500 3097 2075 3097 
Q 1594 3097 1305 2825 
Q 1016 2553 972 2059 
L 3022 2063 
z
" transform="scale(0.015625)"/>
       </defs>
       <use xlink:href="#DejaVuSans-24"/>
       <use xlink:href="#DejaVuSans-55" transform="translate(68.40625 0)"/>
       <use xlink:href="#DejaVuSans-45" transform="translate(109.515625 0)"/>
       <use xlink:href="#DejaVuSans-4c" transform="translate(173 0)"/>
       <use xlink:href="#DejaVuSans-57" transform="translate(200.78125 0)"/>
       <use xlink:href="#DejaVuSans-55" transform="translate(239.984375 0)"/>
       <use xlink:href="#DejaVuSans-44" transform="translate(281.09375 0)"/>
       <use xlink:href="#DejaVuSans-4a" transform="translate(342.375 0)"/>
       <use xlink:href="#DejaVuSans-48" transform="translate(405.859375 0)"/>
      </g>
      <!-- SE3 -->
      <g transform="translate(88.944147 381.145346) scale(0.095 -0.095)">
       <defs>
        <path id="DejaVuSans-36" d="M 3425 4513 
L 3425 3897 
Q 3066 4069 2747 4153 
Q 2428 4238 2131 4238 
Q 1616 4238 1336 4038 
Q 1056 3838 1056 3469 
Q 1056 3159 1242 3001 
Q 1428 2844 1947 2747 
L 2328 2669 
Q 3034 2534 3370 2195 
Q 3706 1856 3706 1288 
Q 3706 609 3251 259 
Q 2797 -91 1919 -91 
Q 1588 -91 1214 -16 
Q 841 59 441 206 
L 441 856 
Q 825 641 1194 531 
Q 1563 422 1919 422 
Q 2459 422 2753 634 
Q 3047 847 3047 1241 
Q 3047 1584 2836 1778 
Q 2625 1972 2144 2069 
L 1759 2144 
Q 1053 2284 737 2584 
Q 422 2884 422 3419 
Q 422 4038 858 4394 
Q 1294 4750 2059 4750 
Q 2388 4750 2728 4690 
Q 3069 4631 3425 4513 
z
" transform="scale(0.015625)"/>
        <path id="DejaVuSans-28" d="M 628 4666 
L 3578 4666 
L 3578 4134 
L 1259 4134 
L 1259 2753 
L 3481 2753 
L 3481 2222 
L 1259 2222 
L 1259 531 
L 3634 531 
L 3634 0 
L 628 0 
L 628 4666 
z
" transform="scale(0.015625)"/>
        <path id="DejaVuSans-16" d="M 2597 2516 
Q 3050 2419 3304 2112 
Q 3559 1806 3559 1356 
Q 3559 666 3084 287 
Q 2609 -91 1734 -91 
Q 1441 -91 1130 -33 
Q 819 25 488 141 
L 488 750 
Q 750 597 1062 519 
Q 1375 441 1716 441 
Q 2309 441 2620 675 
Q 2931 909 2931 1356 
Q 2931 1769 2642 2001 
Q 2353 2234 1838 2234 
L 1294 2234 
L 1294 2753 
L 1863 2753 
Q 2328 2753 2575 2939 
Q 2822 3125 2822 3475 
Q 2822 3834 2567 4026 
Q 2313 4219 1838 4219 
Q 1578 4219 1281 4162 
Q 984 4106 628 3988 
L 628 4550 
Q 988 4650 1302 4700 
Q 1616 4750 1894 4750 
Q 2613 4750 3031 4423 
Q 3450 4097 3450 3541 
Q 3450 3153 3228 2886 
Q 3006 2619 2597 2516 
z
" transform="scale(0.015625)"/>
       </defs>
       <use xlink:href="#DejaVuSans-36"/>
       <use xlink:href="#DejaVuSans-28" transform="translate(63.484375 0)"/>
       <use xlink:href="#DejaVuSans-16" transform="translate(126.671875 0)"/>
      </g>
     </g>
    </g>
    <g id="xtick_2">
     <g id="line2d_2"/>
     <g id="text_2">
      <!-- Arbitrage -->
      <g transform="translate(176.797542 369.74349) scale(0.095 -0.095)">
       <use xlink:href="#DejaVuSans-24"/>
       <use xlink:href="#DejaVuSans-55" transform="translate(68.40625 0)"/>
       <use xlink:href="#DejaVuSans-45" transform="translate(109.515625 0)"/>
       <use xlink:href="#DejaVuSans-4c" transform="translate(173 0)"/>
       <use xlink:href="#DejaVuSans-57" transform="translate(200.78125 0)"/>
       <use xlink:href="#DejaVuSans-55" transform="translate(239.984375 0)"/>
       <use xlink:href="#DejaVuSans-44" transform="translate(281.09375 0)"/>
       <use xlink:href="#DejaVuSans-4a" transform="translate(342.375 0)"/>
       <use xlink:href="#DejaVuSans-48" transform="translate(405.859375 0)"/>
      </g>
      <!-- SE4 -->
      <g transform="translate(189.959495 381.145346) scale(0.095 -0.095)">
       <defs>
        <path id="DejaVuSans-17" d="M 2419 4116 
L 825 1625 
L 2419 1625 
L 2419 4116 
z
M 2253 4666 
L 3047 4666 
L 3047 1625 
L 3713 1625 
L 3713 1100 
L 3047 1100 
L 3047 0 
L 2419 0 
L 2419 1100 
L 313 1100 
L 313 1709 
L 2253 4666 
z
" transform="scale(0.015625)"/>
       </defs>
       <use xlink:href="#DejaVuSans-36"/>
       <use xlink:href="#DejaVuSans-28" transform="translate(63.484375 0)"/>
       <use xlink:href="#DejaVuSans-17" transform="translate(126.671875 0)"/>
      </g>
     </g>
    </g>
    <g id="xtick_3">
     <g id="line2d_3"/>
     <g id="text_3">
      <!-- FCR-D up -->
      <g transform="translate(277.950195 369.742748) scale(0.095 -0.095)">
       <defs>
        <path id="DejaVuSans-29" d="M 628 4666 
L 3309 4666 
L 3309 4134 
L 1259 4134 
L 1259 2759 
L 3109 2759 
L 3109 2228 
L 1259 2228 
L 1259 0 
L 628 0 
L 628 4666 
z
" transform="scale(0.015625)"/>
        <path id="DejaVuSans-26" d="M 4122 4306 
L 4122 3641 
Q 3803 3938 3442 4084 
Q 3081 4231 2675 4231 
Q 1875 4231 1450 3742 
Q 1025 3253 1025 2328 
Q 1025 1406 1450 917 
Q 1875 428 2675 428 
Q 3081 428 3442 575 
Q 3803 722 4122 1019 
L 4122 359 
Q 3791 134 3420 21 
Q 3050 -91 2638 -91 
Q 1578 -91 968 557 
Q 359 1206 359 2328 
Q 359 3453 968 4101 
Q 1578 4750 2638 4750 
Q 3056 4750 3426 4639 
Q 3797 4528 4122 4306 
z
" transform="scale(0.015625)"/>
        <path id="DejaVuSans-35" d="M 2841 2188 
Q 3044 2119 3236 1894 
Q 3428 1669 3622 1275 
L 4263 0 
L 3584 0 
L 2988 1197 
Q 2756 1666 2539 1819 
Q 2322 1972 1947 1972 
L 1259 1972 
L 1259 0 
L 628 0 
L 628 4666 
L 2053 4666 
Q 2853 4666 3247 4331 
Q 3641 3997 3641 3322 
Q 3641 2881 3436 2590 
Q 3231 2300 2841 2188 
z
M 1259 4147 
L 1259 2491 
L 2053 2491 
Q 2509 2491 2742 2702 
Q 2975 2913 2975 3322 
Q 2975 3731 2742 3939 
Q 2509 4147 2053 4147 
L 1259 4147 
z
" transform="scale(0.015625)"/>
        <path id="DejaVuSans-10" d="M 313 2009 
L 1997 2009 
L 1997 1497 
L 313 1497 
L 313 2009 
z
" transform="scale(0.015625)"/>
        <path id="DejaVuSans-27" d="M 1259 4147 
L 1259 519 
L 2022 519 
Q 2988 519 3436 956 
Q 3884 1394 3884 2338 
Q 3884 3275 3436 3711 
Q 2988 4147 2022 4147 
L 1259 4147 
z
M 628 4666 
L 1925 4666 
Q 3281 4666 3915 4102 
Q 4550 3538 4550 2338 
Q 4550 1131 3912 565 
Q 3275 0 1925 0 
L 628 0 
L 628 4666 
z
" transform="scale(0.015625)"/>
        <path id="DejaVuSans-3" transform="scale(0.015625)"/>
        <path id="DejaVuSans-58" d="M 544 1381 
L 544 3500 
L 1119 3500 
L 1119 1403 
Q 1119 906 1312 657 
Q 1506 409 1894 409 
Q 2359 409 2629 706 
Q 2900 1003 2900 1516 
L 2900 3500 
L 3475 3500 
L 3475 0 
L 2900 0 
L 2900 538 
Q 2691 219 2414 64 
Q 2138 -91 1772 -91 
Q 1169 -91 856 284 
Q 544 659 544 1381 
z
M 1991 3584 
L 1991 3584 
z
" transform="scale(0.015625)"/>
        <path id="DejaVuSans-53" d="M 1159 525 
L 1159 -1331 
L 581 -1331 
L 581 3500 
L 1159 3500 
L 1159 2969 
Q 1341 3281 1617 3432 
Q 1894 3584 2278 3584 
Q 2916 3584 3314 3078 
Q 3713 2572 3713 1747 
Q 3713 922 3314 415 
Q 2916 -91 2278 -91 
Q 1894 -91 1617 61 
Q 1341 213 1159 525 
z
M 3116 1747 
Q 3116 2381 2855 2742 
Q 2594 3103 2138 3103 
Q 1681 3103 1420 2742 
Q 1159 2381 1159 1747 
Q 1159 1113 1420 752 
Q 1681 391 2138 391 
Q 2594 391 2855 752 
Q 3116 1113 3116 1747 
z
" transform="scale(0.015625)"/>
       </defs>
       <use xlink:href="#DejaVuSans-29"/>
       <use xlink:href="#DejaVuSans-26" transform="translate(57.515625 0)"/>
       <use xlink:href="#DejaVuSans-35" transform="translate(127.34375 0)"/>
       <use xlink:href="#DejaVuSans-10" transform="translate(192.78125 0)"/>
       <use xlink:href="#DejaVuSans-27" transform="translate(228.859375 0)"/>
       <use xlink:href="#DejaVuSans-3" transform="translate(305.859375 0)"/>
       <use xlink:href="#DejaVuSans-58" transform="translate(337.640625 0)"/>
       <use xlink:href="#DejaVuSans-53" transform="translate(401.015625 0)"/>
      </g>
      <!-- 7 EUR/MW/h, 90% -->
      <g transform="translate(257.121445 381.145346) scale(0.095 -0.095)">
       <defs>
        <path id="DejaVuSans-1a" d="M 525 4666 
L 3525 4666 
L 3525 4397 
L 1831 0 
L 1172 0 
L 2766 4134 
L 525 4134 
L 525 4666 
z
" transform="scale(0.015625)"/>
        <path id="DejaVuSans-38" d="M 556 4666 
L 1191 4666 
L 1191 1831 
Q 1191 1081 1462 751 
Q 1734 422 2344 422 
Q 2950 422 3222 751 
Q 3494 1081 3494 1831 
L 3494 4666 
L 4128 4666 
L 4128 1753 
Q 4128 841 3676 375 
Q 3225 -91 2344 -91 
Q 1459 -91 1007 375 
Q 556 841 556 1753 
L 556 4666 
z
" transform="scale(0.015625)"/>
        <path id="DejaVuSans-12" d="M 1625 4666 
L 2156 4666 
L 531 -594 
L 0 -594 
L 1625 4666 
z
" transform="scale(0.015625)"/>
        <path id="DejaVuSans-30" d="M 628 4666 
L 1569 4666 
L 2759 1491 
L 3956 4666 
L 4897 4666 
L 4897 0 
L 4281 0 
L 4281 4097 
L 3078 897 
L 2444 897 
L 1241 4097 
L 1241 0 
L 628 0 
L 628 4666 
z
" transform="scale(0.015625)"/>
        <path id="DejaVuSans-3a" d="M 213 4666 
L 850 4666 
L 1831 722 
L 2809 4666 
L 3519 4666 
L 4500 722 
L 5478 4666 
L 6119 4666 
L 4947 0 
L 4153 0 
L 3169 4050 
L 2175 0 
L 1381 0 
L 213 4666 
z
" transform="scale(0.015625)"/>
        <path id="DejaVuSans-4b" d="M 3513 2113 
L 3513 0 
L 2938 0 
L 2938 2094 
Q 2938 2591 2744 2837 
Q 2550 3084 2163 3084 
Q 1697 3084 1428 2787 
Q 1159 2491 1159 1978 
L 1159 0 
L 581 0 
L 581 4863 
L 1159 4863 
L 1159 2956 
Q 1366 3272 1645 3428 
Q 1925 3584 2291 3584 
Q 2894 3584 3203 3211 
Q 3513 2838 3513 2113 
z
" transform="scale(0.015625)"/>
        <path id="DejaVuSans-f" d="M 750 794 
L 1409 794 
L 1409 256 
L 897 -744 
L 494 -744 
L 750 256 
L 750 794 
z
" transform="scale(0.015625)"/>
        <path id="DejaVuSans-1c" d="M 703 97 
L 703 672 
Q 941 559 1184 500 
Q 1428 441 1663 441 
Q 2288 441 2617 861 
Q 2947 1281 2994 2138 
Q 2813 1869 2534 1725 
Q 2256 1581 1919 1581 
Q 1219 1581 811 2004 
Q 403 2428 403 3163 
Q 403 3881 828 4315 
Q 1253 4750 1959 4750 
Q 2769 4750 3195 4129 
Q 3622 3509 3622 2328 
Q 3622 1225 3098 567 
Q 2575 -91 1691 -91 
Q 1453 -91 1209 -44 
Q 966 3 703 97 
z
M 1959 2075 
Q 2384 2075 2632 2365 
Q 2881 2656 2881 3163 
Q 2881 3666 2632 3958 
Q 2384 4250 1959 4250 
Q 1534 4250 1286 3958 
Q 1038 3666 1038 3163 
Q 1038 2656 1286 2365 
Q 1534 2075 1959 2075 
z
" transform="scale(0.015625)"/>
        <path id="DejaVuSans-13" d="M 2034 4250 
Q 1547 4250 1301 3770 
Q 1056 3291 1056 2328 
Q 1056 1369 1301 889 
Q 1547 409 2034 409 
Q 2525 409 2770 889 
Q 3016 1369 3016 2328 
Q 3016 3291 2770 3770 
Q 2525 4250 2034 4250 
z
M 2034 4750 
Q 2819 4750 3233 4129 
Q 3647 3509 3647 2328 
Q 3647 1150 3233 529 
Q 2819 -91 2034 -91 
Q 1250 -91 836 529 
Q 422 1150 422 2328 
Q 422 3509 836 4129 
Q 1250 4750 2034 4750 
z
" transform="scale(0.015625)"/>
        <path id="DejaVuSans-8" d="M 4653 2053 
Q 4381 2053 4226 1822 
Q 4072 1591 4072 1178 
Q 4072 772 4226 539 
Q 4381 306 4653 306 
Q 4919 306 5073 539 
Q 5228 772 5228 1178 
Q 5228 1588 5073 1820 
Q 4919 2053 4653 2053 
z
M 4653 2450 
Q 5147 2450 5437 2106 
Q 5728 1763 5728 1178 
Q 5728 594 5436 251 
Q 5144 -91 4653 -91 
Q 4153 -91 3862 251 
Q 3572 594 3572 1178 
Q 3572 1766 3864 2108 
Q 4156 2450 4653 2450 
z
M 1428 4353 
Q 1159 4353 1004 4120 
Q 850 3888 850 3481 
Q 850 3069 1003 2837 
Q 1156 2606 1428 2606 
Q 1700 2606 1854 2837 
Q 2009 3069 2009 3481 
Q 2009 3884 1853 4118 
Q 1697 4353 1428 4353 
z
M 4250 4750 
L 4750 4750 
L 1831 -91 
L 1331 -91 
L 4250 4750 
z
M 1428 4750 
Q 1922 4750 2215 4408 
Q 2509 4066 2509 3481 
Q 2509 2891 2217 2550 
Q 1925 2209 1428 2209 
Q 931 2209 642 2551 
Q 353 2894 353 3481 
Q 353 4063 643 4406 
Q 934 4750 1428 4750 
z
" transform="scale(0.015625)"/>
       </defs>
       <use xlink:href="#DejaVuSans-1a"/>
       <use xlink:href="#DejaVuSans-3" transform="translate(63.625 0)"/>
       <use xlink:href="#DejaVuSans-28" transform="translate(95.40625 0)"/>
       <use xlink:href="#DejaVuSans-38" transform="translate(158.59375 0)"/>
       <use xlink:href="#DejaVuSans-35" transform="translate(231.78125 0)"/>
       <use xlink:href="#DejaVuSans-12" transform="translate(301.265625 0)"/>
       <use xlink:href="#DejaVuSans-30" transform="translate(334.953125 0)"/>
       <use xlink:href="#DejaVuSans-3a" transform="translate(421.234375 0)"/>
       <use xlink:href="#DejaVuSans-12" transform="translate(520.109375 0)"/>
       <use xlink:href="#DejaVuSans-4b" transform="translate(553.796875 0)"/>
       <use xlink:href="#DejaVuSans-f" transform="translate(617.171875 0)"/>
       <use xlink:href="#DejaVuSans-3" transform="translate(648.953125 0)"/>
       <use xlink:href="#DejaVuSans-1c" transform="translate(680.734375 0)"/>
       <use xlink:href="#DejaVuSans-13" transform="translate(744.359375 0)"/>
       <use xlink:href="#DejaVuSans-8" transform="translate(807.984375 0)"/>
      </g>
     </g>
    </g>
    <g id="xtick_4">
     <g id="line2d_4"/>
     <g id="text_4">
      <!-- aFRR up SE3 -->
      <g transform="translate(370.701286 369.742748) scale(0.095 -0.095)">
       <use xlink:href="#DejaVuSans-44"/>
       <use xlink:href="#DejaVuSans-29" transform="translate(61.28125 0)"/>
       <use xlink:href="#DejaVuSans-35" transform="translate(118.796875 0)"/>
       <use xlink:href="#DejaVuSans-35" transform="translate(188.28125 0)"/>
       <use xlink:href="#DejaVuSans-3" transform="translate(257.765625 0)"/>
       <use xlink:href="#DejaVuSans-58" transform="translate(289.546875 0)"/>
       <use xlink:href="#DejaVuSans-53" transform="translate(352.921875 0)"/>
       <use xlink:href="#DejaVuSans-3" transform="translate(416.40625 0)"/>
       <use xlink:href="#DejaVuSans-36" transform="translate(448.1875 0)"/>
       <use xlink:href="#DejaVuSans-28" transform="translate(511.671875 0)"/>
       <use xlink:href="#DejaVuSans-16" transform="translate(574.859375 0)"/>
      </g>
      <!-- 29 EUR/MW/h, 40% -->
      <g transform="translate(355.114606 381.145346) scale(0.095 -0.095)">
       <defs>
        <path id="DejaVuSans-15" d="M 1228 531 
L 3431 531 
L 3431 0 
L 469 0 
L 469 531 
Q 828 903 1448 1529 
Q 2069 2156 2228 2338 
Q 2531 2678 2651 2914 
Q 2772 3150 2772 3378 
Q 2772 3750 2511 3984 
Q 2250 4219 1831 4219 
Q 1534 4219 1204 4116 
Q 875 4013 500 3803 
L 500 4441 
Q 881 4594 1212 4672 
Q 1544 4750 1819 4750 
Q 2544 4750 2975 4387 
Q 3406 4025 3406 3419 
Q 3406 3131 3298 2873 
Q 3191 2616 2906 2266 
Q 2828 2175 2409 1742 
Q 1991 1309 1228 531 
z
" transform="scale(0.015625)"/>
       </defs>
       <use xlink:href="#DejaVuSans-15"/>
       <use xlink:href="#DejaVuSans-1c" transform="translate(63.625 0)"/>
       <use xlink:href="#DejaVuSans-3" transform="translate(127.25 0)"/>
       <use xlink:href="#DejaVuSans-28" transform="translate(159.03125 0)"/>
       <use xlink:href="#DejaVuSans-38" transform="translate(222.21875 0)"/>
       <use xlink:href="#DejaVuSans-35" transform="translate(295.40625 0)"/>
       <use xlink:href="#DejaVuSans-12" transform="translate(364.890625 0)"/>
       <use xlink:href="#DejaVuSans-30" transform="translate(398.578125 0)"/>
       <use xlink:href="#DejaVuSans-3a" transform="translate(484.859375 0)"/>
       <use xlink:href="#DejaVuSans-12" transform="translate(583.734375 0)"/>
       <use xlink:href="#DejaVuSans-4b" transform="translate(617.421875 0)"/>
       <use xlink:href="#DejaVuSans-f" transform="translate(680.796875 0)"/>
       <use xlink:href="#DejaVuSans-3" transform="translate(712.578125 0)"/>
       <use xlink:href="#DejaVuSans-17" transform="translate(744.359375 0)"/>
       <use xlink:href="#DejaVuSans-13" transform="translate(807.984375 0)"/>
       <use xlink:href="#DejaVuSans-8" transform="translate(871.609375 0)"/>
      </g>
     </g>
    </g>
    <g id="xtick_5">
     <g id="line2d_5"/>
     <g id="text_5">
      <!-- aFRR up SE3 -->
      <g transform="translate(471.716634 369.742748) scale(0.095 -0.095)">
       <use xlink:href="#DejaVuSans-44"/>
       <use xlink:href="#DejaVuSans-29" transform="translate(61.28125 0)"/>
       <use xlink:href="#DejaVuSans-35" transform="translate(118.796875 0)"/>
       <use xlink:href="#DejaVuSans-35" transform="translate(188.28125 0)"/>
       <use xlink:href="#DejaVuSans-3" transform="translate(257.765625 0)"/>
       <use xlink:href="#DejaVuSans-58" transform="translate(289.546875 0)"/>
       <use xlink:href="#DejaVuSans-53" transform="translate(352.921875 0)"/>
       <use xlink:href="#DejaVuSans-3" transform="translate(416.40625 0)"/>
       <use xlink:href="#DejaVuSans-36" transform="translate(448.1875 0)"/>
       <use xlink:href="#DejaVuSans-28" transform="translate(511.671875 0)"/>
       <use xlink:href="#DejaVuSans-16" transform="translate(574.859375 0)"/>
      </g>
      <!-- 29 EUR/MW/h, 90% -->
      <g transform="translate(456.129954 381.145346) scale(0.095 -0.095)">
       <use xlink:href="#DejaVuSans-15"/>
       <use xlink:href="#DejaVuSans-1c" transform="translate(63.625 0)"/>
       <use xlink:href="#DejaVuSans-3" transform="translate(127.25 0)"/>
       <use xlink:href="#DejaVuSans-28" transform="translate(159.03125 0)"/>
       <use xlink:href="#DejaVuSans-38" transform="translate(222.21875 0)"/>
       <use xlink:href="#DejaVuSans-35" transform="translate(295.40625 0)"/>
       <use xlink:href="#DejaVuSans-12" transform="translate(364.890625 0)"/>
       <use xlink:href="#DejaVuSans-30" transform="translate(398.578125 0)"/>
       <use xlink:href="#DejaVuSans-3a" transform="translate(484.859375 0)"/>
       <use xlink:href="#DejaVuSans-12" transform="translate(583.734375 0)"/>
       <use xlink:href="#DejaVuSans-4b" transform="translate(617.421875 0)"/>
       <use xlink:href="#DejaVuSans-f" transform="translate(680.796875 0)"/>
       <use xlink:href="#DejaVuSans-3" transform="translate(712.578125 0)"/>
       <use xlink:href="#DejaVuSans-1c" transform="translate(744.359375 0)"/>
       <use xlink:href="#DejaVuSans-13" transform="translate(807.984375 0)"/>
       <use xlink:href="#DejaVuSans-8" transform="translate(871.609375 0)"/>
      </g>
     </g>
    </g>
   </g>
   <g id="matplotlib.axis_2">
    <g id="ytick_1">
     <g id="line2d_6">
      <path d="M 43.333945 329.562047 
L 556.693945 329.562047 
" clip-path="url(#p2da327ecdb)" style="fill: none; stroke: #ededea; stroke-linecap: square"/>
     </g>
     <g id="line2d_7"/>
     <g id="text_6">
      <!-- 0 -->
      <g transform="translate(33.78957 333.170934) scale(0.095 -0.095)">
       <use xlink:href="#DejaVuSans-13"/>
      </g>
     </g>
    </g>
    <g id="ytick_2">
     <g id="line2d_8">
      <path d="M 43.333945 282.042047 
L 556.693945 282.042047 
" clip-path="url(#p2da327ecdb)" style="fill: none; stroke: #ededea; stroke-linecap: square"/>
     </g>
     <g id="line2d_9"/>
     <g id="text_7">
      <!-- 50 -->
      <g transform="translate(27.745195 285.650934) scale(0.095 -0.095)">
       <defs>
        <path id="DejaVuSans-18" d="M 691 4666 
L 3169 4666 
L 3169 4134 
L 1269 4134 
L 1269 2991 
Q 1406 3038 1543 3061 
Q 1681 3084 1819 3084 
Q 2600 3084 3056 2656 
Q 3513 2228 3513 1497 
Q 3513 744 3044 326 
Q 2575 -91 1722 -91 
Q 1428 -91 1123 -41 
Q 819 9 494 109 
L 494 744 
Q 775 591 1075 516 
Q 1375 441 1709 441 
Q 2250 441 2565 725 
Q 2881 1009 2881 1497 
Q 2881 1984 2565 2268 
Q 2250 2553 1709 2553 
Q 1456 2553 1204 2497 
Q 953 2441 691 2322 
L 691 4666 
z
" transform="scale(0.015625)"/>
       </defs>
       <use xlink:href="#DejaVuSans-18"/>
       <use xlink:href="#DejaVuSans-13" transform="translate(63.625 0)"/>
      </g>
     </g>
    </g>
    <g id="ytick_3">
     <g id="line2d_10">
      <path d="M 43.333945 234.522047 
L 556.693945 234.522047 
" clip-path="url(#p2da327ecdb)" style="fill: none; stroke: #ededea; stroke-linecap: square"/>
     </g>
     <g id="line2d_11"/>
     <g id="text_8">
      <!-- 100 -->
      <g transform="translate(21.70082 238.130934) scale(0.095 -0.095)">
       <defs>
        <path id="DejaVuSans-14" d="M 794 531 
L 1825 531 
L 1825 4091 
L 703 3866 
L 703 4441 
L 1819 4666 
L 2450 4666 
L 2450 531 
L 3481 531 
L 3481 0 
L 794 0 
L 794 531 
z
" transform="scale(0.015625)"/>
       </defs>
       <use xlink:href="#DejaVuSans-14"/>
       <use xlink:href="#DejaVuSans-13" transform="translate(63.625 0)"/>
       <use xlink:href="#DejaVuSans-13" transform="translate(127.25 0)"/>
      </g>
     </g>
    </g>
    <g id="ytick_4">
     <g id="line2d_12">
      <path d="M 43.333945 187.002047 
L 556.693945 187.002047 
" clip-path="url(#p2da327ecdb)" style="fill: none; stroke: #ededea; stroke-linecap: square"/>
     </g>
     <g id="line2d_13"/>
     <g id="text_9">
      <!-- 150 -->
      <g transform="translate(21.70082 190.610934) scale(0.095 -0.095)">
       <use xlink:href="#DejaVuSans-14"/>
       <use xlink:href="#DejaVuSans-18" transform="translate(63.625 0)"/>
       <use xlink:href="#DejaVuSans-13" transform="translate(127.25 0)"/>
      </g>
     </g>
    </g>
    <g id="ytick_5">
     <g id="line2d_14">
      <path d="M 43.333945 139.482047 
L 556.693945 139.482047 
" clip-path="url(#p2da327ecdb)" style="fill: none; stroke: #ededea; stroke-linecap: square"/>
     </g>
     <g id="line2d_15"/>
     <g id="text_10">
      <!-- 200 -->
      <g transform="translate(21.70082 143.090934) scale(0.095 -0.095)">
       <use xlink:href="#DejaVuSans-15"/>
       <use xlink:href="#DejaVuSans-13" transform="translate(63.625 0)"/>
       <use xlink:href="#DejaVuSans-13" transform="translate(127.25 0)"/>
      </g>
     </g>
    </g>
    <g id="ytick_6">
     <g id="line2d_16">
      <path d="M 43.333945 91.962047 
L 556.693945 91.962047 
" clip-path="url(#p2da327ecdb)" style="fill: none; stroke: #ededea; stroke-linecap: square"/>
     </g>
     <g id="line2d_17"/>
     <g id="text_11">
      <!-- 250 -->
      <g transform="translate(21.70082 95.570934) scale(0.095 -0.095)">
       <use xlink:href="#DejaVuSans-15"/>
       <use xlink:href="#DejaVuSans-18" transform="translate(63.625 0)"/>
       <use xlink:href="#DejaVuSans-13" transform="translate(127.25 0)"/>
      </g>
     </g>
    </g>
    <g id="text_12">
     <!-- thousand euros per MW of connected power, per year -->
     <g transform="translate(15.178359 350.14425) rotate(-90) scale(0.105 -0.105)">
      <defs>
       <path id="DejaVuSans-52" d="M 1959 3097 
Q 1497 3097 1228 2736 
Q 959 2375 959 1747 
Q 959 1119 1226 758 
Q 1494 397 1959 397 
Q 2419 397 2687 759 
Q 2956 1122 2956 1747 
Q 2956 2369 2687 2733 
Q 2419 3097 1959 3097 
z
M 1959 3584 
Q 2709 3584 3137 3096 
Q 3566 2609 3566 1747 
Q 3566 888 3137 398 
Q 2709 -91 1959 -91 
Q 1206 -91 779 398 
Q 353 888 353 1747 
Q 353 2609 779 3096 
Q 1206 3584 1959 3584 
z
" transform="scale(0.015625)"/>
       <path id="DejaVuSans-56" d="M 2834 3397 
L 2834 2853 
Q 2591 2978 2328 3040 
Q 2066 3103 1784 3103 
Q 1356 3103 1142 2972 
Q 928 2841 928 2578 
Q 928 2378 1081 2264 
Q 1234 2150 1697 2047 
L 1894 2003 
Q 2506 1872 2764 1633 
Q 3022 1394 3022 966 
Q 3022 478 2636 193 
Q 2250 -91 1575 -91 
Q 1294 -91 989 -36 
Q 684 19 347 128 
L 347 722 
Q 666 556 975 473 
Q 1284 391 1588 391 
Q 1994 391 2212 530 
Q 2431 669 2431 922 
Q 2431 1156 2273 1281 
Q 2116 1406 1581 1522 
L 1381 1569 
Q 847 1681 609 1914 
Q 372 2147 372 2553 
Q 372 3047 722 3315 
Q 1072 3584 1716 3584 
Q 2034 3584 2315 3537 
Q 2597 3491 2834 3397 
z
" transform="scale(0.015625)"/>
       <path id="DejaVuSans-51" d="M 3513 2113 
L 3513 0 
L 2938 0 
L 2938 2094 
Q 2938 2591 2744 2837 
Q 2550 3084 2163 3084 
Q 1697 3084 1428 2787 
Q 1159 2491 1159 1978 
L 1159 0 
L 581 0 
L 581 3500 
L 1159 3500 
L 1159 2956 
Q 1366 3272 1645 3428 
Q 1925 3584 2291 3584 
Q 2894 3584 3203 3211 
Q 3513 2838 3513 2113 
z
" transform="scale(0.015625)"/>
       <path id="DejaVuSans-47" d="M 2906 2969 
L 2906 4863 
L 3481 4863 
L 3481 0 
L 2906 0 
L 2906 525 
Q 2725 213 2448 61 
Q 2172 -91 1784 -91 
Q 1150 -91 751 415 
Q 353 922 353 1747 
Q 353 2572 751 3078 
Q 1150 3584 1784 3584 
Q 2172 3584 2448 3432 
Q 2725 3281 2906 2969 
z
M 947 1747 
Q 947 1113 1208 752 
Q 1469 391 1925 391 
Q 2381 391 2643 752 
Q 2906 1113 2906 1747 
Q 2906 2381 2643 2742 
Q 2381 3103 1925 3103 
Q 1469 3103 1208 2742 
Q 947 2381 947 1747 
z
" transform="scale(0.015625)"/>
       <path id="DejaVuSans-49" d="M 2375 4863 
L 2375 4384 
L 1825 4384 
Q 1516 4384 1395 4259 
Q 1275 4134 1275 3809 
L 1275 3500 
L 2222 3500 
L 2222 3053 
L 1275 3053 
L 1275 0 
L 697 0 
L 697 3053 
L 147 3053 
L 147 3500 
L 697 3500 
L 697 3744 
Q 697 4328 969 4595 
Q 1241 4863 1831 4863 
L 2375 4863 
z
" transform="scale(0.015625)"/>
       <path id="DejaVuSans-46" d="M 3122 3366 
L 3122 2828 
Q 2878 2963 2633 3030 
Q 2388 3097 2138 3097 
Q 1578 3097 1268 2742 
Q 959 2388 959 1747 
Q 959 1106 1268 751 
Q 1578 397 2138 397 
Q 2388 397 2633 464 
Q 2878 531 3122 666 
L 3122 134 
Q 2881 22 2623 -34 
Q 2366 -91 2075 -91 
Q 1284 -91 818 406 
Q 353 903 353 1747 
Q 353 2603 823 3093 
Q 1294 3584 2113 3584 
Q 2378 3584 2631 3529 
Q 2884 3475 3122 3366 
z
" transform="scale(0.015625)"/>
       <path id="DejaVuSans-5a" d="M 269 3500 
L 844 3500 
L 1563 769 
L 2278 3500 
L 2956 3500 
L 3675 769 
L 4391 3500 
L 4966 3500 
L 4050 0 
L 3372 0 
L 2619 2869 
L 1863 0 
L 1184 0 
L 269 3500 
z
" transform="scale(0.015625)"/>
       <path id="DejaVuSans-5c" d="M 2059 -325 
Q 1816 -950 1584 -1140 
Q 1353 -1331 966 -1331 
L 506 -1331 
L 506 -850 
L 844 -850 
Q 1081 -850 1212 -737 
Q 1344 -625 1503 -206 
L 1606 56 
L 191 3500 
L 800 3500 
L 1894 763 
L 2988 3500 
L 3597 3500 
L 2059 -325 
z
" transform="scale(0.015625)"/>
      </defs>
      <use xlink:href="#DejaVuSans-57"/>
      <use xlink:href="#DejaVuSans-4b" transform="translate(39.203125 0)"/>
      <use xlink:href="#DejaVuSans-52" transform="translate(102.578125 0)"/>
      <use xlink:href="#DejaVuSans-58" transform="translate(163.765625 0)"/>
      <use xlink:href="#DejaVuSans-56" transform="translate(227.140625 0)"/>
      <use xlink:href="#DejaVuSans-44" transform="translate(279.234375 0)"/>
      <use xlink:href="#DejaVuSans-51" transform="translate(340.515625 0)"/>
      <use xlink:href="#DejaVuSans-47" transform="translate(403.890625 0)"/>
      <use xlink:href="#DejaVuSans-3" transform="translate(467.375 0)"/>
      <use xlink:href="#DejaVuSans-48" transform="translate(499.15625 0)"/>
      <use xlink:href="#DejaVuSans-58" transform="translate(560.6875 0)"/>
      <use xlink:href="#DejaVuSans-55" transform="translate(624.0625 0)"/>
      <use xlink:href="#DejaVuSans-52" transform="translate(662.96875 0)"/>
      <use xlink:href="#DejaVuSans-56" transform="translate(724.15625 0)"/>
      <use xlink:href="#DejaVuSans-3" transform="translate(776.25 0)"/>
      <use xlink:href="#DejaVuSans-53" transform="translate(808.03125 0)"/>
      <use xlink:href="#DejaVuSans-48" transform="translate(871.515625 0)"/>
      <use xlink:href="#DejaVuSans-55" transform="translate(933.046875 0)"/>
      <use xlink:href="#DejaVuSans-3" transform="translate(974.15625 0)"/>
      <use xlink:href="#DejaVuSans-30" transform="translate(1005.9375 0)"/>
      <use xlink:href="#DejaVuSans-3a" transform="translate(1092.21875 0)"/>
      <use xlink:href="#DejaVuSans-3" transform="translate(1191.09375 0)"/>
      <use xlink:href="#DejaVuSans-52" transform="translate(1222.875 0)"/>
      <use xlink:href="#DejaVuSans-49" transform="translate(1284.0625 0)"/>
      <use xlink:href="#DejaVuSans-3" transform="translate(1319.265625 0)"/>
      <use xlink:href="#DejaVuSans-46" transform="translate(1351.046875 0)"/>
      <use xlink:href="#DejaVuSans-52" transform="translate(1406.03125 0)"/>
      <use xlink:href="#DejaVuSans-51" transform="translate(1467.21875 0)"/>
      <use xlink:href="#DejaVuSans-51" transform="translate(1530.59375 0)"/>
      <use xlink:href="#DejaVuSans-48" transform="translate(1593.96875 0)"/>
      <use xlink:href="#DejaVuSans-46" transform="translate(1655.5 0)"/>
      <use xlink:href="#DejaVuSans-57" transform="translate(1710.484375 0)"/>
      <use xlink:href="#DejaVuSans-48" transform="translate(1749.6875 0)"/>
      <use xlink:href="#DejaVuSans-47" transform="translate(1811.21875 0)"/>
      <use xlink:href="#DejaVuSans-3" transform="translate(1874.703125 0)"/>
      <use xlink:href="#DejaVuSans-53" transform="translate(1906.484375 0)"/>
      <use xlink:href="#DejaVuSans-52" transform="translate(1969.96875 0)"/>
      <use xlink:href="#DejaVuSans-5a" transform="translate(2031.15625 0)"/>
      <use xlink:href="#DejaVuSans-48" transform="translate(2112.9375 0)"/>
      <use xlink:href="#DejaVuSans-55" transform="translate(2174.46875 0)"/>
      <use xlink:href="#DejaVuSans-f" transform="translate(2215.578125 0)"/>
      <use xlink:href="#DejaVuSans-3" transform="translate(2247.359375 0)"/>
      <use xlink:href="#DejaVuSans-53" transform="translate(2279.140625 0)"/>
      <use xlink:href="#DejaVuSans-48" transform="translate(2342.625 0)"/>
      <use xlink:href="#DejaVuSans-55" transform="translate(2404.15625 0)"/>
      <use xlink:href="#DejaVuSans-3" transform="translate(2445.265625 0)"/>
      <use xlink:href="#DejaVuSans-5c" transform="translate(2477.046875 0)"/>
      <use xlink:href="#DejaVuSans-48" transform="translate(2536.234375 0)"/>
      <use xlink:href="#DejaVuSans-44" transform="translate(2597.765625 0)"/>
      <use xlink:href="#DejaVuSans-55" transform="translate(2659.046875 0)"/>
     </g>
    </g>
   </g>
   <g id="line2d_18">
    <path d="M 43.333945 329.562047 
L 556.693945 329.562047 
" clip-path="url(#p2da327ecdb)" style="fill: none; stroke: #c9c9c4; stroke-linecap: square"/>
   </g>
   <g id="patch_3">
    <path d="M 43.333945 358.074047 
L 43.333945 58.698047 
" style="fill: none; stroke: #000000; stroke-width: 0.8; stroke-linejoin: miter; stroke-linecap: square"/>
   </g>
   <g id="patch_4">
    <path d="M 66.668491 329.562047 
L 129.298007 329.562047 
L 129.298007 254.583259 
L 66.668491 254.583259 
z
" clip-path="url(#p2da327ecdb)" style="fill: #bf4433"/>
   </g>
   <g id="text_13">
    <!-- 79 -->
    <g style="fill: #161d1b" transform="translate(89.981764 249.831259) scale(0.115 -0.115)">
     <defs>
      <path id="DejaVuSans-Bold-1a" d="M 428 4666 
L 3944 4666 
L 3944 3988 
L 2125 0 
L 953 0 
L 2675 3781 
L 428 3781 
L 428 4666 
z
" transform="scale(0.015625)"/>
      <path id="DejaVuSans-Bold-1c" d="M 641 103 
L 641 966 
Q 928 831 1190 764 
Q 1453 697 1709 697 
Q 2247 697 2547 995 
Q 2847 1294 2900 1881 
Q 2688 1725 2447 1647 
Q 2206 1569 1925 1569 
Q 1209 1569 770 1986 
Q 331 2403 331 3084 
Q 331 3838 820 4291 
Q 1309 4744 2131 4744 
Q 3044 4744 3544 4128 
Q 4044 3513 4044 2388 
Q 4044 1231 3459 570 
Q 2875 -91 1856 -91 
Q 1528 -91 1228 -42 
Q 928 6 641 103 
z
M 2125 2350 
Q 2441 2350 2600 2554 
Q 2759 2759 2759 3169 
Q 2759 3575 2600 3781 
Q 2441 3988 2125 3988 
Q 1809 3988 1650 3781 
Q 1491 3575 1491 3169 
Q 1491 2759 1650 2554 
Q 1809 2350 2125 2350 
z
" transform="scale(0.015625)"/>
     </defs>
     <use xlink:href="#DejaVuSans-Bold-1a"/>
     <use xlink:href="#DejaVuSans-Bold-1c" transform="translate(69.578125 0)"/>
    </g>
   </g>
   <g id="patch_5">
    <path d="M 167.683839 329.562047 
L 230.313355 329.562047 
L 230.313355 234.801862 
L 167.683839 234.801862 
z
" clip-path="url(#p2da327ecdb)" style="fill: #bf4433"/>
   </g>
   <g id="text_14">
    <!-- 100 -->
    <g style="fill: #161d1b" transform="translate(186.99637 230.049862) scale(0.115 -0.115)">
     <defs>
      <path id="DejaVuSans-Bold-14" d="M 750 831 
L 1813 831 
L 1813 3847 
L 722 3622 
L 722 4441 
L 1806 4666 
L 2950 4666 
L 2950 831 
L 4013 831 
L 4013 0 
L 750 0 
L 750 831 
z
" transform="scale(0.015625)"/>
      <path id="DejaVuSans-Bold-13" d="M 2944 2338 
Q 2944 3213 2780 3570 
Q 2616 3928 2228 3928 
Q 1841 3928 1675 3570 
Q 1509 3213 1509 2338 
Q 1509 1453 1675 1090 
Q 1841 728 2228 728 
Q 2613 728 2778 1090 
Q 2944 1453 2944 2338 
z
M 4147 2328 
Q 4147 1169 3647 539 
Q 3147 -91 2228 -91 
Q 1306 -91 806 539 
Q 306 1169 306 2328 
Q 306 3491 806 4120 
Q 1306 4750 2228 4750 
Q 3147 4750 3647 4120 
Q 4147 3491 4147 2328 
z
" transform="scale(0.015625)"/>
     </defs>
     <use xlink:href="#DejaVuSans-Bold-14"/>
     <use xlink:href="#DejaVuSans-Bold-13" transform="translate(69.578125 0)"/>
     <use xlink:href="#DejaVuSans-Bold-13" transform="translate(139.15625 0)"/>
    </g>
   </g>
   <g id="patch_6">
    <path d="M 268.699187 329.562047 
L 331.328703 329.562047 
L 331.328703 277.111372 
L 268.699187 277.111372 
z
" clip-path="url(#p2da327ecdb)" style="fill: #dfa03a"/>
   </g>
   <g id="text_15">
    <!-- 55 -->
    <g style="fill: #161d1b" transform="translate(292.012461 272.359372) scale(0.115 -0.115)">
     <defs>
      <path id="DejaVuSans-Bold-18" d="M 678 4666 
L 3669 4666 
L 3669 3781 
L 1638 3781 
L 1638 3059 
Q 1775 3097 1914 3117 
Q 2053 3138 2203 3138 
Q 3056 3138 3531 2711 
Q 4006 2284 4006 1522 
Q 4006 766 3489 337 
Q 2972 -91 2053 -91 
Q 1656 -91 1267 -14 
Q 878 63 494 219 
L 494 1166 
Q 875 947 1217 837 
Q 1559 728 1863 728 
Q 2300 728 2551 942 
Q 2803 1156 2803 1522 
Q 2803 1891 2551 2103 
Q 2300 2316 1863 2316 
Q 1603 2316 1309 2248 
Q 1016 2181 678 2041 
L 678 4666 
z
" transform="scale(0.015625)"/>
     </defs>
     <use xlink:href="#DejaVuSans-Bold-18"/>
     <use xlink:href="#DejaVuSans-Bold-18" transform="translate(69.578125 0)"/>
    </g>
   </g>
   <g id="patch_7">
    <path d="M 369.714536 329.562047 
L 432.344052 329.562047 
L 432.344052 231.65412 
L 369.714536 231.65412 
z
" clip-path="url(#p2da327ecdb)" style="fill: #1f9bc4"/>
   </g>
   <g id="text_16">
    <!-- 103 -->
    <g style="fill: #161d1b" transform="translate(389.027067 226.90212) scale(0.115 -0.115)">
     <defs>
      <path id="DejaVuSans-Bold-16" d="M 2981 2516 
Q 3453 2394 3698 2092 
Q 3944 1791 3944 1325 
Q 3944 631 3412 270 
Q 2881 -91 1863 -91 
Q 1503 -91 1142 -33 
Q 781 25 428 141 
L 428 1069 
Q 766 900 1098 814 
Q 1431 728 1753 728 
Q 2231 728 2486 893 
Q 2741 1059 2741 1369 
Q 2741 1688 2480 1852 
Q 2219 2016 1709 2016 
L 1228 2016 
L 1228 2791 
L 1734 2791 
Q 2188 2791 2409 2933 
Q 2631 3075 2631 3366 
Q 2631 3634 2415 3781 
Q 2200 3928 1806 3928 
Q 1516 3928 1219 3862 
Q 922 3797 628 3669 
L 628 4550 
Q 984 4650 1334 4700 
Q 1684 4750 2022 4750 
Q 2931 4750 3382 4451 
Q 3834 4153 3834 3553 
Q 3834 3144 3618 2883 
Q 3403 2622 2981 2516 
z
" transform="scale(0.015625)"/>
     </defs>
     <use xlink:href="#DejaVuSans-Bold-14"/>
     <use xlink:href="#DejaVuSans-Bold-13" transform="translate(69.578125 0)"/>
     <use xlink:href="#DejaVuSans-Bold-16" transform="translate(139.15625 0)"/>
    </g>
   </g>
   <g id="patch_8">
    <path d="M 470.729884 329.562047 
L 533.3594 329.562047 
L 533.3594 109.269211 
L 470.729884 109.269211 
z
" clip-path="url(#p2da327ecdb)" style="fill: #1f9bc4"/>
   </g>
   <g id="text_17">
    <!-- 232 -->
    <g style="fill: #161d1b" transform="translate(490.042415 104.517211) scale(0.115 -0.115)">
     <defs>
      <path id="DejaVuSans-Bold-15" d="M 1844 884 
L 3897 884 
L 3897 0 
L 506 0 
L 506 884 
L 2209 2388 
Q 2438 2594 2547 2791 
Q 2656 2988 2656 3200 
Q 2656 3528 2436 3728 
Q 2216 3928 1850 3928 
Q 1569 3928 1234 3808 
Q 900 3688 519 3450 
L 519 4475 
Q 925 4609 1322 4679 
Q 1719 4750 2100 4750 
Q 2938 4750 3402 4381 
Q 3866 4013 3866 3353 
Q 3866 2972 3669 2642 
Q 3472 2313 2841 1759 
L 1844 884 
z
" transform="scale(0.015625)"/>
     </defs>
     <use xlink:href="#DejaVuSans-Bold-15"/>
     <use xlink:href="#DejaVuSans-Bold-16" transform="translate(69.578125 0)"/>
     <use xlink:href="#DejaVuSans-Bold-15" transform="translate(139.15625 0)"/>
    </g>
   </g>
   <g id="text_18">
    <!-- cost at BNEF's global capex, 52 -->
    <g style="fill: #161d1b" transform="translate(53.536495 275.965037) scale(0.095 -0.095)">
     <defs>
      <path id="DejaVuSans-25" d="M 1259 2228 
L 1259 519 
L 2272 519 
Q 2781 519 3026 730 
Q 3272 941 3272 1375 
Q 3272 1813 3026 2020 
Q 2781 2228 2272 2228 
L 1259 2228 
z
M 1259 4147 
L 1259 2741 
L 2194 2741 
Q 2656 2741 2882 2914 
Q 3109 3088 3109 3444 
Q 3109 3797 2882 3972 
Q 2656 4147 2194 4147 
L 1259 4147 
z
M 628 4666 
L 2241 4666 
Q 2963 4666 3353 4366 
Q 3744 4066 3744 3513 
Q 3744 3084 3544 2831 
Q 3344 2578 2956 2516 
Q 3422 2416 3680 2098 
Q 3938 1781 3938 1306 
Q 3938 681 3513 340 
Q 3088 0 2303 0 
L 628 0 
L 628 4666 
z
" transform="scale(0.015625)"/>
      <path id="DejaVuSans-31" d="M 628 4666 
L 1478 4666 
L 3547 763 
L 3547 4666 
L 4159 4666 
L 4159 0 
L 3309 0 
L 1241 3903 
L 1241 0 
L 628 0 
L 628 4666 
z
" transform="scale(0.015625)"/>
      <path id="DejaVuSans-a" d="M 1147 4666 
L 1147 2931 
L 616 2931 
L 616 4666 
L 1147 4666 
z
" transform="scale(0.015625)"/>
      <path id="DejaVuSans-4f" d="M 603 4863 
L 1178 4863 
L 1178 0 
L 603 0 
L 603 4863 
z
" transform="scale(0.015625)"/>
      <path id="DejaVuSans-5b" d="M 3513 3500 
L 2247 1797 
L 3578 0 
L 2900 0 
L 1881 1375 
L 863 0 
L 184 0 
L 1544 1831 
L 300 3500 
L 978 3500 
L 1906 2253 
L 2834 3500 
L 3513 3500 
z
" transform="scale(0.015625)"/>
     </defs>
     <use xlink:href="#DejaVuSans-46"/>
     <use xlink:href="#DejaVuSans-52" transform="translate(54.984375 0)"/>
     <use xlink:href="#DejaVuSans-56" transform="translate(116.171875 0)"/>
     <use xlink:href="#DejaVuSans-57" transform="translate(168.265625 0)"/>
     <use xlink:href="#DejaVuSans-3" transform="translate(207.46875 0)"/>
     <use xlink:href="#DejaVuSans-44" transform="translate(239.25 0)"/>
     <use xlink:href="#DejaVuSans-57" transform="translate(300.53125 0)"/>
     <use xlink:href="#DejaVuSans-3" transform="translate(339.734375 0)"/>
     <use xlink:href="#DejaVuSans-25" transform="translate(371.515625 0)"/>
     <use xlink:href="#DejaVuSans-31" transform="translate(440.125 0)"/>
     <use xlink:href="#DejaVuSans-28" transform="translate(514.9375 0)"/>
     <use xlink:href="#DejaVuSans-29" transform="translate(578.125 0)"/>
     <use xlink:href="#DejaVuSans-a" transform="translate(635.640625 0)"/>
     <use xlink:href="#DejaVuSans-56" transform="translate(663.125 0)"/>
     <use xlink:href="#DejaVuSans-3" transform="translate(715.21875 0)"/>
     <use xlink:href="#DejaVuSans-4a" transform="translate(747 0)"/>
     <use xlink:href="#DejaVuSans-4f" transform="translate(810.484375 0)"/>
     <use xlink:href="#DejaVuSans-52" transform="translate(838.265625 0)"/>
     <use xlink:href="#DejaVuSans-45" transform="translate(899.453125 0)"/>
     <use xlink:href="#DejaVuSans-44" transform="translate(962.9375 0)"/>
     <use xlink:href="#DejaVuSans-4f" transform="translate(1024.21875 0)"/>
     <use xlink:href="#DejaVuSans-3" transform="translate(1052 0)"/>
     <use xlink:href="#DejaVuSans-46" transform="translate(1083.78125 0)"/>
     <use xlink:href="#DejaVuSans-44" transform="translate(1138.765625 0)"/>
     <use xlink:href="#DejaVuSans-53" transform="translate(1200.046875 0)"/>
     <use xlink:href="#DejaVuSans-48" transform="translate(1263.53125 0)"/>
     <use xlink:href="#DejaVuSans-5b" transform="translate(1323.3125 0)"/>
     <use xlink:href="#DejaVuSans-f" transform="translate(1382.5 0)"/>
     <use xlink:href="#DejaVuSans-3" transform="translate(1414.28125 0)"/>
     <use xlink:href="#DejaVuSans-18" transform="translate(1446.0625 0)"/>
     <use xlink:href="#DejaVuSans-15" transform="translate(1509.6875 0)"/>
    </g>
   </g>
   <g id="text_19">
    <!-- cost at the Swedish capex, 89 -->
    <g style="fill: #161d1b" transform="translate(53.536495 240.890961) scale(0.095 -0.095)">
     <defs>
      <path id="DejaVuSans-1b" d="M 2034 2216 
Q 1584 2216 1326 1975 
Q 1069 1734 1069 1313 
Q 1069 891 1326 650 
Q 1584 409 2034 409 
Q 2484 409 2743 651 
Q 3003 894 3003 1313 
Q 3003 1734 2745 1975 
Q 2488 2216 2034 2216 
z
M 1403 2484 
Q 997 2584 770 2862 
Q 544 3141 544 3541 
Q 544 4100 942 4425 
Q 1341 4750 2034 4750 
Q 2731 4750 3128 4425 
Q 3525 4100 3525 3541 
Q 3525 3141 3298 2862 
Q 3072 2584 2669 2484 
Q 3125 2378 3379 2068 
Q 3634 1759 3634 1313 
Q 3634 634 3220 271 
Q 2806 -91 2034 -91 
Q 1263 -91 848 271 
Q 434 634 434 1313 
Q 434 1759 690 2068 
Q 947 2378 1403 2484 
z
M 1172 3481 
Q 1172 3119 1398 2916 
Q 1625 2713 2034 2713 
Q 2441 2713 2670 2916 
Q 2900 3119 2900 3481 
Q 2900 3844 2670 4047 
Q 2441 4250 2034 4250 
Q 1625 4250 1398 4047 
Q 1172 3844 1172 3481 
z
" transform="scale(0.015625)"/>
     </defs>
     <use xlink:href="#DejaVuSans-46"/>
     <use xlink:href="#DejaVuSans-52" transform="translate(54.984375 0)"/>
     <use xlink:href="#DejaVuSans-56" transform="translate(116.171875 0)"/>
     <use xlink:href="#DejaVuSans-57" transform="translate(168.265625 0)"/>
     <use xlink:href="#DejaVuSans-3" transform="translate(207.46875 0)"/>
     <use xlink:href="#DejaVuSans-44" transform="translate(239.25 0)"/>
     <use xlink:href="#DejaVuSans-57" transform="translate(300.53125 0)"/>
     <use xlink:href="#DejaVuSans-3" transform="translate(339.734375 0)"/>
     <use xlink:href="#DejaVuSans-57" transform="translate(371.515625 0)"/>
     <use xlink:href="#DejaVuSans-4b" transform="translate(410.71875 0)"/>
     <use xlink:href="#DejaVuSans-48" transform="translate(474.09375 0)"/>
     <use xlink:href="#DejaVuSans-3" transform="translate(535.625 0)"/>
     <use xlink:href="#DejaVuSans-36" transform="translate(567.40625 0)"/>
     <use xlink:href="#DejaVuSans-5a" transform="translate(630.890625 0)"/>
     <use xlink:href="#DejaVuSans-48" transform="translate(712.671875 0)"/>
     <use xlink:href="#DejaVuSans-47" transform="translate(774.203125 0)"/>
     <use xlink:href="#DejaVuSans-4c" transform="translate(837.6875 0)"/>
     <use xlink:href="#DejaVuSans-56" transform="translate(865.46875 0)"/>
     <use xlink:href="#DejaVuSans-4b" transform="translate(917.5625 0)"/>
     <use xlink:href="#DejaVuSans-3" transform="translate(980.9375 0)"/>
     <use xlink:href="#DejaVuSans-46" transform="translate(1012.71875 0)"/>
     <use xlink:href="#DejaVuSans-44" transform="translate(1067.703125 0)"/>
     <use xlink:href="#DejaVuSans-53" transform="translate(1128.984375 0)"/>
     <use xlink:href="#DejaVuSans-48" transform="translate(1192.46875 0)"/>
     <use xlink:href="#DejaVuSans-5b" transform="translate(1252.25 0)"/>
     <use xlink:href="#DejaVuSans-f" transform="translate(1311.4375 0)"/>
     <use xlink:href="#DejaVuSans-3" transform="translate(1343.21875 0)"/>
     <use xlink:href="#DejaVuSans-1b" transform="translate(1375 0)"/>
     <use xlink:href="#DejaVuSans-1c" transform="translate(1438.625 0)"/>
    </g>
   </g>
   <g id="text_20">
    <!-- Day-ahead arbitrage does not cover the capital. The reserve markets do — and they pay -->
    <g style="fill: #8a8a85" transform="translate(43.333945 39.571655) scale(0.095 -0.095)">
     <defs>
      <path id="DejaVuSans-59" d="M 191 3500 
L 800 3500 
L 1894 563 
L 2988 3500 
L 3597 3500 
L 2284 0 
L 1503 0 
L 191 3500 
z
" transform="scale(0.015625)"/>
      <path id="DejaVuSans-11" d="M 684 794 
L 1344 794 
L 1344 0 
L 684 0 
L 684 794 
z
" transform="scale(0.015625)"/>
      <path id="DejaVuSans-37" d="M -19 4666 
L 3928 4666 
L 3928 4134 
L 2272 4134 
L 2272 0 
L 1638 0 
L 1638 4134 
L -19 4134 
L -19 4666 
z
" transform="scale(0.015625)"/>
      <path id="DejaVuSans-50" d="M 3328 2828 
Q 3544 3216 3844 3400 
Q 4144 3584 4550 3584 
Q 5097 3584 5394 3201 
Q 5691 2819 5691 2113 
L 5691 0 
L 5113 0 
L 5113 2094 
Q 5113 2597 4934 2840 
Q 4756 3084 4391 3084 
Q 3944 3084 3684 2787 
Q 3425 2491 3425 1978 
L 3425 0 
L 2847 0 
L 2847 2094 
Q 2847 2600 2669 2842 
Q 2491 3084 2119 3084 
Q 1678 3084 1418 2786 
Q 1159 2488 1159 1978 
L 1159 0 
L 581 0 
L 581 3500 
L 1159 3500 
L 1159 2956 
Q 1356 3278 1631 3431 
Q 1906 3584 2284 3584 
Q 2666 3584 2933 3390 
Q 3200 3197 3328 2828 
z
" transform="scale(0.015625)"/>
      <path id="DejaVuSans-4e" d="M 581 4863 
L 1159 4863 
L 1159 1991 
L 2875 3500 
L 3609 3500 
L 1753 1863 
L 3688 0 
L 2938 0 
L 1159 1709 
L 1159 0 
L 581 0 
L 581 4863 
z
" transform="scale(0.015625)"/>
      <path id="DejaVuSans-af6" d="M 313 1978 
L 6088 1978 
L 6088 1528 
L 313 1528 
L 313 1978 
z
" transform="scale(0.015625)"/>
     </defs>
     <use xlink:href="#DejaVuSans-27"/>
     <use xlink:href="#DejaVuSans-44" transform="translate(77 0)"/>
     <use xlink:href="#DejaVuSans-5c" transform="translate(138.28125 0)"/>
     <use xlink:href="#DejaVuSans-10" transform="translate(195.71875 0)"/>
     <use xlink:href="#DejaVuSans-44" transform="translate(231.796875 0)"/>
     <use xlink:href="#DejaVuSans-4b" transform="translate(293.078125 0)"/>
     <use xlink:href="#DejaVuSans-48" transform="translate(356.453125 0)"/>
     <use xlink:href="#DejaVuSans-44" transform="translate(417.984375 0)"/>
     <use xlink:href="#DejaVuSans-47" transform="translate(479.265625 0)"/>
     <use xlink:href="#DejaVuSans-3" transform="translate(542.75 0)"/>
     <use xlink:href="#DejaVuSans-44" transform="translate(574.53125 0)"/>
     <use xlink:href="#DejaVuSans-55" transform="translate(635.8125 0)"/>
     <use xlink:href="#DejaVuSans-45" transform="translate(676.921875 0)"/>
     <use xlink:href="#DejaVuSans-4c" transform="translate(740.40625 0)"/>
     <use xlink:href="#DejaVuSans-57" transform="translate(768.1875 0)"/>
     <use xlink:href="#DejaVuSans-55" transform="translate(807.390625 0)"/>
     <use xlink:href="#DejaVuSans-44" transform="translate(848.5 0)"/>
     <use xlink:href="#DejaVuSans-4a" transform="translate(909.78125 0)"/>
     <use xlink:href="#DejaVuSans-48" transform="translate(973.265625 0)"/>
     <use xlink:href="#DejaVuSans-3" transform="translate(1034.796875 0)"/>
     <use xlink:href="#DejaVuSans-47" transform="translate(1066.578125 0)"/>
     <use xlink:href="#DejaVuSans-52" transform="translate(1130.0625 0)"/>
     <use xlink:href="#DejaVuSans-48" transform="translate(1191.25 0)"/>
     <use xlink:href="#DejaVuSans-56" transform="translate(1252.78125 0)"/>
     <use xlink:href="#DejaVuSans-3" transform="translate(1304.875 0)"/>
     <use xlink:href="#DejaVuSans-51" transform="translate(1336.65625 0)"/>
     <use xlink:href="#DejaVuSans-52" transform="translate(1400.03125 0)"/>
     <use xlink:href="#DejaVuSans-57" transform="translate(1461.21875 0)"/>
     <use xlink:href="#DejaVuSans-3" transform="translate(1500.421875 0)"/>
     <use xlink:href="#DejaVuSans-46" transform="translate(1532.203125 0)"/>
     <use xlink:href="#DejaVuSans-52" transform="translate(1587.1875 0)"/>
     <use xlink:href="#DejaVuSans-59" transform="translate(1648.375 0)"/>
     <use xlink:href="#DejaVuSans-48" transform="translate(1707.5625 0)"/>
     <use xlink:href="#DejaVuSans-55" transform="translate(1769.09375 0)"/>
     <use xlink:href="#DejaVuSans-3" transform="translate(1810.203125 0)"/>
     <use xlink:href="#DejaVuSans-57" transform="translate(1841.984375 0)"/>
     <use xlink:href="#DejaVuSans-4b" transform="translate(1881.1875 0)"/>
     <use xlink:href="#DejaVuSans-48" transform="translate(1944.5625 0)"/>
     <use xlink:href="#DejaVuSans-3" transform="translate(2006.09375 0)"/>
     <use xlink:href="#DejaVuSans-46" transform="translate(2037.875 0)"/>
     <use xlink:href="#DejaVuSans-44" transform="translate(2092.859375 0)"/>
     <use xlink:href="#DejaVuSans-53" transform="translate(2154.140625 0)"/>
     <use xlink:href="#DejaVuSans-4c" transform="translate(2217.625 0)"/>
     <use xlink:href="#DejaVuSans-57" transform="translate(2245.40625 0)"/>
     <use xlink:href="#DejaVuSans-44" transform="translate(2284.609375 0)"/>
     <use xlink:href="#DejaVuSans-4f" transform="translate(2345.890625 0)"/>
     <use xlink:href="#DejaVuSans-11" transform="translate(2373.671875 0)"/>
     <use xlink:href="#DejaVuSans-3" transform="translate(2405.453125 0)"/>
     <use xlink:href="#DejaVuSans-37" transform="translate(2437.234375 0)"/>
     <use xlink:href="#DejaVuSans-4b" transform="translate(2498.3125 0)"/>
     <use xlink:href="#DejaVuSans-48" transform="translate(2561.6875 0)"/>
     <use xlink:href="#DejaVuSans-3" transform="translate(2623.21875 0)"/>
     <use xlink:href="#DejaVuSans-55" transform="translate(2655 0)"/>
     <use xlink:href="#DejaVuSans-48" transform="translate(2693.90625 0)"/>
     <use xlink:href="#DejaVuSans-56" transform="translate(2755.4375 0)"/>
     <use xlink:href="#DejaVuSans-48" transform="translate(2807.53125 0)"/>
     <use xlink:href="#DejaVuSans-55" transform="translate(2869.0625 0)"/>
     <use xlink:href="#DejaVuSans-59" transform="translate(2910.171875 0)"/>
     <use xlink:href="#DejaVuSans-48" transform="translate(2969.359375 0)"/>
     <use xlink:href="#DejaVuSans-3" transform="translate(3030.890625 0)"/>
     <use xlink:href="#DejaVuSans-50" transform="translate(3062.671875 0)"/>
     <use xlink:href="#DejaVuSans-44" transform="translate(3160.078125 0)"/>
     <use xlink:href="#DejaVuSans-55" transform="translate(3221.359375 0)"/>
     <use xlink:href="#DejaVuSans-4e" transform="translate(3262.46875 0)"/>
     <use xlink:href="#DejaVuSans-48" transform="translate(3316.8125 0)"/>
     <use xlink:href="#DejaVuSans-57" transform="translate(3378.34375 0)"/>
     <use xlink:href="#DejaVuSans-56" transform="translate(3417.546875 0)"/>
     <use xlink:href="#DejaVuSans-3" transform="translate(3469.640625 0)"/>
     <use xlink:href="#DejaVuSans-47" transform="translate(3501.421875 0)"/>
     <use xlink:href="#DejaVuSans-52" transform="translate(3564.90625 0)"/>
     <use xlink:href="#DejaVuSans-3" transform="translate(3626.09375 0)"/>
     <use xlink:href="#DejaVuSans-af6" transform="translate(3657.875 0)"/>
     <use xlink:href="#DejaVuSans-3" transform="translate(3757.875 0)"/>
     <use xlink:href="#DejaVuSans-44" transform="translate(3789.65625 0)"/>
     <use xlink:href="#DejaVuSans-51" transform="translate(3850.9375 0)"/>
     <use xlink:href="#DejaVuSans-47" transform="translate(3914.3125 0)"/>
     <use xlink:href="#DejaVuSans-3" transform="translate(3977.796875 0)"/>
     <use xlink:href="#DejaVuSans-57" transform="translate(4009.578125 0)"/>
     <use xlink:href="#DejaVuSans-4b" transform="translate(4048.78125 0)"/>
     <use xlink:href="#DejaVuSans-48" transform="translate(4112.15625 0)"/>
     <use xlink:href="#DejaVuSans-5c" transform="translate(4173.6875 0)"/>
     <use xlink:href="#DejaVuSans-3" transform="translate(4232.875 0)"/>
     <use xlink:href="#DejaVuSans-53" transform="translate(4264.65625 0)"/>
     <use xlink:href="#DejaVuSans-44" transform="translate(4328.140625 0)"/>
     <use xlink:href="#DejaVuSans-5c" transform="translate(4389.421875 0)"/>
    </g>
    <!-- per megawatt of availability, so nothing in them rewards a fifth hour of storage. -->
    <g style="fill: #8a8a85" transform="translate(43.333945 50.974253) scale(0.095 -0.095)">
     <defs>
      <path id="DejaVuSans-13af" d="M 3431 3500 
L 3431 0 
L 2853 0 
L 2853 3053 
L 1275 3053 
L 1275 0 
L 697 0 
L 697 3053 
L 147 3053 
L 147 3500 
L 697 3500 
L 697 3744 
Q 697 4316 967 4589 
Q 1238 4863 1797 4863 
L 2375 4863 
L 2375 4384 
L 1825 4384 
Q 1516 4384 1395 4259 
Q 1275 4134 1275 3809 
L 1275 3500 
L 3431 3500 
z
M 2853 4856 
L 3431 4856 
L 3431 4128 
L 2853 4128 
L 2853 4856 
z
" transform="scale(0.015625)"/>
     </defs>
     <use xlink:href="#DejaVuSans-53"/>
     <use xlink:href="#DejaVuSans-48" transform="translate(63.484375 0)"/>
     <use xlink:href="#DejaVuSans-55" transform="translate(125.015625 0)"/>
     <use xlink:href="#DejaVuSans-3" transform="translate(166.125 0)"/>
     <use xlink:href="#DejaVuSans-50" transform="translate(197.90625 0)"/>
     <use xlink:href="#DejaVuSans-48" transform="translate(295.3125 0)"/>
     <use xlink:href="#DejaVuSans-4a" transform="translate(356.84375 0)"/>
     <use xlink:href="#DejaVuSans-44" transform="translate(420.328125 0)"/>
     <use xlink:href="#DejaVuSans-5a" transform="translate(481.609375 0)"/>
     <use xlink:href="#DejaVuSans-44" transform="translate(563.390625 0)"/>
     <use xlink:href="#DejaVuSans-57" transform="translate(624.671875 0)"/>
     <use xlink:href="#DejaVuSans-57" transform="translate(663.875 0)"/>
     <use xlink:href="#DejaVuSans-3" transform="translate(703.078125 0)"/>
     <use xlink:href="#DejaVuSans-52" transform="translate(734.859375 0)"/>
     <use xlink:href="#DejaVuSans-49" transform="translate(796.046875 0)"/>
     <use xlink:href="#DejaVuSans-3" transform="translate(831.25 0)"/>
     <use xlink:href="#DejaVuSans-44" transform="translate(863.03125 0)"/>
     <use xlink:href="#DejaVuSans-59" transform="translate(924.3125 0)"/>
     <use xlink:href="#DejaVuSans-44" transform="translate(983.5 0)"/>
     <use xlink:href="#DejaVuSans-4c" transform="translate(1044.78125 0)"/>
     <use xlink:href="#DejaVuSans-4f" transform="translate(1072.5625 0)"/>
     <use xlink:href="#DejaVuSans-44" transform="translate(1100.34375 0)"/>
     <use xlink:href="#DejaVuSans-45" transform="translate(1161.625 0)"/>
     <use xlink:href="#DejaVuSans-4c" transform="translate(1225.109375 0)"/>
     <use xlink:href="#DejaVuSans-4f" transform="translate(1252.890625 0)"/>
     <use xlink:href="#DejaVuSans-4c" transform="translate(1280.671875 0)"/>
     <use xlink:href="#DejaVuSans-57" transform="translate(1308.453125 0)"/>
     <use xlink:href="#DejaVuSans-5c" transform="translate(1347.65625 0)"/>
     <use xlink:href="#DejaVuSans-f" transform="translate(1406.84375 0)"/>
     <use xlink:href="#DejaVuSans-3" transform="translate(1438.625 0)"/>
     <use xlink:href="#DejaVuSans-56" transform="translate(1470.40625 0)"/>
     <use xlink:href="#DejaVuSans-52" transform="translate(1522.5 0)"/>
     <use xlink:href="#DejaVuSans-3" transform="translate(1583.6875 0)"/>
     <use xlink:href="#DejaVuSans-51" transform="translate(1615.46875 0)"/>
     <use xlink:href="#DejaVuSans-52" transform="translate(1678.84375 0)"/>
     <use xlink:href="#DejaVuSans-57" transform="translate(1740.03125 0)"/>
     <use xlink:href="#DejaVuSans-4b" transform="translate(1779.234375 0)"/>
     <use xlink:href="#DejaVuSans-4c" transform="translate(1842.609375 0)"/>
     <use xlink:href="#DejaVuSans-51" transform="translate(1870.390625 0)"/>
     <use xlink:href="#DejaVuSans-4a" transform="translate(1933.765625 0)"/>
     <use xlink:href="#DejaVuSans-3" transform="translate(1997.25 0)"/>
     <use xlink:href="#DejaVuSans-4c" transform="translate(2029.03125 0)"/>
     <use xlink:href="#DejaVuSans-51" transform="translate(2056.8125 0)"/>
     <use xlink:href="#DejaVuSans-3" transform="translate(2120.1875 0)"/>
     <use xlink:href="#DejaVuSans-57" transform="translate(2151.96875 0)"/>
     <use xlink:href="#DejaVuSans-4b" transform="translate(2191.171875 0)"/>
     <use xlink:href="#DejaVuSans-48" transform="translate(2254.546875 0)"/>
     <use xlink:href="#DejaVuSans-50" transform="translate(2316.078125 0)"/>
     <use xlink:href="#DejaVuSans-3" transform="translate(2413.484375 0)"/>
     <use xlink:href="#DejaVuSans-55" transform="translate(2445.265625 0)"/>
     <use xlink:href="#DejaVuSans-48" transform="translate(2484.171875 0)"/>
     <use xlink:href="#DejaVuSans-5a" transform="translate(2545.703125 0)"/>
     <use xlink:href="#DejaVuSans-44" transform="translate(2627.484375 0)"/>
     <use xlink:href="#DejaVuSans-55" transform="translate(2688.765625 0)"/>
     <use xlink:href="#DejaVuSans-47" transform="translate(2728.125 0)"/>
     <use xlink:href="#DejaVuSans-56" transform="translate(2791.609375 0)"/>
     <use xlink:href="#DejaVuSans-3" transform="translate(2843.703125 0)"/>
     <use xlink:href="#DejaVuSans-44" transform="translate(2875.484375 0)"/>
     <use xlink:href="#DejaVuSans-3" transform="translate(2936.765625 0)"/>
     <use xlink:href="#DejaVuSans-13af" transform="translate(2968.546875 0)"/>
     <use xlink:href="#DejaVuSans-49" transform="translate(3031.53125 0)"/>
     <use xlink:href="#DejaVuSans-57" transform="translate(3064.984375 0)"/>
     <use xlink:href="#DejaVuSans-4b" transform="translate(3104.1875 0)"/>
     <use xlink:href="#DejaVuSans-3" transform="translate(3167.5625 0)"/>
     <use xlink:href="#DejaVuSans-4b" transform="translate(3199.34375 0)"/>
     <use xlink:href="#DejaVuSans-52" transform="translate(3262.71875 0)"/>
     <use xlink:href="#DejaVuSans-58" transform="translate(3323.90625 0)"/>
     <use xlink:href="#DejaVuSans-55" transform="translate(3387.28125 0)"/>
     <use xlink:href="#DejaVuSans-3" transform="translate(3428.390625 0)"/>
     <use xlink:href="#DejaVuSans-52" transform="translate(3460.171875 0)"/>
     <use xlink:href="#DejaVuSans-49" transform="translate(3521.359375 0)"/>
     <use xlink:href="#DejaVuSans-3" transform="translate(3556.5625 0)"/>
     <use xlink:href="#DejaVuSans-56" transform="translate(3588.34375 0)"/>
     <use xlink:href="#DejaVuSans-57" transform="translate(3640.4375 0)"/>
     <use xlink:href="#DejaVuSans-52" transform="translate(3679.640625 0)"/>
     <use xlink:href="#DejaVuSans-55" transform="translate(3740.828125 0)"/>
     <use xlink:href="#DejaVuSans-44" transform="translate(3781.9375 0)"/>
     <use xlink:href="#DejaVuSans-4a" transform="translate(3843.21875 0)"/>
     <use xlink:href="#DejaVuSans-48" transform="translate(3906.703125 0)"/>
     <use xlink:href="#DejaVuSans-11" transform="translate(3968.234375 0)"/>
    </g>
   </g>
   <g id="text_21">
    <!-- Capacity prices: Svenska kraftnät monthly reports, 2025. Arbitrage: Energy-Charts SE3/SE4 2025. Capex: BloombergNEF -->
    <g style="fill: #8a8a85" transform="translate(43.333945 425.258749) scale(0.085 -0.085)">
     <defs>
      <path id="DejaVuSans-1d" d="M 750 794 
L 1409 794 
L 1409 0 
L 750 0 
L 750 794 
z
M 750 3309 
L 1409 3309 
L 1409 2516 
L 750 2516 
L 750 3309 
z
" transform="scale(0.015625)"/>
      <path id="DejaVuSans-a6" d="M 2194 1759 
Q 1497 1759 1228 1600 
Q 959 1441 959 1056 
Q 959 750 1161 570 
Q 1363 391 1709 391 
Q 2188 391 2477 730 
Q 2766 1069 2766 1631 
L 2766 1759 
L 2194 1759 
z
M 3341 1997 
L 3341 0 
L 2766 0 
L 2766 531 
Q 2569 213 2275 61 
Q 1981 -91 1556 -91 
Q 1019 -91 701 211 
Q 384 513 384 1019 
Q 384 1609 779 1909 
Q 1175 2209 1959 2209 
L 2766 2209 
L 2766 2266 
Q 2766 2663 2505 2880 
Q 2244 3097 1772 3097 
Q 1472 3097 1187 3025 
Q 903 2953 641 2809 
L 641 3341 
Q 956 3463 1253 3523 
Q 1550 3584 1831 3584 
Q 2591 3584 2966 3190 
Q 3341 2797 3341 1997 
z
M 2150 4850 
L 2784 4850 
L 2784 4219 
L 2150 4219 
L 2150 4850 
z
M 928 4850 
L 1562 4850 
L 1562 4219 
L 928 4219 
L 928 4850 
z
" transform="scale(0.015625)"/>
     </defs>
     <use xlink:href="#DejaVuSans-26"/>
     <use xlink:href="#DejaVuSans-44" transform="translate(69.828125 0)"/>
     <use xlink:href="#DejaVuSans-53" transform="translate(131.109375 0)"/>
     <use xlink:href="#DejaVuSans-44" transform="translate(194.59375 0)"/>
     <use xlink:href="#DejaVuSans-46" transform="translate(255.875 0)"/>
     <use xlink:href="#DejaVuSans-4c" transform="translate(310.859375 0)"/>
     <use xlink:href="#DejaVuSans-57" transform="translate(338.640625 0)"/>
     <use xlink:href="#DejaVuSans-5c" transform="translate(377.84375 0)"/>
     <use xlink:href="#DejaVuSans-3" transform="translate(437.03125 0)"/>
     <use xlink:href="#DejaVuSans-53" transform="translate(468.8125 0)"/>
     <use xlink:href="#DejaVuSans-55" transform="translate(532.296875 0)"/>
     <use xlink:href="#DejaVuSans-4c" transform="translate(573.40625 0)"/>
     <use xlink:href="#DejaVuSans-46" transform="translate(601.1875 0)"/>
     <use xlink:href="#DejaVuSans-48" transform="translate(656.171875 0)"/>
     <use xlink:href="#DejaVuSans-56" transform="translate(717.703125 0)"/>
     <use xlink:href="#DejaVuSans-1d" transform="translate(769.796875 0)"/>
     <use xlink:href="#DejaVuSans-3" transform="translate(803.484375 0)"/>
     <use xlink:href="#DejaVuSans-36" transform="translate(835.265625 0)"/>
     <use xlink:href="#DejaVuSans-59" transform="translate(898.75 0)"/>
     <use xlink:href="#DejaVuSans-48" transform="translate(957.9375 0)"/>
     <use xlink:href="#DejaVuSans-51" transform="translate(1019.46875 0)"/>
     <use xlink:href="#DejaVuSans-56" transform="translate(1082.84375 0)"/>
     <use xlink:href="#DejaVuSans-4e" transform="translate(1134.9375 0)"/>
     <use xlink:href="#DejaVuSans-44" transform="translate(1191.09375 0)"/>
     <use xlink:href="#DejaVuSans-3" transform="translate(1252.375 0)"/>
     <use xlink:href="#DejaVuSans-4e" transform="translate(1284.15625 0)"/>
     <use xlink:href="#DejaVuSans-55" transform="translate(1342.0625 0)"/>
     <use xlink:href="#DejaVuSans-44" transform="translate(1383.171875 0)"/>
     <use xlink:href="#DejaVuSans-49" transform="translate(1444.453125 0)"/>
     <use xlink:href="#DejaVuSans-57" transform="translate(1477.90625 0)"/>
     <use xlink:href="#DejaVuSans-51" transform="translate(1517.109375 0)"/>
     <use xlink:href="#DejaVuSans-a6" transform="translate(1580.484375 0)"/>
     <use xlink:href="#DejaVuSans-57" transform="translate(1641.765625 0)"/>
     <use xlink:href="#DejaVuSans-3" transform="translate(1680.96875 0)"/>
     <use xlink:href="#DejaVuSans-50" transform="translate(1712.75 0)"/>
     <use xlink:href="#DejaVuSans-52" transform="translate(1810.15625 0)"/>
     <use xlink:href="#DejaVuSans-51" transform="translate(1871.34375 0)"/>
     <use xlink:href="#DejaVuSans-57" transform="translate(1934.71875 0)"/>
     <use xlink:href="#DejaVuSans-4b" transform="translate(1973.921875 0)"/>
     <use xlink:href="#DejaVuSans-4f" transform="translate(2037.296875 0)"/>
     <use xlink:href="#DejaVuSans-5c" transform="translate(2065.078125 0)"/>
     <use xlink:href="#DejaVuSans-3" transform="translate(2124.265625 0)"/>
     <use xlink:href="#DejaVuSans-55" transform="translate(2156.046875 0)"/>
     <use xlink:href="#DejaVuSans-48" transform="translate(2194.953125 0)"/>
     <use xlink:href="#DejaVuSans-53" transform="translate(2256.484375 0)"/>
     <use xlink:href="#DejaVuSans-52" transform="translate(2319.96875 0)"/>
     <use xlink:href="#DejaVuSans-55" transform="translate(2381.15625 0)"/>
     <use xlink:href="#DejaVuSans-57" transform="translate(2422.265625 0)"/>
     <use xlink:href="#DejaVuSans-56" transform="translate(2461.46875 0)"/>
     <use xlink:href="#DejaVuSans-f" transform="translate(2513.5625 0)"/>
     <use xlink:href="#DejaVuSans-3" transform="translate(2545.34375 0)"/>
     <use xlink:href="#DejaVuSans-15" transform="translate(2577.125 0)"/>
     <use xlink:href="#DejaVuSans-13" transform="translate(2640.75 0)"/>
     <use xlink:href="#DejaVuSans-15" transform="translate(2704.375 0)"/>
     <use xlink:href="#DejaVuSans-18" transform="translate(2768 0)"/>
     <use xlink:href="#DejaVuSans-11" transform="translate(2831.625 0)"/>
     <use xlink:href="#DejaVuSans-3" transform="translate(2863.40625 0)"/>
     <use xlink:href="#DejaVuSans-24" transform="translate(2895.1875 0)"/>
     <use xlink:href="#DejaVuSans-55" transform="translate(2963.59375 0)"/>
     <use xlink:href="#DejaVuSans-45" transform="translate(3004.703125 0)"/>
     <use xlink:href="#DejaVuSans-4c" transform="translate(3068.1875 0)"/>
     <use xlink:href="#DejaVuSans-57" transform="translate(3095.96875 0)"/>
     <use xlink:href="#DejaVuSans-55" transform="translate(3135.171875 0)"/>
     <use xlink:href="#DejaVuSans-44" transform="translate(3176.28125 0)"/>
     <use xlink:href="#DejaVuSans-4a" transform="translate(3237.5625 0)"/>
     <use xlink:href="#DejaVuSans-48" transform="translate(3301.046875 0)"/>
     <use xlink:href="#DejaVuSans-1d" transform="translate(3362.578125 0)"/>
     <use xlink:href="#DejaVuSans-3" transform="translate(3396.265625 0)"/>
     <use xlink:href="#DejaVuSans-28" transform="translate(3428.046875 0)"/>
     <use xlink:href="#DejaVuSans-51" transform="translate(3491.234375 0)"/>
     <use xlink:href="#DejaVuSans-48" transform="translate(3554.609375 0)"/>
     <use xlink:href="#DejaVuSans-55" transform="translate(3616.140625 0)"/>
     <use xlink:href="#DejaVuSans-4a" transform="translate(3655.5 0)"/>
     <use xlink:href="#DejaVuSans-5c" transform="translate(3718.984375 0)"/>
     <use xlink:href="#DejaVuSans-10" transform="translate(3776.421875 0)"/>
     <use xlink:href="#DejaVuSans-26" transform="translate(3812.5 0)"/>
     <use xlink:href="#DejaVuSans-4b" transform="translate(3882.328125 0)"/>
     <use xlink:href="#DejaVuSans-44" transform="translate(3945.703125 0)"/>
     <use xlink:href="#DejaVuSans-55" transform="translate(4006.984375 0)"/>
     <use xlink:href="#DejaVuSans-57" transform="translate(4048.09375 0)"/>
     <use xlink:href="#DejaVuSans-56" transform="translate(4087.296875 0)"/>
     <use xlink:href="#DejaVuSans-3" transform="translate(4139.390625 0)"/>
     <use xlink:href="#DejaVuSans-36" transform="translate(4171.171875 0)"/>
     <use xlink:href="#DejaVuSans-28" transform="translate(4234.65625 0)"/>
     <use xlink:href="#DejaVuSans-16" transform="translate(4297.84375 0)"/>
     <use xlink:href="#DejaVuSans-12" transform="translate(4361.46875 0)"/>
     <use xlink:href="#DejaVuSans-36" transform="translate(4395.15625 0)"/>
     <use xlink:href="#DejaVuSans-28" transform="translate(4458.640625 0)"/>
     <use xlink:href="#DejaVuSans-17" transform="translate(4521.828125 0)"/>
     <use xlink:href="#DejaVuSans-3" transform="translate(4585.453125 0)"/>
     <use xlink:href="#DejaVuSans-15" transform="translate(4617.234375 0)"/>
     <use xlink:href="#DejaVuSans-13" transform="translate(4680.859375 0)"/>
     <use xlink:href="#DejaVuSans-15" transform="translate(4744.484375 0)"/>
     <use xlink:href="#DejaVuSans-18" transform="translate(4808.109375 0)"/>
     <use xlink:href="#DejaVuSans-11" transform="translate(4871.734375 0)"/>
     <use xlink:href="#DejaVuSans-3" transform="translate(4903.515625 0)"/>
     <use xlink:href="#DejaVuSans-26" transform="translate(4935.296875 0)"/>
     <use xlink:href="#DejaVuSans-44" transform="translate(5005.125 0)"/>
     <use xlink:href="#DejaVuSans-53" transform="translate(5066.40625 0)"/>
     <use xlink:href="#DejaVuSans-48" transform="translate(5129.890625 0)"/>
     <use xlink:href="#DejaVuSans-5b" transform="translate(5189.671875 0)"/>
     <use xlink:href="#DejaVuSans-1d" transform="translate(5248.859375 0)"/>
     <use xlink:href="#DejaVuSans-3" transform="translate(5282.546875 0)"/>
     <use xlink:href="#DejaVuSans-25" transform="translate(5314.328125 0)"/>
     <use xlink:href="#DejaVuSans-4f" transform="translate(5382.9375 0)"/>
     <use xlink:href="#DejaVuSans-52" transform="translate(5410.71875 0)"/>
     <use xlink:href="#DejaVuSans-52" transform="translate(5471.90625 0)"/>
     <use xlink:href="#DejaVuSans-50" transform="translate(5533.09375 0)"/>
     <use xlink:href="#DejaVuSans-45" transform="translate(5630.5 0)"/>
     <use xlink:href="#DejaVuSans-48" transform="translate(5693.984375 0)"/>
     <use xlink:href="#DejaVuSans-55" transform="translate(5755.515625 0)"/>
     <use xlink:href="#DejaVuSans-4a" transform="translate(5794.875 0)"/>
     <use xlink:href="#DejaVuSans-31" transform="translate(5858.359375 0)"/>
     <use xlink:href="#DejaVuSans-28" transform="translate(5933.171875 0)"/>
     <use xlink:href="#DejaVuSans-29" transform="translate(5996.359375 0)"/>
    </g>
    <!-- December 2025 survey ($110/kWh, four-hour turnkey) and a figure reported for Swedish projects (€172/kWh). -->
    <g style="fill: #8a8a85" transform="translate(43.333945 435.461073) scale(0.085 -0.085)">
     <defs>
      <path id="DejaVuSans-b" d="M 1984 4856 
Q 1566 4138 1362 3434 
Q 1159 2731 1159 2009 
Q 1159 1288 1364 580 
Q 1569 -128 1984 -844 
L 1484 -844 
Q 1016 -109 783 600 
Q 550 1309 550 2009 
Q 550 2706 781 3412 
Q 1013 4119 1484 4856 
L 1984 4856 
z
" transform="scale(0.015625)"/>
      <path id="DejaVuSans-7" d="M 2163 -941 
L 1850 -941 
L 1847 0 
Q 1519 6 1191 76 
Q 863 147 531 288 
L 531 850 
Q 850 650 1176 548 
Q 1503 447 1850 444 
L 1850 1869 
Q 1159 1981 845 2250 
Q 531 2519 531 2988 
Q 531 3497 872 3790 
Q 1213 4084 1850 4128 
L 1850 4863 
L 2163 4863 
L 2163 4138 
Q 2453 4125 2725 4076 
Q 2997 4028 3256 3944 
L 3256 3397 
Q 2997 3528 2723 3600 
Q 2450 3672 2163 3684 
L 2163 2350 
Q 2872 2241 3206 1959 
Q 3541 1678 3541 1191 
Q 3541 663 3186 358 
Q 2831 53 2163 6 
L 2163 -941 
z
M 1850 2406 
L 1850 3688 
Q 1488 3647 1297 3481 
Q 1106 3316 1106 3041 
Q 1106 2772 1282 2622 
Q 1459 2472 1850 2406 
z
M 2163 1806 
L 2163 453 
Q 2559 506 2761 678 
Q 2963 850 2963 1131 
Q 2963 1406 2770 1568 
Q 2578 1731 2163 1806 
z
" transform="scale(0.015625)"/>
      <path id="DejaVuSans-c" d="M 513 4856 
L 1013 4856 
Q 1481 4119 1714 3412 
Q 1947 2706 1947 2009 
Q 1947 1309 1714 600 
Q 1481 -109 1013 -844 
L 513 -844 
Q 928 -128 1133 580 
Q 1338 1288 1338 2009 
Q 1338 2731 1133 3434 
Q 928 4138 513 4856 
z
" transform="scale(0.015625)"/>
      <path id="DejaVuSans-4d" d="M 603 3500 
L 1178 3500 
L 1178 -63 
Q 1178 -731 923 -1031 
Q 669 -1331 103 -1331 
L -116 -1331 
L -116 -844 
L 38 -844 
Q 366 -844 484 -692 
Q 603 -541 603 -63 
L 603 3500 
z
M 603 4863 
L 1178 4863 
L 1178 4134 
L 603 4134 
L 603 4863 
z
" transform="scale(0.015625)"/>
      <path id="DejaVuSans-b83" d="M 3647 4306 
L 3647 3641 
Q 3363 3969 3098 4109 
Q 2834 4250 2516 4250 
Q 2025 4250 1709 3937 
Q 1394 3625 1294 3041 
L 3097 3041 
L 2925 2656 
L 1244 2656 
Q 1238 2581 1236 2509 
Q 1234 2438 1234 2328 
Q 1234 2228 1236 2156 
Q 1238 2084 1244 2009 
L 2638 2009 
L 2463 1625 
L 1294 1625 
Q 1394 1041 1709 725 
Q 2025 409 2516 409 
Q 2834 409 3098 550 
Q 3363 691 3647 1019 
L 3647 359 
Q 3369 134 3080 21 
Q 2791 -91 2491 -91 
Q 1750 -91 1267 362 
Q 784 816 659 1625 
L 0 1625 
L 172 2009 
L 606 2009 
Q 606 2081 604 2154 
Q 603 2228 603 2328 
Q 603 2438 604 2511 
Q 606 2584 606 2656 
L 0 2656 
L 172 3041 
L 659 3041 
Q 784 3844 1268 4297 
Q 1753 4750 2491 4750 
Q 2797 4750 3086 4639 
Q 3375 4528 3647 4306 
z
" transform="scale(0.015625)"/>
     </defs>
     <use xlink:href="#DejaVuSans-27"/>
     <use xlink:href="#DejaVuSans-48" transform="translate(77 0)"/>
     <use xlink:href="#DejaVuSans-46" transform="translate(138.53125 0)"/>
     <use xlink:href="#DejaVuSans-48" transform="translate(193.515625 0)"/>
     <use xlink:href="#DejaVuSans-50" transform="translate(255.046875 0)"/>
     <use xlink:href="#DejaVuSans-45" transform="translate(352.453125 0)"/>
     <use xlink:href="#DejaVuSans-48" transform="translate(415.9375 0)"/>
     <use xlink:href="#DejaVuSans-55" transform="translate(477.46875 0)"/>
     <use xlink:href="#DejaVuSans-3" transform="translate(518.578125 0)"/>
     <use xlink:href="#DejaVuSans-15" transform="translate(550.359375 0)"/>
     <use xlink:href="#DejaVuSans-13" transform="translate(613.984375 0)"/>
     <use xlink:href="#DejaVuSans-15" transform="translate(677.609375 0)"/>
     <use xlink:href="#DejaVuSans-18" transform="translate(741.234375 0)"/>
     <use xlink:href="#DejaVuSans-3" transform="translate(804.859375 0)"/>
     <use xlink:href="#DejaVuSans-56" transform="translate(836.640625 0)"/>
     <use xlink:href="#DejaVuSans-58" transform="translate(888.734375 0)"/>
     <use xlink:href="#DejaVuSans-55" transform="translate(952.109375 0)"/>
     <use xlink:href="#DejaVuSans-59" transform="translate(993.21875 0)"/>
     <use xlink:href="#DejaVuSans-48" transform="translate(1052.40625 0)"/>
     <use xlink:href="#DejaVuSans-5c" transform="translate(1113.9375 0)"/>
     <use xlink:href="#DejaVuSans-3" transform="translate(1173.125 0)"/>
     <use xlink:href="#DejaVuSans-b" transform="translate(1204.90625 0)"/>
     <use xlink:href="#DejaVuSans-7" transform="translate(1243.921875 0)"/>
     <use xlink:href="#DejaVuSans-14" transform="translate(1307.546875 0)"/>
     <use xlink:href="#DejaVuSans-14" transform="translate(1371.171875 0)"/>
     <use xlink:href="#DejaVuSans-13" transform="translate(1434.796875 0)"/>
     <use xlink:href="#DejaVuSans-12" transform="translate(1498.421875 0)"/>
     <use xlink:href="#DejaVuSans-4e" transform="translate(1532.109375 0)"/>
     <use xlink:href="#DejaVuSans-3a" transform="translate(1590.015625 0)"/>
     <use xlink:href="#DejaVuSans-4b" transform="translate(1688.890625 0)"/>
     <use xlink:href="#DejaVuSans-f" transform="translate(1752.265625 0)"/>
     <use xlink:href="#DejaVuSans-3" transform="translate(1784.046875 0)"/>
     <use xlink:href="#DejaVuSans-49" transform="translate(1815.828125 0)"/>
     <use xlink:href="#DejaVuSans-52" transform="translate(1851.03125 0)"/>
     <use xlink:href="#DejaVuSans-58" transform="translate(1912.21875 0)"/>
     <use xlink:href="#DejaVuSans-55" transform="translate(1975.59375 0)"/>
     <use xlink:href="#DejaVuSans-10" transform="translate(2010.3125 0)"/>
     <use xlink:href="#DejaVuSans-4b" transform="translate(2046.390625 0)"/>
     <use xlink:href="#DejaVuSans-52" transform="translate(2109.765625 0)"/>
     <use xlink:href="#DejaVuSans-58" transform="translate(2170.953125 0)"/>
     <use xlink:href="#DejaVuSans-55" transform="translate(2234.328125 0)"/>
     <use xlink:href="#DejaVuSans-3" transform="translate(2275.4375 0)"/>
     <use xlink:href="#DejaVuSans-57" transform="translate(2307.21875 0)"/>
     <use xlink:href="#DejaVuSans-58" transform="translate(2346.421875 0)"/>
     <use xlink:href="#DejaVuSans-55" transform="translate(2409.796875 0)"/>
     <use xlink:href="#DejaVuSans-51" transform="translate(2449.15625 0)"/>
     <use xlink:href="#DejaVuSans-4e" transform="translate(2512.53125 0)"/>
     <use xlink:href="#DejaVuSans-48" transform="translate(2566.875 0)"/>
     <use xlink:href="#DejaVuSans-5c" transform="translate(2628.40625 0)"/>
     <use xlink:href="#DejaVuSans-c" transform="translate(2687.59375 0)"/>
     <use xlink:href="#DejaVuSans-3" transform="translate(2726.609375 0)"/>
     <use xlink:href="#DejaVuSans-44" transform="translate(2758.390625 0)"/>
     <use xlink:href="#DejaVuSans-51" transform="translate(2819.671875 0)"/>
     <use xlink:href="#DejaVuSans-47" transform="translate(2883.046875 0)"/>
     <use xlink:href="#DejaVuSans-3" transform="translate(2946.53125 0)"/>
     <use xlink:href="#DejaVuSans-44" transform="translate(2978.3125 0)"/>
     <use xlink:href="#DejaVuSans-3" transform="translate(3039.59375 0)"/>
     <use xlink:href="#DejaVuSans-13af" transform="translate(3071.375 0)"/>
     <use xlink:href="#DejaVuSans-4a" transform="translate(3134.359375 0)"/>
     <use xlink:href="#DejaVuSans-58" transform="translate(3197.84375 0)"/>
     <use xlink:href="#DejaVuSans-55" transform="translate(3261.21875 0)"/>
     <use xlink:href="#DejaVuSans-48" transform="translate(3300.125 0)"/>
     <use xlink:href="#DejaVuSans-3" transform="translate(3361.65625 0)"/>
     <use xlink:href="#DejaVuSans-55" transform="translate(3393.4375 0)"/>
     <use xlink:href="#DejaVuSans-48" transform="translate(3432.34375 0)"/>
     <use xlink:href="#DejaVuSans-53" transform="translate(3493.875 0)"/>
     <use xlink:href="#DejaVuSans-52" transform="translate(3557.359375 0)"/>
     <use xlink:href="#DejaVuSans-55" transform="translate(3618.546875 0)"/>
     <use xlink:href="#DejaVuSans-57" transform="translate(3659.65625 0)"/>
     <use xlink:href="#DejaVuSans-48" transform="translate(3698.859375 0)"/>
     <use xlink:href="#DejaVuSans-47" transform="translate(3760.390625 0)"/>
     <use xlink:href="#DejaVuSans-3" transform="translate(3823.875 0)"/>
     <use xlink:href="#DejaVuSans-49" transform="translate(3855.65625 0)"/>
     <use xlink:href="#DejaVuSans-52" transform="translate(3890.859375 0)"/>
     <use xlink:href="#DejaVuSans-55" transform="translate(3952.046875 0)"/>
     <use xlink:href="#DejaVuSans-3" transform="translate(3993.15625 0)"/>
     <use xlink:href="#DejaVuSans-36" transform="translate(4024.9375 0)"/>
     <use xlink:href="#DejaVuSans-5a" transform="translate(4088.421875 0)"/>
     <use xlink:href="#DejaVuSans-48" transform="translate(4170.203125 0)"/>
     <use xlink:href="#DejaVuSans-47" transform="translate(4231.734375 0)"/>
     <use xlink:href="#DejaVuSans-4c" transform="translate(4295.21875 0)"/>
     <use xlink:href="#DejaVuSans-56" transform="translate(4323 0)"/>
     <use xlink:href="#DejaVuSans-4b" transform="translate(4375.09375 0)"/>
     <use xlink:href="#DejaVuSans-3" transform="translate(4438.46875 0)"/>
     <use xlink:href="#DejaVuSans-53" transform="translate(4470.25 0)"/>
     <use xlink:href="#DejaVuSans-55" transform="translate(4533.734375 0)"/>
     <use xlink:href="#DejaVuSans-52" transform="translate(4572.640625 0)"/>
     <use xlink:href="#DejaVuSans-4d" transform="translate(4633.828125 0)"/>
     <use xlink:href="#DejaVuSans-48" transform="translate(4661.609375 0)"/>
     <use xlink:href="#DejaVuSans-46" transform="translate(4723.140625 0)"/>
     <use xlink:href="#DejaVuSans-57" transform="translate(4778.125 0)"/>
     <use xlink:href="#DejaVuSans-56" transform="translate(4817.328125 0)"/>
     <use xlink:href="#DejaVuSans-3" transform="translate(4869.421875 0)"/>
     <use xlink:href="#DejaVuSans-b" transform="translate(4901.203125 0)"/>
     <use xlink:href="#DejaVuSans-b83" transform="translate(4940.21875 0)"/>
     <use xlink:href="#DejaVuSans-14" transform="translate(5003.84375 0)"/>
     <use xlink:href="#DejaVuSans-1a" transform="translate(5067.46875 0)"/>
     <use xlink:href="#DejaVuSans-15" transform="translate(5131.09375 0)"/>
     <use xlink:href="#DejaVuSans-12" transform="translate(5194.71875 0)"/>
     <use xlink:href="#DejaVuSans-4e" transform="translate(5228.40625 0)"/>
     <use xlink:href="#DejaVuSans-3a" transform="translate(5286.3125 0)"/>
     <use xlink:href="#DejaVuSans-4b" transform="translate(5385.1875 0)"/>
     <use xlink:href="#DejaVuSans-c" transform="translate(5448.5625 0)"/>
     <use xlink:href="#DejaVuSans-11" transform="translate(5487.578125 0)"/>
    </g>
   </g>
   <g id="text_22">
    <!-- Figure 26.16a. A Swedish battery is paid for its power, not its energy. -->
    <g transform="translate(43.333945 16.698047) scale(0.125 -0.125)">
     <defs>
      <path id="DejaVuSans-Bold-29" d="M 588 4666 
L 3834 4666 
L 3834 3756 
L 1791 3756 
L 1791 2888 
L 3713 2888 
L 3713 1978 
L 1791 1978 
L 1791 0 
L 588 0 
L 588 4666 
z
" transform="scale(0.015625)"/>
      <path id="DejaVuSans-Bold-4c" d="M 538 3500 
L 1656 3500 
L 1656 0 
L 538 0 
L 538 3500 
z
M 538 4863 
L 1656 4863 
L 1656 3950 
L 538 3950 
L 538 4863 
z
" transform="scale(0.015625)"/>
      <path id="DejaVuSans-Bold-4a" d="M 2919 594 
Q 2688 288 2409 144 
Q 2131 0 1766 0 
Q 1125 0 706 504 
Q 288 1009 288 1791 
Q 288 2575 706 3076 
Q 1125 3578 1766 3578 
Q 2131 3578 2409 3434 
Q 2688 3291 2919 2981 
L 2919 3500 
L 4044 3500 
L 4044 353 
Q 4044 -491 3511 -936 
Q 2978 -1381 1966 -1381 
Q 1638 -1381 1331 -1331 
Q 1025 -1281 716 -1178 
L 716 -306 
Q 1009 -475 1290 -558 
Q 1572 -641 1856 -641 
Q 2406 -641 2662 -400 
Q 2919 -159 2919 353 
L 2919 594 
z
M 2181 2772 
Q 1834 2772 1640 2515 
Q 1447 2259 1447 1791 
Q 1447 1309 1634 1061 
Q 1822 813 2181 813 
Q 2531 813 2725 1069 
Q 2919 1325 2919 1791 
Q 2919 2259 2725 2515 
Q 2531 2772 2181 2772 
z
" transform="scale(0.015625)"/>
      <path id="DejaVuSans-Bold-58" d="M 500 1363 
L 500 3500 
L 1625 3500 
L 1625 3150 
Q 1625 2866 1622 2436 
Q 1619 2006 1619 1863 
Q 1619 1441 1641 1255 
Q 1663 1069 1716 984 
Q 1784 875 1895 815 
Q 2006 756 2150 756 
Q 2500 756 2700 1025 
Q 2900 1294 2900 1772 
L 2900 3500 
L 4019 3500 
L 4019 0 
L 2900 0 
L 2900 506 
Q 2647 200 2364 54 
Q 2081 -91 1741 -91 
Q 1134 -91 817 281 
Q 500 653 500 1363 
z
" transform="scale(0.015625)"/>
      <path id="DejaVuSans-Bold-55" d="M 3138 2547 
Q 2991 2616 2845 2648 
Q 2700 2681 2553 2681 
Q 2122 2681 1889 2404 
Q 1656 2128 1656 1613 
L 1656 0 
L 538 0 
L 538 3500 
L 1656 3500 
L 1656 2925 
Q 1872 3269 2151 3426 
Q 2431 3584 2822 3584 
Q 2878 3584 2943 3579 
Q 3009 3575 3134 3559 
L 3138 2547 
z
" transform="scale(0.015625)"/>
      <path id="DejaVuSans-Bold-48" d="M 4031 1759 
L 4031 1441 
L 1416 1441 
Q 1456 1047 1700 850 
Q 1944 653 2381 653 
Q 2734 653 3104 758 
Q 3475 863 3866 1075 
L 3866 213 
Q 3469 63 3072 -14 
Q 2675 -91 2278 -91 
Q 1328 -91 801 392 
Q 275 875 275 1747 
Q 275 2603 792 3093 
Q 1309 3584 2216 3584 
Q 3041 3584 3536 3087 
Q 4031 2591 4031 1759 
z
M 2881 2131 
Q 2881 2450 2695 2645 
Q 2509 2841 2209 2841 
Q 1884 2841 1681 2658 
Q 1478 2475 1428 2131 
L 2881 2131 
z
" transform="scale(0.015625)"/>
      <path id="DejaVuSans-Bold-3" transform="scale(0.015625)"/>
      <path id="DejaVuSans-Bold-19" d="M 2316 2303 
Q 2000 2303 1842 2098 
Q 1684 1894 1684 1484 
Q 1684 1075 1842 870 
Q 2000 666 2316 666 
Q 2634 666 2792 870 
Q 2950 1075 2950 1484 
Q 2950 1894 2792 2098 
Q 2634 2303 2316 2303 
z
M 3803 4544 
L 3803 3681 
Q 3506 3822 3243 3889 
Q 2981 3956 2731 3956 
Q 2194 3956 1894 3657 
Q 1594 3359 1544 2772 
Q 1750 2925 1990 3001 
Q 2231 3078 2516 3078 
Q 3231 3078 3670 2659 
Q 4109 2241 4109 1563 
Q 4109 813 3618 361 
Q 3128 -91 2303 -91 
Q 1394 -91 895 523 
Q 397 1138 397 2266 
Q 397 3422 980 4083 
Q 1563 4744 2578 4744 
Q 2900 4744 3203 4694 
Q 3506 4644 3803 4544 
z
" transform="scale(0.015625)"/>
      <path id="DejaVuSans-Bold-11" d="M 653 1209 
L 1778 1209 
L 1778 0 
L 653 0 
L 653 1209 
z
" transform="scale(0.015625)"/>
      <path id="DejaVuSans-Bold-44" d="M 2106 1575 
Q 1756 1575 1579 1456 
Q 1403 1338 1403 1106 
Q 1403 894 1545 773 
Q 1688 653 1941 653 
Q 2256 653 2472 879 
Q 2688 1106 2688 1447 
L 2688 1575 
L 2106 1575 
z
M 3816 1997 
L 3816 0 
L 2688 0 
L 2688 519 
Q 2463 200 2181 54 
Q 1900 -91 1497 -91 
Q 953 -91 614 226 
Q 275 544 275 1050 
Q 275 1666 698 1953 
Q 1122 2241 2028 2241 
L 2688 2241 
L 2688 2328 
Q 2688 2594 2478 2717 
Q 2269 2841 1825 2841 
Q 1466 2841 1156 2769 
Q 847 2697 581 2553 
L 581 3406 
Q 941 3494 1303 3539 
Q 1666 3584 2028 3584 
Q 2975 3584 3395 3211 
Q 3816 2838 3816 1997 
z
" transform="scale(0.015625)"/>
      <path id="DejaVuSans-Bold-24" d="M 3419 850 
L 1538 850 
L 1241 0 
L 31 0 
L 1759 4666 
L 3194 4666 
L 4922 0 
L 3713 0 
L 3419 850 
z
M 1838 1716 
L 3116 1716 
L 2478 3572 
L 1838 1716 
z
" transform="scale(0.015625)"/>
      <path id="DejaVuSans-Bold-36" d="M 3834 4519 
L 3834 3531 
Q 3450 3703 3084 3790 
Q 2719 3878 2394 3878 
Q 1963 3878 1756 3759 
Q 1550 3641 1550 3391 
Q 1550 3203 1689 3098 
Q 1828 2994 2194 2919 
L 2706 2816 
Q 3484 2659 3812 2340 
Q 4141 2022 4141 1434 
Q 4141 663 3683 286 
Q 3225 -91 2284 -91 
Q 1841 -91 1394 -6 
Q 947 78 500 244 
L 500 1259 
Q 947 1022 1364 901 
Q 1781 781 2169 781 
Q 2563 781 2772 912 
Q 2981 1044 2981 1288 
Q 2981 1506 2839 1625 
Q 2697 1744 2272 1838 
L 1806 1941 
Q 1106 2091 782 2419 
Q 459 2747 459 3303 
Q 459 4000 909 4375 
Q 1359 4750 2203 4750 
Q 2588 4750 2994 4692 
Q 3400 4634 3834 4519 
z
" transform="scale(0.015625)"/>
      <path id="DejaVuSans-Bold-5a" d="M 225 3500 
L 1313 3500 
L 1900 1088 
L 2491 3500 
L 3425 3500 
L 4013 1113 
L 4603 3500 
L 5691 3500 
L 4769 0 
L 3547 0 
L 2956 2406 
L 2369 0 
L 1147 0 
L 225 3500 
z
" transform="scale(0.015625)"/>
      <path id="DejaVuSans-Bold-47" d="M 2919 2988 
L 2919 4863 
L 4044 4863 
L 4044 0 
L 2919 0 
L 2919 506 
Q 2688 197 2409 53 
Q 2131 -91 1766 -91 
Q 1119 -91 703 423 
Q 288 938 288 1747 
Q 288 2556 703 3070 
Q 1119 3584 1766 3584 
Q 2128 3584 2408 3439 
Q 2688 3294 2919 2988 
z
M 2181 722 
Q 2541 722 2730 984 
Q 2919 1247 2919 1747 
Q 2919 2247 2730 2509 
Q 2541 2772 2181 2772 
Q 1825 2772 1636 2509 
Q 1447 2247 1447 1747 
Q 1447 1247 1636 984 
Q 1825 722 2181 722 
z
" transform="scale(0.015625)"/>
      <path id="DejaVuSans-Bold-56" d="M 3272 3391 
L 3272 2541 
Q 2913 2691 2578 2766 
Q 2244 2841 1947 2841 
Q 1628 2841 1473 2761 
Q 1319 2681 1319 2516 
Q 1319 2381 1436 2309 
Q 1553 2238 1856 2203 
L 2053 2175 
Q 2913 2066 3209 1816 
Q 3506 1566 3506 1031 
Q 3506 472 3093 190 
Q 2681 -91 1863 -91 
Q 1516 -91 1145 -36 
Q 775 19 384 128 
L 384 978 
Q 719 816 1070 734 
Q 1422 653 1784 653 
Q 2113 653 2278 743 
Q 2444 834 2444 1013 
Q 2444 1163 2330 1236 
Q 2216 1309 1875 1350 
L 1678 1375 
Q 931 1469 631 1722 
Q 331 1975 331 2491 
Q 331 3047 712 3315 
Q 1094 3584 1881 3584 
Q 2191 3584 2531 3537 
Q 2872 3491 3272 3391 
z
" transform="scale(0.015625)"/>
      <path id="DejaVuSans-Bold-4b" d="M 4056 2131 
L 4056 0 
L 2931 0 
L 2931 347 
L 2931 1625 
Q 2931 2084 2911 2256 
Q 2891 2428 2841 2509 
Q 2775 2619 2662 2680 
Q 2550 2741 2406 2741 
Q 2056 2741 1856 2470 
Q 1656 2200 1656 1722 
L 1656 0 
L 538 0 
L 538 4863 
L 1656 4863 
L 1656 2988 
Q 1909 3294 2193 3439 
Q 2478 3584 2822 3584 
Q 3428 3584 3742 3212 
Q 4056 2841 4056 2131 
z
" transform="scale(0.015625)"/>
      <path id="DejaVuSans-Bold-45" d="M 2400 722 
Q 2759 722 2948 984 
Q 3138 1247 3138 1747 
Q 3138 2247 2948 2509 
Q 2759 2772 2400 2772 
Q 2041 2772 1848 2508 
Q 1656 2244 1656 1747 
Q 1656 1250 1848 986 
Q 2041 722 2400 722 
z
M 1656 2988 
Q 1888 3294 2169 3439 
Q 2450 3584 2816 3584 
Q 3463 3584 3878 3070 
Q 4294 2556 4294 1747 
Q 4294 938 3878 423 
Q 3463 -91 2816 -91 
Q 2450 -91 2169 54 
Q 1888 200 1656 506 
L 1656 0 
L 538 0 
L 538 4863 
L 1656 4863 
L 1656 2988 
z
" transform="scale(0.015625)"/>
      <path id="DejaVuSans-Bold-57" d="M 1759 4494 
L 1759 3500 
L 2913 3500 
L 2913 2700 
L 1759 2700 
L 1759 1216 
Q 1759 972 1856 886 
Q 1953 800 2241 800 
L 2816 800 
L 2816 0 
L 1856 0 
Q 1194 0 917 276 
Q 641 553 641 1216 
L 641 2700 
L 84 2700 
L 84 3500 
L 641 3500 
L 641 4494 
L 1759 4494 
z
" transform="scale(0.015625)"/>
      <path id="DejaVuSans-Bold-5c" d="M 78 3500 
L 1197 3500 
L 2138 1125 
L 2938 3500 
L 4056 3500 
L 2584 -331 
Q 2363 -916 2067 -1148 
Q 1772 -1381 1288 -1381 
L 641 -1381 
L 641 -647 
L 991 -647 
Q 1275 -647 1404 -556 
Q 1534 -466 1606 -231 
L 1638 -134 
L 78 3500 
z
" transform="scale(0.015625)"/>
      <path id="DejaVuSans-Bold-53" d="M 1656 506 
L 1656 -1331 
L 538 -1331 
L 538 3500 
L 1656 3500 
L 1656 2988 
Q 1888 3294 2169 3439 
Q 2450 3584 2816 3584 
Q 3463 3584 3878 3070 
Q 4294 2556 4294 1747 
Q 4294 938 3878 423 
Q 3463 -91 2816 -91 
Q 2450 -91 2169 54 
Q 1888 200 1656 506 
z
M 2400 2772 
Q 2041 2772 1848 2508 
Q 1656 2244 1656 1747 
Q 1656 1250 1848 986 
Q 2041 722 2400 722 
Q 2759 722 2948 984 
Q 3138 1247 3138 1747 
Q 3138 2247 2948 2509 
Q 2759 2772 2400 2772 
z
" transform="scale(0.015625)"/>
      <path id="DejaVuSans-Bold-49" d="M 2841 4863 
L 2841 4128 
L 2222 4128 
Q 1984 4128 1890 4042 
Q 1797 3956 1797 3744 
L 1797 3500 
L 2753 3500 
L 2753 2700 
L 1797 2700 
L 1797 0 
L 678 0 
L 678 2700 
L 122 2700 
L 122 3500 
L 678 3500 
L 678 3744 
Q 678 4316 997 4589 
Q 1316 4863 1984 4863 
L 2841 4863 
z
" transform="scale(0.015625)"/>
      <path id="DejaVuSans-Bold-52" d="M 2203 2784 
Q 1831 2784 1636 2517 
Q 1441 2250 1441 1747 
Q 1441 1244 1636 976 
Q 1831 709 2203 709 
Q 2569 709 2762 976 
Q 2956 1244 2956 1747 
Q 2956 2250 2762 2517 
Q 2569 2784 2203 2784 
z
M 2203 3584 
Q 3106 3584 3614 3096 
Q 4122 2609 4122 1747 
Q 4122 884 3614 396 
Q 3106 -91 2203 -91 
Q 1297 -91 786 396 
Q 275 884 275 1747 
Q 275 2609 786 3096 
Q 1297 3584 2203 3584 
z
" transform="scale(0.015625)"/>
      <path id="DejaVuSans-Bold-f" d="M 653 1209 
L 1778 1209 
L 1778 256 
L 1006 -909 
L 341 -909 
L 653 256 
L 653 1209 
z
" transform="scale(0.015625)"/>
      <path id="DejaVuSans-Bold-51" d="M 4056 2131 
L 4056 0 
L 2931 0 
L 2931 347 
L 2931 1631 
Q 2931 2084 2911 2256 
Q 2891 2428 2841 2509 
Q 2775 2619 2662 2680 
Q 2550 2741 2406 2741 
Q 2056 2741 1856 2470 
Q 1656 2200 1656 1722 
L 1656 0 
L 538 0 
L 538 3500 
L 1656 3500 
L 1656 2988 
Q 1909 3294 2193 3439 
Q 2478 3584 2822 3584 
Q 3428 3584 3742 3212 
Q 4056 2841 4056 2131 
z
" transform="scale(0.015625)"/>
     </defs>
     <use xlink:href="#DejaVuSans-Bold-29"/>
     <use xlink:href="#DejaVuSans-Bold-4c" transform="translate(68.3125 0)"/>
     <use xlink:href="#DejaVuSans-Bold-4a" transform="translate(102.59375 0)"/>
     <use xlink:href="#DejaVuSans-Bold-58" transform="translate(174.171875 0)"/>
     <use xlink:href="#DejaVuSans-Bold-55" transform="translate(245.359375 0)"/>
     <use xlink:href="#DejaVuSans-Bold-48" transform="translate(294.671875 0)"/>
     <use xlink:href="#DejaVuSans-Bold-3" transform="translate(362.5 0)"/>
     <use xlink:href="#DejaVuSans-Bold-15" transform="translate(397.3125 0)"/>
     <use xlink:href="#DejaVuSans-Bold-19" transform="translate(466.890625 0)"/>
     <use xlink:href="#DejaVuSans-Bold-11" transform="translate(536.46875 0)"/>
     <use xlink:href="#DejaVuSans-Bold-14" transform="translate(574.453125 0)"/>
     <use xlink:href="#DejaVuSans-Bold-19" transform="translate(644.03125 0)"/>
     <use xlink:href="#DejaVuSans-Bold-44" transform="translate(713.609375 0)"/>
     <use xlink:href="#DejaVuSans-Bold-11" transform="translate(781.09375 0)"/>
     <use xlink:href="#DejaVuSans-Bold-3" transform="translate(819.078125 0)"/>
     <use xlink:href="#DejaVuSans-Bold-24" transform="translate(853.890625 0)"/>
     <use xlink:href="#DejaVuSans-Bold-3" transform="translate(931.28125 0)"/>
     <use xlink:href="#DejaVuSans-Bold-36" transform="translate(966.09375 0)"/>
     <use xlink:href="#DejaVuSans-Bold-5a" transform="translate(1038.109375 0)"/>
     <use xlink:href="#DejaVuSans-Bold-48" transform="translate(1130.5 0)"/>
     <use xlink:href="#DejaVuSans-Bold-47" transform="translate(1198.328125 0)"/>
     <use xlink:href="#DejaVuSans-Bold-4c" transform="translate(1269.90625 0)"/>
     <use xlink:href="#DejaVuSans-Bold-56" transform="translate(1304.1875 0)"/>
     <use xlink:href="#DejaVuSans-Bold-4b" transform="translate(1363.703125 0)"/>
     <use xlink:href="#DejaVuSans-Bold-3" transform="translate(1434.890625 0)"/>
     <use xlink:href="#DejaVuSans-Bold-45" transform="translate(1469.703125 0)"/>
     <use xlink:href="#DejaVuSans-Bold-44" transform="translate(1541.28125 0)"/>
     <use xlink:href="#DejaVuSans-Bold-57" transform="translate(1608.765625 0)"/>
     <use xlink:href="#DejaVuSans-Bold-57" transform="translate(1656.5625 0)"/>
     <use xlink:href="#DejaVuSans-Bold-48" transform="translate(1704.359375 0)"/>
     <use xlink:href="#DejaVuSans-Bold-55" transform="translate(1772.1875 0)"/>
     <use xlink:href="#DejaVuSans-Bold-5c" transform="translate(1821.5 0)"/>
     <use xlink:href="#DejaVuSans-Bold-3" transform="translate(1886.6875 0)"/>
     <use xlink:href="#DejaVuSans-Bold-4c" transform="translate(1921.5 0)"/>
     <use xlink:href="#DejaVuSans-Bold-56" transform="translate(1955.78125 0)"/>
     <use xlink:href="#DejaVuSans-Bold-3" transform="translate(2015.296875 0)"/>
     <use xlink:href="#DejaVuSans-Bold-53" transform="translate(2050.109375 0)"/>
     <use xlink:href="#DejaVuSans-Bold-44" transform="translate(2121.6875 0)"/>
     <use xlink:href="#DejaVuSans-Bold-4c" transform="translate(2189.171875 0)"/>
     <use xlink:href="#DejaVuSans-Bold-47" transform="translate(2223.453125 0)"/>
     <use xlink:href="#DejaVuSans-Bold-3" transform="translate(2295.03125 0)"/>
     <use xlink:href="#DejaVuSans-Bold-49" transform="translate(2329.84375 0)"/>
     <use xlink:href="#DejaVuSans-Bold-52" transform="translate(2373.34375 0)"/>
     <use xlink:href="#DejaVuSans-Bold-55" transform="translate(2442.046875 0)"/>
     <use xlink:href="#DejaVuSans-Bold-3" transform="translate(2491.359375 0)"/>
     <use xlink:href="#DejaVuSans-Bold-4c" transform="translate(2526.171875 0)"/>
     <use xlink:href="#DejaVuSans-Bold-57" transform="translate(2560.453125 0)"/>
     <use xlink:href="#DejaVuSans-Bold-56" transform="translate(2608.25 0)"/>
     <use xlink:href="#DejaVuSans-Bold-3" transform="translate(2667.765625 0)"/>
     <use xlink:href="#DejaVuSans-Bold-53" transform="translate(2702.578125 0)"/>
     <use xlink:href="#DejaVuSans-Bold-52" transform="translate(2774.15625 0)"/>
     <use xlink:href="#DejaVuSans-Bold-5a" transform="translate(2842.859375 0)"/>
     <use xlink:href="#DejaVuSans-Bold-48" transform="translate(2935.25 0)"/>
     <use xlink:href="#DejaVuSans-Bold-55" transform="translate(3003.078125 0)"/>
     <use xlink:href="#DejaVuSans-Bold-f" transform="translate(3037.6875 0)"/>
     <use xlink:href="#DejaVuSans-Bold-3" transform="translate(3075.671875 0)"/>
     <use xlink:href="#DejaVuSans-Bold-51" transform="translate(3110.484375 0)"/>
     <use xlink:href="#DejaVuSans-Bold-52" transform="translate(3181.671875 0)"/>
     <use xlink:href="#DejaVuSans-Bold-57" transform="translate(3250.375 0)"/>
     <use xlink:href="#DejaVuSans-Bold-3" transform="translate(3298.171875 0)"/>
     <use xlink:href="#DejaVuSans-Bold-4c" transform="translate(3332.984375 0)"/>
     <use xlink:href="#DejaVuSans-Bold-57" transform="translate(3367.265625 0)"/>
     <use xlink:href="#DejaVuSans-Bold-56" transform="translate(3415.0625 0)"/>
     <use xlink:href="#DejaVuSans-Bold-3" transform="translate(3474.578125 0)"/>
     <use xlink:href="#DejaVuSans-Bold-48" transform="translate(3509.390625 0)"/>
     <use xlink:href="#DejaVuSans-Bold-51" transform="translate(3577.21875 0)"/>
     <use xlink:href="#DejaVuSans-Bold-48" transform="translate(3648.40625 0)"/>
     <use xlink:href="#DejaVuSans-Bold-55" transform="translate(3716.234375 0)"/>
     <use xlink:href="#DejaVuSans-Bold-4a" transform="translate(3765.546875 0)"/>
     <use xlink:href="#DejaVuSans-Bold-5c" transform="translate(3837.125 0)"/>
     <use xlink:href="#DejaVuSans-Bold-11" transform="translate(3893.140625 0)"/>
    </g>
   </g>
   <g id="line2d_19">
    <path d="M 43.333945 279.766637 
L 556.693945 279.766637 
" clip-path="url(#p2da327ecdb)" style="fill: none; stroke-dasharray: 7.5,4.5; stroke-dashoffset: 0; stroke: #161d1b; stroke-width: 1.5"/>
   </g>
   <g id="line2d_20">
    <path d="M 43.333945 244.692561 
L 556.693945 244.692561 
" clip-path="url(#p2da327ecdb)" style="fill: none; stroke: #161d1b; stroke-width: 1.5; stroke-linecap: square"/>
   </g>
  </g>
 </g>
 <defs>
  <clipPath id="p2da327ecdb">
   <rect x="43.333945" y="58.698047" width="513.36" height="299.376"/>
  </clipPath>
 </defs>
</svg>
